<?xml version="1.0" encoding="UTF-8"?>
<!DOCTYPE svg  PUBLIC '-//W3C//DTD SVG 1.1//EN'  'http://www.w3.org/Graphics/SVG/1.1/DTD/svg11.dtd'>
<svg enable-background="new 0 0 72.55 40.1" version="1.1" viewBox="0 0 72.55 40.1" xml:space="preserve" xmlns="http://www.w3.org/2000/svg">
<g clip-rule="evenodd" fill-rule="evenodd">
	<path d="m43.95 9.6l-0.15 0.35c-0.233 0.233-0.566 0.75-1 1.55-0.5 0.767-1.033 1.15-1.6 1.15-0.033-0.467-0.05-0.8-0.05-1 0.033-0.233 0.116-0.433 0.25-0.6 0.166-0.167 0.267-0.316 0.3-0.45 0.033-0.167-0.017-0.434-0.15-0.8-0.166-0.533-0.25-0.833-0.25-0.9 0.233-0.167 0.533-0.3 0.9-0.4 0.233-0.067 0.55-0.15 0.95-0.25l0.8 1.35z" fill="#D1CDBD"/>
	<path d="m19.15 15.75c-0.2 0.267-0.35 0.617-0.45 1.05-0.067 0.233-0.017 0.4 0.15 0.5 0.267 0.167 0.483 0.184 0.65 0.05s0.25-0.4 0.25-0.8c0.033-0.233-0.017-0.367-0.15-0.4 0-0.066-0.033-0.167-0.1-0.3-0.067-0.167-0.183-0.2-0.35-0.1zm-1.05 2.75c0-0.1-0.017-0.2-0.05-0.3 0-0.133-0.066-0.15-0.2-0.05l-0.1 0.1h-0.05c0-0.133-0.017-0.217-0.05-0.25-0.267-0.333-0.517-0.433-0.75-0.3 0-0.1-0.017-0.2-0.05-0.3-0.067-0.2-0.233-0.367-0.5-0.5-0.233-0.1-0.5 0-0.8 0.3-0.1-0.067-0.2-0.117-0.3-0.15-1.433-0.566-2.35-0.833-2.75-0.8l-0.8 0.15c0.8-0.867 1.566-1.75 2.3-2.65 1.8-2.133 3.383-4.217 4.75-6.25 0.8-0.867 1.4-1.5 1.8-1.9 0.767-0.733 1.483-1.233 2.15-1.5 0.7-0.267 1.767-0.617 3.2-1.05l0.65-0.15c1.934 1.067 4.3 1.967 7.1 2.7 4.633 1.233 8.85 1.483 12.65 0.75-0.899 0.7-1.684 1.783-2.35 3.25l-0.8-1.35c-0.4 0.1-0.717 0.183-0.95 0.25-0.367 0.1-0.667 0.233-0.9 0.4 0 0.067 0.084 0.367 0.25 0.9 0.134 0.367 0.184 0.633 0.15 0.8-0.033 0.133-0.134 0.283-0.3 0.45-0.134 0.167-0.217 0.367-0.25 0.6 0 0.2 0.017 0.533 0.05 1 0.566 0 1.1-0.383 1.6-1.15 0.434-0.8 0.767-1.317 1-1.55l-0.35 1.1c-0.467 1.633-1.066 2.684-1.8 3.15-0.367 0.267-0.934 0.383-1.7 0.35-0.434-0.033-1.15 0.1-2.15 0.4l-1.2 0.35-0.149 0.05 1.35 0.35c0.7 0.267 1.066 0.417 1.101 0.45-1.5 0.567-2.601 0.867-3.3 0.9-0.934 0.067-2.217-0.1-3.85-0.5-2.133-0.533-3.45-0.833-3.95-0.9-0.633-0.066-1.15-0.117-1.55-0.15-0.367-0.367-0.6-0.583-0.7-0.65-0.066-0.067-0.15 0-0.25 0.2-0.1 0.167-0.117 0.284-0.05 0.35-0.567-0.066-1.067-0.05-1.5 0.05l0.05-0.1c0.1-0.167 0.1-0.35 0-0.55-0.033-0.033-0.05-0.066-0.05-0.1 0.133-0.1 0.133-0.284 0-0.55-0.1-0.2-0.217-0.233-0.35-0.1l-0.6 0.6c-0.133 0.133-0.133 0.317 0 0.55 0.067 0.167 0.15 0.25 0.25 0.25-0.035 0.033-0.052 0.083-0.052 0.15l-0.8 0.25c-0.4 0.1-0.717 0.25-0.95 0.45 0.033 0.133 0.083 0.284 0.15 0.45-0.167-0.033-0.316 0.033-0.45 0.2-0.067-0.2-0.167-0.3-0.3-0.3-0.3 0-0.483 0.3-0.55 0.9-0.033 0.1-0.017 0.2 0.05 0.3 0.033 0.1 0.083 0.15 0.15 0.15 0.133 0.033 0.233-0.067 0.3-0.3v-0.05c0.033 0.233 0.117 0.367 0.25 0.4 0.1 0.034 0.167-0.017 0.2-0.15 0.1-0.233 0.2-0.35 0.3-0.35v0.3c0 0.233 0.083 0.383 0.25 0.45s0.25-0.033 0.25-0.3c0.033-0.132 0.049-0.249 0.05-0.35 1e-3 0.035 0.018 0.068 0.05 0.1-0.1 0.167-0.083 0.4 0.05 0.7 0.233 0.533 0.65 0.85 1.25 0.95 0.033-0.066 0.083-0.117 0.15-0.15 0.9 0.967 1.633 1.866 2.2 2.7h-0.05c-0.167 0.066-0.3 0.25-0.4 0.55v0.25c-0.033 0.066-0.033 0.15 0 0.25 0 0.134 0.033 0.267 0.1 0.4 0.1 0.333 0.333 0.5 0.7 0.5 0.133 0 0.233-0.084 0.3-0.25 0.033-0.034 0.05-0.084 0.05-0.15 0-0.1-0.033-0.15-0.1-0.15-0.267 0-0.45-0.116-0.55-0.35 0.133-0.033 0.267-0.134 0.4-0.3 0.167 0.333 0.317 0.649 0.45 0.95v0.05c0 0.033 0.017 0.066 0.05 0.1 0.167 0.467 0.267 0.9 0.3 1.3 0.033 0.534-0.117 0.917-0.45 1.15-0.133 0.066-0.333 0.15-0.6 0.25v-0.05c0.067-0.033 0.133-0.134 0.2-0.3 0.033-0.2-0.017-0.267-0.15-0.2-0.267 0.166-0.434 0.399-0.5 0.7-0.367 0.066-0.633 0.133-0.8 0.199-0.4 0.101-0.7 0.233-0.9 0.4-0.4 0.3-0.3 0.65 0.3 1.05l0.1 0.101c0.434 0.199 0.817 0.366 1.15 0.5-0.267-0.101-0.55-0.217-0.85-0.351 0.233 0.134 0.667 0.4 1.3 0.8 0.467 0.301 0.9 0.7 1.3 1.2-0.2 0.334-0.434 0.767-0.7 1.3-0.133 0.301-0.25 0.585-0.35 0.851-0.233 0.066-0.45 0.1-0.65 0.1-0.033-0.033-0.083-0.05-0.15-0.05h-0.25c-0.1-0.033-0.184-0.066-0.25-0.1l-0.05-0.05v0.051l-0.05-0.051c-0.033-0.066-0.083-0.033-0.15 0.101-0.533-0.033-1.117-0.134-1.75-0.3 0.267-0.233 0.517-0.517 0.75-0.851 0.3-0.366 0.467-0.934 0.5-1.7 0.033-0.899-0.267-1.399-0.9-1.5-0.633-0.066-1.233 0.051-1.8 0.351-0.6 0.366-1 0.916-1.2 1.649-0.2 0.8 0.117 1.35 0.95 1.65 0.133 0.033 0.267 0.066 0.4 0.1-0.267 0-0.583 0.017-0.95 0.051-0.1 0.033-0.2 0.05-0.3 0.05-0.433-0.334-0.816-0.717-1.15-1.15-0.1-0.133-0.2-0.116-0.3 0.05-0.1 0.2-0.1 0.367 0 0.5 0.233 0.301 0.5 0.567 0.8 0.801-0.133 0.033-0.25 0.083-0.35 0.149-0.433 0.233-0.75 0.617-0.95 1.15 0 0.233 0.033 0.366 0.1 0.399 0.533 0.167 1.117 0.117 1.75-0.149 0.267-0.101 0.583-0.25 0.95-0.45 0.467 0.267 0.967 0.483 1.5 0.65 0.133 0.066 0.733 0.3 1.8 0.699-0.333 0.267-0.7 0.551-1.1 0.851-0.133 0.1-0.167 0.217-0.1 0.35 0.067 0.134 0.15 0.134 0.25 0 0.567-0.5 1-0.866 1.3-1.1 0.167 0.066 0.333 0.133 0.5 0.2 0.167 0.066 0.333 0.133 0.5 0.199 0.133 0.233 0.267 0.417 0.4 0.551 0.433 0.5 0.983 0.783 1.65 0.85 0.267-0.3 0.35-0.467 0.25-0.5-0.434-0.066-0.833-0.233-1.2-0.5 0.367 0.1 0.7 0.184 1 0.25 0.1 0.033 0.167-0.05 0.2-0.25 0.066-0.2 0.033-0.316-0.1-0.35-0.533-0.101-1.2-0.301-2-0.601-0.1-0.2-0.217-0.416-0.35-0.649 0.133-0.167 0.25-0.334 0.35-0.5 0.133-0.167 0.3-0.434 0.5-0.801 0.067-0.033 0.15-0.083 0.25-0.149 0.5-0.267 0.95-0.517 1.35-0.75 0.533 1.066 0.733 2.066 0.6 3-0.233 1.366-0.7 2.25-1.4 2.649-1.1 0.634-3.083 0.617-5.95-0.05-2.367-0.566-5.017-1.733-7.95-3.5 1.033-0.533 1.15-1.017 0.35-1.45-0.6-0.233-1.117-0.533-1.55-0.899-0.034-0.033-0.067-0.066-0.1-0.101 0.167 0 0.283-0.1 0.35-0.3 0.033-0.133 0.083-0.217 0.15-0.25l0.15-0.05c0.033-0.033 0.033-0.116 0-0.25v-0.1h0.3l0.5-0.15c0.9-0.3 1.467-0.583 1.7-0.85l1-1.25c0.367-0.367 0.733-0.634 1.1-0.801l0.5-0.35c0.267-0.167 0.433-0.3 0.5-0.4 0.167-0.233 0.283-0.666 0.35-1.3 0-1-0.1-1.767-0.3-2.3-0.066-0.167-0.217-0.366-0.45-0.6l-1.1-1.049c-0.333-0.399-0.733-0.783-1.2-1.149 0.567-0.133 1.233-0.184 2-0.15 0.533 0.034 1.35 0.117 2.45 0.25 0.1 0 0.217 0.017 0.35 0.05 0.066 0.033 0.117 0.05 0.15 0.05 0.133 0 0.433 0.15 0.9 0.45 0.067-0.066 0.133-0.133 0.2-0.2 0.033 0 0.083 0.017 0.15 0.05 0.333 0.133 0.85 0.316 1.55 0.55-0.133 0.134-0.233 0.316-0.3 0.55 0 0.2 0.05 0.3 0.15 0.3 0.133 0 0.233-0.1 0.3-0.3 0-0.066 0.034-0.116 0.1-0.149l0.05 0.399c0 0.101 0.05 0.15 0.15 0.15l0.6-0.101c0.233 0 0.283 0.217 0.15 0.65-0.1 0.167-0.083 0.283 0.05 0.35 0.133 0.034 0.233-0.05 0.3-0.25 0.333-0.666 0.316-1.1-0.05-1.3-0.133-0.066-0.3-0.083-0.5-0.05l-0.3 0.1v-0.15c0.167 0.033 0.316 0.017 0.45-0.05-0.1 0.033-0.25 0-0.45-0.101l-0.05-0.249c-0.033-0.066-0.066-0.1-0.1-0.1-0.067-0.033-0.1-0.033-0.1 0-0.1 0.033-0.184 0.066-0.25 0.1-0.367-0.2-0.617-0.35-0.75-0.45l-2.6-1.35c-0.133-0.067-0.283-0.15-0.45-0.25-0.1-0.033-0.2-0.083-0.3-0.15-0.3-0.167-0.683-0.367-1.15-0.6zm16.35-6.45c-0.467 0.133-0.733 0.217-0.8 0.25-0.3 0.167-0.533 0.4-0.7 0.7 0.267 0.033 0.55-0.083 0.85-0.35 0.067-0.033 0.283-0.233 0.65-0.6zm-0.8-0.6c0 0.1 0.017 0.183 0.05 0.25 0.033-0.067 0.066-0.117 0.1-0.15 0.034 0 0.067 0.017 0.1 0.05-0.1 0.1-0.167 0.2-0.2 0.3 0.167 0 0.316-0.033 0.45-0.1 0.1 0.067 0.2 0.15 0.3 0.25 0.167 0.133 0.367 0.3 0.6 0.5 0.467 0.333 0.85 0.467 1.15 0.4h0.05c-0.033 0.2-0.017 0.383 0.05 0.55 0.101 0.2 0.233 0.517 0.4 0.95 0.133-0.067 0.467-0.167 1-0.3 0.399-0.1 0.733-0.3 1-0.6 0.366-0.733 0.649-1.283 0.85-1.65 0.367-0.7 0.75-1.233 1.15-1.6 0.033-0.167 0.05-0.3 0.05-0.4 0.033-0.233 0.017-0.367-0.05-0.4l-2.25-0.55-0.4 0.35-2.15-1.15-1.2 0.45c0.066-0.233 0.05-0.5-0.05-0.8-0.3 0.434-0.417 0.75-0.35 0.95h-0.05c-0.033-0.367-0.367-0.55-1-0.55 0.1 0.066 0.233 0.167 0.4 0.3 0.133 0.133 0.3 0.233 0.5 0.3l-0.2 0.05c-0.1-0.033-0.217-0.067-0.35-0.1l0.15 0.2-0.3 0.1c-0.133 0.034-0.25 0.067-0.35 0.1l-0.1-0.2c-0.6 0.333-1.433 0.867-2.5 1.6l2.1-1.05c-0.1 0.067-0.15 0.183-0.15 0.35l-2.05 0.75v0.05l0.1-0.05 2-0.5c0 0.1 0.033 0.2 0.1 0.3l-2.2 0.25h2.35c0.067 0.133 0.167 0.25 0.3 0.35 0.1 0.1 0.2 0.183 0.3 0.25-0.067 0.2-0.184 0.467-0.35 0.8-0.1 0.3-0.1 0.517 0 0.65 0.467-0.367 0.6-0.833 0.4-1.4 0.067 0.033 0.15 0.083 0.25 0.15zm-1.15 18.75l0.25-0.55 0.65-0.75c0.2-0.301 0.417-0.75 0.65-1.351 0.267-0.7 0.467-1.166 0.6-1.399l1.3-2.7c0.633-1.634 1.316-2.9 2.05-3.8 0.2-0.233 0.366-0.417 0.5-0.55 0.2-0.233 0.384-0.35 0.55-0.35l0.25-2.25c0.334 0.333 0.45 0.867 0.351 1.6-0.067 0.6-0.567 1.55-1.5 2.85-1.101 1.6-1.917 3.149-2.45 4.649-0.868 2.301-1.934 3.835-3.201 4.601zm-11.85-5.8c0.333 0.166 0.783 0.149 1.35-0.051 0.1 0 0.183-0.1 0.25-0.3 0.1-0.233 0.067-0.3-0.1-0.2-0.333 0.167-0.65 0.217-0.95 0.15 0.066-0.066 0.15-0.116 0.25-0.15 0.133-0.066 0.216-0.166 0.25-0.3 0.066-0.2 0.033-0.267-0.1-0.2-0.434 0.134-0.75 0.4-0.95 0.801v0.25zm1.7 0.3c0.1 0.233 0.217 0.35 0.35 0.35 0.167 0 0.25-0.116 0.25-0.35 0.066-0.233 0.017-0.351-0.15-0.351l-0.1-0.1c-0.067-0.2-0.167-0.217-0.3-0.05-0.133 0.134-0.15 0.301-0.05 0.501zm-22.35 2.75c1.667-1.334 3.267-2.7 4.8-4.101l1.25 2.75c0.267 0.601 0.4 0.983 0.4 1.15 0.066 0.267 0 0.5-0.2 0.7-0.267 0.3-0.733 0.517-1.4 0.649-1.133-0.633-2.283-1.017-3.45-1.149h-1.4zm11.85 6.55c-0.133-0.066-0.25-0.134-0.35-0.2-0.367-0.267-0.7-0.517-1-0.75 0.4 0.3 0.85 0.617 1.35 0.95zm21.7-26.4c0.167-0.233 0-0.45-0.5-0.65 0.067 0.367 0.233 0.583 0.5 0.65zm-2.75 0.2l-0.5 2.8 0.8-2.8h-0.3zm1.3 0.25c-0.7 0.934-1.283 1.784-1.75 2.55 0.767-1 1.45-1.8 2.05-2.4l-0.3-0.15zm-0.45-0.2h-0.15c-0.567 1.2-0.95 2.117-1.15 2.75 0.367-0.8 0.85-1.7 1.45-2.7l-0.15-0.05zm0.9 3.95l-2.2-1.1 1.95 1.45c0.133-0.133 0.217-0.25 0.25-0.35zm0.35-0.55l0.05-0.2-2.6-0.35 2.45 0.7 0.1-0.15zm0.35-3.25c0.233 0.1 0.433 0.133 0.6 0.1 0-0.133-0.15-0.233-0.45-0.3-0.267-0.066-0.5-0.066-0.7 0 0.033 0 0.217 0.067 0.55 0.2zm1-0.35c-0.033-0.066-0.133-0.2-0.3-0.4-0.2 0.4-0.15 0.717 0.15 0.95 0.167-0.2 0.217-0.383 0.15-0.55zm-1.6 0.75c-0.833 0.733-1.566 1.434-2.2 2.1l-0.1 0.1-0.05 0.05 0.1-0.05c0.767-0.7 1.567-1.35 2.4-1.95l-0.15-0.25zm-1.7-1c-0.067-0.133-0.217-0.233-0.45-0.3-0.267-0.067-0.483-0.05-0.65 0.05 0.2 0.133 0.567 0.217 1.1 0.25zm-5.15-2l-1.55-0.7-0.7 0.4c-0.066 0.4-0.283 0.867-0.65 1.4l-0.7 0.9c-0.267 0.434-0.333 0.833-0.2 1.2 0.1 0.233 0.233 0.55 0.4 0.95 0.1-0.033 0.434-0.066 1-0.1 0.367-0.034 0.684-0.184 0.95-0.45 0.167-0.133 0.45-0.583 0.85-1.35 0.433-0.7 0.8-1.117 1.1-1.25 0.1-0.433 0.117-0.683 0.05-0.75-0.233-0.1-0.417-0.183-0.55-0.25zm-3.55 0.9c-0.2 0.267-0.233 0.434-0.1 0.5 0.167 0.067 0.333 0 0.5-0.2-0.033-0.033-0.15-0.05-0.35-0.05 0.067-0.133 0.05-0.217-0.05-0.25zm-0.05 0.55c-0.1 0.066-0.167 0.1-0.2 0.1 0-0.2-0.033-0.3-0.1-0.3-0.1 0.167-0.133 0.3-0.1 0.4 0 0.133 0.067 0.184 0.2 0.15 0.1-0.034 0.233-0.133 0.4-0.3-0.033-0.067-0.1-0.083-0.2-0.05zm0-0.15c0.2-0.1 0.316-0.133 0.35-0.1-0.1 0.133-0.216 0.183-0.35 0.15-0.1-0.067-0.083-0.183 0.05-0.35 0.067 0.067 0.05 0.167-0.05 0.3zm0.35-0.3c0.1 0.067 0.2 0.05 0.3-0.05-0.067-0.067-0.167-0.067-0.3 0 0.067-0.067 0.1-0.167 0.1-0.3-0.167 0.167-0.2 0.283-0.1 0.35zm-0.65 3.55v-0.15l-0.2 0.2 0.2-0.05zm7.7-2.35c0.133-0.033 0.333-0.083 0.6-0.15-0.434-0.2-0.85-0.167-1.25 0.1 0.2 0.067 0.417 0.083 0.65 0.05zm-0.9 1.3l1.55 1.75v-0.05l-1.25-2-0.3 0.3zm0-0.55v-0.05c-0.667 0.167-1.083 0.45-1.25 0.85 0.3-0.1 0.717-0.367 1.25-0.8zm0.95-0.2l-0.3 0.2 0.9 2.25-0.1-0.5-0.05-0.15-0.45-1.75v-0.05zm-2.65 3.6c0.1-0.367 0.167-0.633 0.2-0.8-0.2 0.2-0.383 0.483-0.55 0.85-0.167 0.4-0.183 0.65-0.05 0.75 0.167-0.2 0.3-0.467 0.4-0.8zm-0.95-0.7c0.034 0.3 0.167 0.5 0.4 0.6 0.167-0.5 0.05-0.983-0.35-1.45 0 0.2-0.017 0.483-0.05 0.85zm1.35-1.55c-0.267 0.2-0.433 0.45-0.5 0.75 0.434-0.267 0.817-0.683 1.15-1.25-0.133 0.1-0.35 0.267-0.65 0.5zm-0.15-0.25c0.433-0.433 0.55-0.883 0.35-1.35-0.033 0.133-0.15 0.383-0.35 0.75-0.133 0.333-0.133 0.533 0 0.6zm0.9-1c0.333 0 0.783-0.167 1.35-0.5-0.6-0.067-1.05 0.1-1.35 0.5zm-0.2 0.05c0.433-0.2 0.65-0.617 0.65-1.25-0.533 0.6-0.75 1.017-0.65 1.25zm-0.5 3.65l2.8-1.25c0-0.034-0.033-0.034-0.1 0-0.033 0.033-0.066 0.05-0.1 0.05l-2.6 0.85v0.35zm-0.9-2.15c-0.033 0.3 0.034 0.5 0.2 0.6 0.233-0.433 0.233-0.917 0-1.45-0.133 0.533-0.2 0.817-0.2 0.85zm0.95 1.35l2.65-0.45-2.55 0.05-0.1 0.4zm2.75-0.45l-2.75 1.65 0.1 0.3 2.55-1.8h0.05v-0.05l0.05-0.1zm0.05-0.5l0.1-2.3-0.35 0.1 0.2 2.6 0.05-0.4zm-2.45-0.05l-0.1 0.2 2.45 0.3-2.3-0.7-0.05 0.2zm2.3 0.7l-0.1 0.1v0.05l-1.9 2.5 0.25 0.2 1.65-2.6 0.1-0.2v-0.05zm0.05-0.2l-1.8-1.4-0.25 0.3 2.05 1.1zm0.05 0.5l-0.05 2.6 0.35-0.15-0.25-2.85-0.05 0.4zm-0.5 2.7l0.5-3.1-0.85 3.15 0.35-0.05zm-3.9 0.45c0.667 0.5 1.183 0.583 1.55 0.25-0.2-0.233-0.717-0.317-1.55-0.25zm0.75 0.9c0.467 0.133 0.85 0.15 1.15 0.05 0.267-0.1 0.433-0.217 0.5-0.35-0.267-0.1-0.833 0-1.7 0.3h0.05zm-0.75-2.8c0.1 0.267 0.3 0.4 0.6 0.4 0.066-0.566-0.184-0.95-0.75-1.15 0.067 0.167 0.117 0.417 0.15 0.75zm-0.25 0.6c0.167 0.367 0.3 0.583 0.4 0.65 0.2 0.233 0.467 0.3 0.8 0.2-0.1-0.433-0.5-0.717-1.2-0.85zm1.2 0.65c0.2-0.3 0.3-0.6 0.3-0.9s0-0.533 0-0.7c-0.433 0.767-0.533 1.3-0.3 1.6zm0.65-0.05c-0.1-0.233-0.167-0.434-0.2-0.6-0.267 0.767-0.217 1.233 0.15 1.4 0.133-0.267 0.15-0.533 0.05-0.8zm1.75 1.7c-0.2-0.2-0.434-0.316-0.7-0.35-0.033 0.4 0.35 0.7 1.15 0.9h0.05c-0.2-0.267-0.367-0.45-0.5-0.55zm1.15-0.3c-0.3-0.1-0.583-0.083-0.85 0.05 0.067 0.233 0.3 0.367 0.7 0.4 0.3 0.033 0.617 0 0.95-0.1-0.333-0.167-0.6-0.283-0.8-0.35zm-0.05-0.8c-0.267 0.167-0.483 0.383-0.65 0.65 0.533 0.033 0.983-0.333 1.35-1.1-0.133 0.133-0.367 0.283-0.7 0.45zm-0.35 0c-0.3 0.1-0.534 0.167-0.7 0.2-0.267 0.067-0.467 0.217-0.6 0.45 0.533 0.2 0.967-0.017 1.3-0.65zm-1.7 0.55c0.033-0.233-0.017-0.433-0.15-0.6-0.2-0.167-0.333-0.3-0.4-0.4-0.167 0.7 0.017 1.033 0.55 1zm-0.35-1.5l2.15-2.25-2.3 2 0.15 0.25zm-5.25 0.65c-0.2 0.133-0.383 0.417-0.55 0.85-0.067 0.167-0.017 0.25 0.15 0.25 0.1 0 0.183-0.117 0.25-0.35l0.1-0.2c0.167-0.067 0.25-0.2 0.25-0.4 0-0.1-0.033-0.15-0.1-0.15-0.033-0.033-0.067-0.033-0.1 0zm-1.6-0.6c-0.1-0.133-0.183-0.167-0.25-0.1-0.167 0.133-0.333 0.233-0.5 0.3 0.034-0.033 0.083-0.083 0.15-0.15 0.133-0.133 0.15-0.3 0.05-0.5s-0.217-0.25-0.35-0.15c-0.267 0.267-0.45 0.667-0.55 1.2 0 0.233 0.083 0.383 0.25 0.45 0.2 0.033 0.433 0 0.7-0.1-0.066 0.333 0 0.5 0.2 0.5 0.367 0.1 0.8 0 1.3-0.3 0.133-0.067 0.167-0.233 0.1-0.5-0.066-0.267-0.167-0.35-0.3-0.25-0.3 0.2-0.55 0.316-0.75 0.35v-0.3c0.033-0.167 0.017-0.317-0.05-0.45zm4.5 12.35c-0.167 0-0.35 0.083-0.55 0.25-0.033 0.033-0.067 0.066-0.1 0.1 0.033-0.1 0.033-0.217 0-0.35-0.066-0.233-0.183-0.334-0.35-0.301l-0.35 0.051c-0.034-0.101-0.067-0.184-0.1-0.25-0.1-0.134-0.217-0.117-0.35 0.05-0.1 0.3-0.15 0.467-0.15 0.5 0 0.333 0.1 0.5 0.3 0.5 0.4 0 0.684-0.033 0.85-0.101 0.066 0 0.116-0.017 0.15-0.05-0.032 0.033 0.051 0.05 0.25 0.05 0.167 0 0.35-0.066 0.55-0.199 0.2-0.167 0.15-0.25-0.15-0.25zm-5.65 7.2c0.1 0.067 0.217 0.15 0.35 0.25-0.233 0.067-0.483 0.15-0.75 0.25-0.233 0.134-0.367 0.184-0.4 0.15 0-0.066 0.083-0.233 0.25-0.5 0.133-0.066 0.317-0.116 0.55-0.15zm16.35-17.95l-0.05-0.15-0.2 0.3 0.25-0.15zm0.35 0.4c0.034-0.133 0.067-0.233 0.101-0.3l-0.15 0.1 0.05 0.05v0.15zm-0.8-0.75l0.05-0.2c-0.065 0.097-0.098 0.18-0.1 0.25 2e-3 -0.033 0.019-0.05 0.05-0.05zm-3.8-0.85c0.233-0.1 0.433-0.333 0.6-0.7 0.133-0.333 0.2-0.617 0.2-0.85-0.567 0.833-0.833 1.35-0.8 1.55zm1.45-0.35c0.3 0 0.35-0.033 0.15-0.1-0.8 0.067-1.367 0.3-1.7 0.7 0.467 0.1 0.983-0.1 1.55-0.6zm-1.45-0.8l-1.7-1.8 1.4 2.05 0.3-0.25zm-1.05 0.8l0.35-0.2-1-2.4 0.55 2.1v0.05l0.1 0.4v0.05zm1.55 1.05c-0.967-0.066-1.567 0.033-1.8 0.3 0.467 0.367 1.067 0.267 1.8-0.3zm-1.65 0.1c0.267-0.067 0.5-0.25 0.7-0.55 0.233-0.267 0.367-0.567 0.4-0.9-0.1 0.167-0.3 0.367-0.6 0.6-0.267 0.233-0.433 0.517-0.5 0.85zm-21.65 4.55c0.566-0.6 1.117-1.183 1.65-1.75 0.233 0.534 0.566 1.034 1 1.5-0.434 0.1-0.717 0.15-0.85 0.15l-0.65-0.15-0.8 0.2c0.034-0.133 0.05-0.25 0.05-0.35-0.133 0.133-0.25 0.267-0.35 0.4h-0.05zm8.55-3.75c-0.067 0-0.1 0.017-0.1 0.05-0.1 0.066-0.233 0.117-0.4 0.15 0.033-0.133 0.1-0.267 0.2-0.4 0.133-0.067 0.2-0.2 0.2-0.4-0.033-0.067-0.083-0.1-0.15-0.1l-0.1 0.05c-0.367 0.367-0.566 0.783-0.6 1.25-0.066 0.133-0.05 0.2 0.05 0.2 0.267 0 0.5-0.05 0.7-0.15 0.067 0.133 0.133 0.233 0.2 0.3 0.067 0.033 0.167 0.083 0.3 0.15 0.1 0.1 0.2-0.083 0.3-0.55-0.1-0.033-0.184-0.067-0.25-0.1-0.1-0.067-0.184-0.2-0.25-0.4-0.033-0.067-0.067-0.083-0.1-0.05zm0.95-1.65c0.066 0.167 0.167 0.184 0.3 0.05l0.65-0.95c0.167-0.167 0.167-0.333 0-0.5-0.133-0.133-0.25-0.083-0.35 0.15-0.066 0.1-0.25 0.35-0.55 0.75-0.1 0.233-0.117 0.4-0.05 0.5zm4.25 11.5c0.033 0.066 0.117 0.05 0.25-0.051 0.1-0.1 0.15-0.199 0.15-0.3 0.066-0.2 0.033-0.267-0.1-0.2s-0.217 0.167-0.25 0.301l-0.05 0.25zm-1.65 4.2c0.6-0.366 1.167-0.466 1.7-0.3 0.467 1.267 0.45 2.033-0.05 2.3-0.133 0.167-0.267 0.317-0.4 0.45 0.034-0.267-0.017-0.383-0.15-0.35-0.6 0.3-1.2 0.217-1.8-0.25-0.333-0.267-0.333-0.634 0-1.101 0.433-0.465 0.667-0.715 0.7-0.749zm2.6 4.25c0.3 0.034 0.517 0.034 0.65 0 0.1 0.134 0.2 0.317 0.3 0.551-0.067 0.066-0.117 0.133-0.15 0.199-1.3-0.5-2-0.767-2.1-0.8-0.367-0.133-0.7-0.267-1-0.399 0.1-0.067 0.2-0.134 0.3-0.2 0.3 0.1 0.65 0.233 1.05 0.399 0.267 0.1 0.583 0.183 0.95 0.25zm-2.9-0.85c-0.033 1e-3 -0.05 0.018-0.05 0.05-0.033-0.032-0.066-0.049-0.1-0.05h0.15zm6.7-1.1c-0.2 0.133-0.417 0.25-0.65 0.35-0.2 0.134-0.383 0.25-0.55 0.35 0.033-0.1 0.083-0.216 0.15-0.35 0.2-0.434 0.383-0.8 0.55-1.1 0.167 0.234 0.333 0.484 0.5 0.75z" fill="#DFDAC9"/>
	<path d="m36.25 12.95c0-0.233 0.066-0.483 0.2-0.75l0.7-1.1c0.399-0.8 0.616-1.333 0.649-1.6l0.25-0.2 0.4-0.35 2.251 0.55c0.066 0.033 0.083 0.167 0.05 0.4 0 0.1-0.017 0.233-0.05 0.4-0.4 0.367-0.783 0.9-1.15 1.6-0.2 0.367-0.483 0.917-0.85 1.65-0.267 0.3-0.601 0.5-1 0.6-0.533 0.133-0.867 0.233-1 0.3-0.167-0.434-0.3-0.75-0.4-0.95-0.067-0.167-0.083-0.35-0.05-0.55zm0.2-1.3c0.1-0.066 0.166-0.066 0.2 0-0.2 0.233-0.334 0.35-0.4 0.35-0.3 0.133-0.333-0.033-0.1-0.5 0.066-0.033 0.1 0 0.1 0.1v0.15c0.033 0 0.1-0.033 0.2-0.1zm0.3-0.6c0.2-0.1 0.316-0.133 0.35-0.1-0.1 0.133-0.199 0.183-0.3 0.15-0.033 0-0.05-0.017-0.05-0.05zm-10.95-5.65c0.133 0.067 0.317 0.15 0.55 0.25 0.066 0.067 0.05 0.317-0.05 0.75-0.3 0.133-0.667 0.55-1.1 1.25-0.4 0.767-0.683 1.217-0.85 1.35-0.267 0.267-0.583 0.417-0.95 0.45-0.566 0.033-0.9 0.066-1 0.1-0.167-0.4-0.3-0.716-0.4-0.95-0.133-0.367-0.067-0.767 0.2-1.2l0.7-0.9c0.367-0.533 0.583-1 0.65-1.4l0.7-0.4 1.55 0.7zm-3.6 1.3c0.1-0.133 0.117-0.233 0.05-0.3-0.133 0.167-0.15 0.283-0.05 0.35 0.133 0.033 0.25-0.017 0.35-0.15-0.033-0.033-0.15 0-0.35 0.1zm0 0.15c0.1-0.033 0.167-0.017 0.2 0.05-0.167 0.167-0.3 0.267-0.4 0.3-0.133 0.033-0.2-0.017-0.2-0.15-0.033-0.1 0-0.233 0.1-0.4 0.067 0 0.1 0.1 0.1 0.3 0.033 0 0.1-0.033 0.2-0.1zm0.05-0.55c0.1 0.034 0.117 0.117 0.05 0.25 0.2 0 0.317 0.017 0.35 0.05-0.167 0.2-0.333 0.267-0.5 0.2-0.133-0.067-0.1-0.233 0.1-0.5zm-0.35 3.65l-0.2 0.05 0.2-0.2v0.15zm0.65-3.55c-0.1-0.066-0.066-0.183 0.1-0.35 0 0.133-0.033 0.233-0.1 0.3 0.133-0.067 0.233-0.067 0.3 0-0.1 0.1-0.2 0.117-0.3 0.05zm13.25 8.15c-0.031 0-0.048 0.017-0.05 0.05 2e-3 -0.07 0.035-0.153 0.1-0.25l-0.05 0.2zm0.8 0.75v-0.15l-0.05-0.05 0.15-0.1c-0.033 0.067-0.066 0.167-0.1 0.3zm-0.35-0.4l-0.25 0.15 0.2-0.3 0.05 0.15z" fill="#8F9C60"/>
	<path d="m43.95 9.6c0.666-1.467 1.45-2.55 2.35-3.25v-0.05l0.95-0.2c-0.434 0.667-1.233 2.066-2.4 4.2-1.5 2.733-3.6 6.667-6.3 11.8-3.833 7.267-7.633 13.051-11.4 17.351l-4.35-0.5c-1.4-0.267-2.767-0.667-4.1-1.2-2.034-0.767-4.167-1.9-6.4-3.4-0.066-0.033-0.117-0.066-0.15-0.1l-0.3-0.251c-0.5-0.333-0.95-0.65-1.35-0.95l-2.65-1.85c-0.067-0.033-0.117-0.066-0.15-0.1-0.034 0-0.067-0.017-0.1-0.05-0.667-0.467-1.25-0.85-1.75-1.15-0.4-0.233-0.783-0.467-1.15-0.7-0.567-0.3-1.117-0.566-1.65-0.8-1.033-0.466-2.05-0.784-3.05-0.95h1.4c1.167 0.133 2.317 0.517 3.45 1.149 0.3 0.167 0.833 0.5 1.6 1-0.033 0.101-0.017 0.217 0.05 0.351 0.167 0.366 0.4 0.616 0.7 0.75 0.267 0.166 0.533 0.2 0.8 0.1 0.033 0 0.083-0.017 0.15-0.05 0.033 0.033 0.067 0.066 0.1 0.1h0.05c0 0.034 0.034 0.067 0.1 0.101 0.167 0.1 0.35 0.217 0.55 0.35 0.133 0.101 0.267 0.2 0.4 0.3l2.9 1.9c0.3 0.167 0.567 0.333 0.8 0.5 0.034 0 0.067 0.017 0.1 0.05 2.934 1.767 5.583 2.934 7.95 3.5 2.867 0.667 4.85 0.684 5.95 0.05 0.7-0.399 1.167-1.283 1.4-2.649 0.133-0.934-0.067-1.934-0.6-3 0.767-0.5 1.35-0.934 1.75-1.3 0.767 0.199 1.283 0.267 1.55 0.199 0.6-0.233 1.05-0.449 1.35-0.649 1.267-0.767 2.333-2.3 3.2-4.601 0.533-1.5 1.35-3.05 2.45-4.649 0.933-1.3 1.433-2.25 1.5-2.85 0.1-0.733-0.017-1.267-0.351-1.6l-0.399-0.352c-0.034-0.033-0.4-0.183-1.101-0.45l-1.35-0.35 0.151-0.05 1.2-0.35c1-0.3 1.717-0.434 2.15-0.4 0.767 0.034 1.333-0.083 1.7-0.35 0.733-0.467 1.333-1.517 1.8-3.15l0.35-1.1 0.15-0.35zm-14.7 20.95c-0.467 0.4-0.983 0.767-1.55 1.101-0.167-0.267-0.333-0.517-0.5-0.75 0.133-0.267 0.25-0.483 0.35-0.65 0.1-0.134 0.1-0.233 0-0.3-0.133-0.066-0.233-0.05-0.3 0.05-0.1 0.134-0.2 0.316-0.3 0.55-0.4-0.5-0.833-0.899-1.3-1.2-0.633-0.399-1.066-0.666-1.3-0.8 0.3 0.134 0.583 0.25 0.85 0.351l2.2 0.949 0.05 0.051h0.05c0.667 0.265 1.25 0.482 1.75 0.648z" fill="#F4EEDC"/>
		<linearGradient id="a" x1="-43.815" x2="6.0981" y1="-34.254" y2="-34.254" gradientTransform="matrix(-.9606 .278 -.2659 -.9641 -.00065091 .00040084)" gradientUnits="userSpaceOnUse">
		<stop stop-opacity=".298" offset="0"/>
		<stop stop-opacity=".298" offset=".8588"/>
		<stop stop-opacity=".298" offset="1"/>
	</linearGradient>
	<path d="m10.5 33.05c0.3 0.233 0.633 0.483 1 0.75 0.1 0.066 0.217 0.134 0.35 0.2l0.3 0.25c0.033 0.033 0.083 0.066 0.15 0.1 2.233 1.5 4.367 2.634 6.4 3.4 1.333 0.533 2.7 0.934 4.1 1.2l4.35 0.5c3.767-4.3 7.567-10.084 11.4-17.351 2.7-5.133 4.8-9.066 6.3-11.8 1.134-0.066 2.233-0.233 3.301-0.5-2.034 3.034-5.034 7.85-9 14.45-3.867 6.1-7.767 11.384-11.7 15.85-5.334-0.199-10.118-1.399-14.351-3.599-5.033-2.6-8.567-4.1-10.6-4.5 0.767-0.967 1.5-1.9 2.2-2.8 0.367 0.233 0.75 0.467 1.15 0.7 0.5 0.3 1.083 0.683 1.75 1.149 0.033 0.033 0.066 0.05 0.1 0.05 0.033 0.034 0.083 0.067 0.15 0.101l2.65 1.85z" fill="url(#a)"/>
	<path d="m27.7 31.65c0.566-0.334 1.083-0.7 1.55-1.101l0.3-0.3c0.133-0.1 0.2-0.083 0.2 0.05 0 0.101-0.05 0.2-0.15 0.3v0.051c-0.4 0.366-0.983 0.8-1.75 1.3-0.4 0.233-0.85 0.483-1.35 0.75-0.1 0.066-0.183 0.116-0.25 0.149-0.2 0.367-0.367 0.634-0.5 0.801-0.1 0.166-0.217 0.333-0.35 0.5 0.133 0.233 0.25 0.449 0.35 0.649 0.8 0.3 1.467 0.5 2 0.601 0.133 0.033 0.167 0.149 0.1 0.35-0.033 0.2-0.1 0.283-0.2 0.25-0.3-0.066-0.633-0.15-1-0.25 0.367 0.267 0.767 0.434 1.2 0.5 0.1 0.033 0.017 0.2-0.25 0.5-0.667-0.066-1.217-0.35-1.65-0.85-0.133-0.134-0.267-0.317-0.4-0.551-0.167-0.066-0.333-0.133-0.5-0.199-0.167-0.067-0.333-0.134-0.5-0.2-0.3 0.233-0.733 0.6-1.3 1.1-0.1 0.134-0.183 0.134-0.25 0-0.067-0.133-0.033-0.25 0.1-0.35 0.4-0.3 0.767-0.584 1.1-0.851-1.067-0.399-1.667-0.633-1.8-0.699-0.533-0.167-1.033-0.384-1.5-0.65-0.367 0.2-0.683 0.35-0.95 0.45-0.633 0.267-1.217 0.316-1.75 0.149-0.067-0.033-0.1-0.166-0.1-0.399 0.2-0.533 0.517-0.917 0.95-1.15 0.1-0.066 0.217-0.116 0.35-0.149-0.3-0.233-0.566-0.5-0.8-0.801-0.1-0.133-0.1-0.3 0-0.5 0.1-0.166 0.2-0.183 0.3-0.05 0.333 0.434 0.717 0.816 1.15 1.15 0.1 0 0.2-0.017 0.3-0.05 0.367-0.034 0.683-0.051 0.95-0.051-0.133-0.033-0.267-0.066-0.4-0.1-0.833-0.3-1.15-0.85-0.95-1.65 0.2-0.733 0.6-1.283 1.2-1.649 0.567-0.3 1.167-0.417 1.8-0.351 0.633 0.101 0.933 0.601 0.9 1.5-0.033 0.767-0.2 1.334-0.5 1.7-0.233 0.334-0.483 0.617-0.75 0.851 0.633 0.166 1.217 0.267 1.75 0.3 0.066-0.134 0.117-0.167 0.15-0.101l0.05 0.051v-0.05l0.05 0.051c0.066 0.033 0.15 0.066 0.25 0.1h0.25c0.066 0 0.117 0.017 0.15 0.05 0.2 0 0.417-0.033 0.65-0.1 0.1-0.267 0.217-0.55 0.35-0.851 0.267-0.533 0.5-0.966 0.7-1.3 0.1-0.233 0.2-0.416 0.3-0.55 0.067-0.1 0.167-0.116 0.3-0.05 0.1 0.066 0.1 0.166 0 0.3-0.1 0.167-0.216 0.384-0.35 0.65-0.167 0.3-0.35 0.666-0.55 1.1-0.066 0.134-0.117 0.25-0.15 0.35 0.167-0.1 0.35-0.216 0.55-0.35 0.233-0.1 0.45-0.217 0.65-0.35zm-19.25-1c0.066-0.067 0.133-0.117 0.2-0.15 0.167-0.134 0.4-0.2 0.7-0.2 0.133 0.033 0.25 0.15 0.35 0.351 0.1 0.166 0.2 0.3 0.3 0.399-0.1 0.033-0.217 0.066-0.35 0.101-0.267 0.132-0.483 0.182-0.65 0.149h-0.05c-0.2-0.133-0.383-0.25-0.55-0.35-0.033-0.066-0.066-0.134-0.1-0.2l0.15-0.1zm25.1-23.05c-0.267-0.067-0.433-0.283-0.5-0.65 0.5 0.2 0.667 0.417 0.5 0.65zm-0.95 1.9l-2.1 1.05c1.067-0.733 1.9-1.267 2.5-1.6l0.1 0.2v0.05l-0.5 0.3zm-0.15 0.35l0.75-0.3v0.35l-0.7 0.2-2 0.5-0.1 0.05v-0.05l2.05-0.75zm0.15 0.55l0.55-0.1-0.05 0.35h-2.7l2.2-0.25zm0.3 0.85l-0.1 0.15-2.45-0.7 2.6 0.35-0.05 0.2zm-0.35 0.55c-0.033 0.1-0.117 0.217-0.25 0.35l-1.95-1.45 2.2 1.1zm-0.9-3.95l0.15 0.05c-0.6 1-1.083 1.9-1.45 2.7 0.2-0.633 0.583-1.55 1.15-2.75h0.15zm0.45 0.2l0.3 0.15c-0.6 0.6-1.283 1.4-2.05 2.4 0.467-0.767 1.05-1.617 1.75-2.55zm-1.3-0.25h0.3l-0.8 2.8 0.5-2.8zm2.55 3.45v-0.05c1e-3 0.034 0.018 0.067 0.05 0.1 0.2 0.567 0.067 1.034-0.4 1.4-0.1-0.133-0.1-0.35 0-0.65 0.167-0.333 0.283-0.6 0.35-0.8zm0.3 0.2c-0.066-0.267-0.05-0.667 0.05-1.2 0.233 0.5 0.267 0.933 0.1 1.3-0.033 0.034-0.066 0.083-0.1 0.15-0.033-0.067-0.05-0.15-0.05-0.25zm0.25 0.15c0.2-0.3 0.567-0.583 1.1-0.85-0.267 0.533-0.55 0.883-0.85 1.05-0.133 0.067-0.283 0.1-0.45 0.1 0.033-0.1 0.1-0.2 0.2-0.3zm0.55 0.45c-0.367 0.367-0.583 0.567-0.65 0.6-0.3 0.267-0.583 0.383-0.85 0.35 0.167-0.3 0.4-0.533 0.7-0.7 0.067-0.033 0.333-0.117 0.8-0.25zm0.6-3.4c0.034 0.167 0 0.367-0.1 0.6-0.1 0.267-0.25 0.45-0.45 0.55-0.1-0.133-0.083-0.333 0.05-0.6 0.133-0.233 0.3-0.417 0.5-0.55zm-0.35-0.05c-0.067 0.1-0.15 0.2-0.25 0.3-0.067-0.033-0.117-0.083-0.15-0.15-0.066-0.2 0.05-0.517 0.35-0.95 0.1 0.3 0.117 0.567 0.05 0.8zm-0.45 0.15v0.05h-0.1c-0.2-0.066-0.367-0.167-0.5-0.3-0.167-0.133-0.3-0.233-0.4-0.3 0.633 0 0.967 0.183 1 0.55zm-0.3 0.1c0.333 0.167 0.466 0.433 0.4 0.8-0.167-0.066-0.317-0.2-0.45-0.4l-0.15-0.3-0.15-0.2c0.133 0.033 0.25 0.067 0.35 0.1zm-0.7-0.85c-0.333-0.133-0.517-0.2-0.55-0.2 0.2-0.066 0.433-0.066 0.7 0 0.3 0.067 0.45 0.167 0.45 0.3-0.167 0.033-0.367 0-0.6-0.1zm1-0.35c0.067 0.167 0.017 0.35-0.15 0.55-0.3-0.233-0.35-0.55-0.15-0.95 0.167 0.2 0.267 0.333 0.3 0.4zm-1.6 0.75l0.15 0.25c-0.833 0.6-1.633 1.25-2.4 1.95l-0.1 0.05 0.05-0.05 0.1-0.1c0.633-0.667 1.367-1.367 2.2-2.1zm-1.7-1c-0.534-0.033-0.9-0.117-1.1-0.25 0.167-0.1 0.383-0.117 0.65-0.05 0.233 0.067 0.383 0.167 0.45 0.3zm3.3 3.4c0-0.3 0.317-0.683 0.95-1.15-0.233 0.733-0.55 1.117-0.95 1.15zm-0.05-0.2c-0.167-0.1-0.267-0.283-0.3-0.55l-0.15-0.6c0.233 0.2 0.383 0.35 0.45 0.45 0.1 0.2 0.1 0.433 0 0.7zm-4.6-3c-0.233 0.033-0.45 0.017-0.65-0.05 0.4-0.267 0.816-0.3 1.25-0.1-0.267 0.067-0.467 0.117-0.6 0.15zm-0.9 1.3l0.3-0.3 1.25 2v0.05l-1.55-1.75zm0-0.55c-0.534 0.433-0.95 0.7-1.25 0.8 0.167-0.4 0.583-0.683 1.25-0.85v0.05zm0.95-0.2v0.05l0.45 1.75 0.05 0.15 0.1 0.5-0.9-2.25 0.3-0.2zm-1.7 0.15c-0.1-0.233 0.117-0.65 0.65-1.25 0 0.633-0.217 1.05-0.65 1.25zm0.2-0.05c0.3-0.4 0.75-0.567 1.35-0.5-0.567 0.333-1.017 0.5-1.35 0.5zm-0.9 1c-0.133-0.067-0.133-0.267 0-0.6 0.2-0.367 0.317-0.617 0.35-0.75 0.2 0.467 0.083 0.917-0.35 1.35zm0.15 0.25c0.3-0.233 0.517-0.4 0.65-0.5-0.333 0.567-0.716 0.983-1.15 1.25 0.067-0.3 0.233-0.55 0.5-0.75zm-1.35 1.55c0.034-0.367 0.05-0.65 0.05-0.85 0.4 0.466 0.517 0.95 0.35 1.45-0.233-0.1-0.367-0.3-0.4-0.6zm0.95 0.7c-0.1 0.333-0.233 0.6-0.4 0.8-0.133-0.1-0.117-0.35 0.05-0.75 0.167-0.367 0.35-0.65 0.55-0.85-0.033 0.167-0.1 0.433-0.2 0.8zm0.45 0.2v-0.35l2.6-0.85c0.034 0 0.067-0.017 0.1-0.05 0.067-0.034 0.1-0.034 0.1 0l-2.8 1.25zm-0.9-2.15c0-0.033 0.067-0.316 0.2-0.85 0.233 0.533 0.233 1.017 0 1.45-0.167-0.1-0.233-0.3-0.2-0.6zm3.2 4.05l-0.35 0.05 0.85-3.15-0.5 3.1zm0.5-2.7l0.05-0.4 0.25 2.85-0.35 0.15 0.05-2.6zm-0.05-0.5l-2.05-1.1 0.25-0.3 1.8 1.4zm-0.05 0.2v0.05l-0.1 0.2-1.65 2.6-0.25-0.2 1.9-2.5v-0.05l0.1-0.1zm-2.3-0.7l0.05-0.2 2.3 0.7-2.45-0.3 0.1-0.2zm2.45 0.05l-0.05 0.4-0.2-2.6 0.35-0.1-0.1 2.3zm-0.05 0.5l-0.05 0.1v0.05h-0.05l-2.55 1.8-0.1-0.3 2.75-1.65zm-2.75 0.45l0.1-0.4 2.55-0.05-2.65 0.45zm0.75 3.6c-0.533 0.033-0.717-0.3-0.55-1 0.066 0.1 0.2 0.233 0.4 0.4 0.133 0.167 0.183 0.367 0.15 0.6zm1.7-0.55c-0.333 0.633-0.767 0.85-1.3 0.65 0.133-0.233 0.333-0.383 0.6-0.45 0.167-0.033 0.4-0.1 0.7-0.2zm0.35 0c0.333-0.167 0.567-0.317 0.7-0.45-0.367 0.767-0.817 1.133-1.35 1.1 0.167-0.267 0.383-0.483 0.65-0.65zm0.05 0.8c0.2 0.067 0.467 0.183 0.8 0.35-0.333 0.1-0.65 0.133-0.95 0.1-0.4-0.034-0.633-0.167-0.7-0.4 0.267-0.133 0.55-0.15 0.85-0.05zm-1.15 0.3c0.133 0.1 0.3 0.284 0.5 0.55h-0.05c-0.8-0.2-1.183-0.5-1.15-0.9 0.267 0.033 0.5 0.15 0.7 0.35zm-1.75-1.7c0.1 0.267 0.083 0.533-0.05 0.8-0.367-0.167-0.417-0.633-0.15-1.4 0.033 0.167 0.1 0.367 0.2 0.6zm-0.65 0.05c-0.233-0.3-0.133-0.833 0.3-1.6v0.7s-0.1 0.6-0.3 0.9zm-1.2-0.65c0.7 0.133 1.1 0.417 1.2 0.85-0.333 0.1-0.6 0.033-0.8-0.2-0.1-0.067-0.233-0.283-0.4-0.65zm0.25-0.6c-0.033-0.333-0.083-0.583-0.15-0.75 0.566 0.2 0.816 0.583 0.75 1.15-0.3 0-0.5-0.133-0.6-0.4zm0.75 2.8h-0.05c0.867-0.3 1.434-0.4 1.7-0.3-0.067 0.133-0.233 0.25-0.5 0.35-0.3 0.1-0.683 0.083-1.15-0.05zm-0.75-0.9c0.833-0.066 1.35 0.017 1.55 0.25-0.367 0.333-0.883 0.25-1.55-0.25zm1.75 3c-0.067-0.033-0.083-0.1-0.05-0.2l0.05-0.15 0.35-0.45c0.1-0.167 0.2-0.217 0.3-0.15 0.067 0.066 0.05 0.183-0.05 0.35l-0.35 0.45c-0.133 0.133-0.217 0.183-0.25 0.15zm-1.2-1.6c0 0.1-0.083 0.216-0.25 0.35-0.033 0.034-0.183 0.133-0.45 0.3-0.133 0.066-0.233 0.15-0.3 0.25 0.233 0.233 0.517 0.383 0.85 0.45 0.133 0.034 0.433 0.05 0.9 0.05 0.167 0 0.117 0.183-0.15 0.55-0.567 0-0.9-0.017-1-0.05h-0.05c-0.4-0.1-0.75-0.317-1.05-0.65v-0.3c0.133-0.267 0.317-0.5 0.55-0.7 0.1-0.034 0.2-0.067 0.3-0.1l-0.1-0.1c-0.2-0.2-0.333-0.317-0.4-0.35-0.067-0.066-0.05-0.183 0.05-0.35 0.1-0.2 0.184-0.267 0.25-0.2 0.1 0.066 0.333 0.283 0.7 0.65l0.05 0.05c0.033 0.033 0.067 0.083 0.1 0.15zm3.8 2.85c-0.167-0.133-0.184-0.3-0.05-0.5 0.067-0.167 0.217-0.367 0.45-0.6 0.133-0.133 0.25-0.1 0.35 0.1s0.083 0.367-0.05 0.5l-0.4 0.5c-0.067 0.167-0.167 0.167-0.3 0zm-1.4-1.65c0.034-0.033 0.067-0.033 0.1 0 0.033 0 0.067 0.017 0.1 0.05 0 0.033 0.017 0.066 0.05 0.1 0 0.034 0.017 0.067 0.05 0.1 0.033-0.167 0.1-0.25 0.2-0.25 0.167 0 0.217 0.117 0.15 0.35v0.1c0 0.167-0.067 0.283-0.2 0.35-0.167 0.1-0.25 0.05-0.25-0.15l0.05-0.15c-0.033 0.033-0.066 0.067-0.1 0.1-0.233 0.233-0.45 0.317-0.65 0.25-0.1-0.033-0.133-0.133-0.1-0.3 0.033-0.133 0.066-0.217 0.1-0.25 0.167-0.167 0.333-0.267 0.5-0.3zm3.85 5.3c0 0.066-0.017 0.149-0.05 0.25-0.1 0.434-0.25 0.684-0.45 0.75s-0.4-0.117-0.6-0.55l-0.15 0.05c-0.1 0-0.167-0.033-0.2-0.101-0.1-0.3-0.133-0.583-0.1-0.85v-0.049c0.033-0.134 0.117-0.217 0.25-0.25s0.183 0.066 0.15 0.3l0.05 0.15v0.1l0.1-0.05c0.067 0.033 0.133 0.05 0.2 0.05v0.05c0.167 0.434 0.283 0.55 0.35 0.351 0-0.134 0.033-0.217 0.1-0.25 0.034-0.034 0.083-0.051 0.15-0.051 0.1 0 0.167 0.034 0.2 0.1zm-2.5-1.2c0.167-0.067 0.333-0.017 0.5 0.15 0.1 0.1 0.15 0.233 0.15 0.399 0 0.033-0.017 0.084-0.05 0.15s-0.067 0.116-0.1 0.149h0.05c0.133 0.067 0.2 0.217 0.2 0.45-0.033 0.2-0.133 0.3-0.3 0.3s-0.317-0.1-0.45-0.3c-0.066-0.066-0.1-0.133-0.1-0.2h-0.05c-0.133 0-0.2-0.133-0.2-0.399 0.034-0.101 0.067-0.167 0.1-0.2 0.033-0.266 0.117-0.433 0.25-0.499zm4.3-1.55c-0.133 0.1-0.217 0.083-0.25-0.05 0-0.033 0.066-0.183 0.2-0.45l-0.15 0.25 0.05-0.1c0.067-0.2 0.15-0.3 0.25-0.3 0.167 0 0.217 0.1 0.15 0.3-0.067 0.167-0.15 0.283-0.25 0.35zm-1.65-1.6c0 0.133-0.05 0.25-0.15 0.35 0.067-0.034 0.133 0.033 0.2 0.2 0 0.033 0.017 0.067 0.05 0.1 0.033-0.133 0.1-0.233 0.2-0.3 0.167-0.067 0.267 0.017 0.3 0.25 0 0.167-0.033 0.283-0.1 0.35 0.2-0.1 0.35-0.15 0.45-0.15 0.267 0 0.117 0.117-0.45 0.35-0.033 0.067-0.083 0.133-0.15 0.2-0.167 0.1-0.267 0.05-0.3-0.15v-0.1l-0.05 0.05c-0.2 0.267-0.45 0.4-0.75 0.4-0.167 0-0.267-0.15-0.3-0.45-0.033-0.267 0.017-0.417 0.15-0.45 0.133-0.267 0.3-0.5 0.5-0.7 0.033-0.066 0.083-0.117 0.15-0.15 0.167 0 0.25 0.033 0.25 0.1v0.1zm-9.05-2.4l-0.3 0.45c-0.133 0.2-0.25 0.217-0.35 0.05-0.1-0.1-0.133-0.217-0.1-0.35 0-0.067 0.017-0.117 0.05-0.15-0.1 0-0.183-0.083-0.25-0.25-0.133-0.233-0.133-0.417 0-0.55l0.6-0.6c0.133-0.133 0.25-0.1 0.35 0.1 0.133 0.267 0.133 0.45 0 0.55 0 0.033 0.017 0.066 0.05 0.1 0.1 0.2 0.1 0.383 0 0.55l-0.05 0.1zm4.15-2.2l-0.15-0.25 2.3-2-2.15 2.25zm-6.5 3.5c0.067 0 0.15 0.017 0.25 0.05l0.15 0.25c0.067 0.2 0.1 0.4 0.1 0.6 0 0.102-0.017 0.218-0.05 0.35 0 0.267-0.083 0.367-0.25 0.3-0.167-0.066-0.25-0.216-0.25-0.45v-0.3c-0.1 0-0.2 0.117-0.3 0.35-0.033 0.133-0.1 0.184-0.2 0.15-0.133-0.033-0.217-0.167-0.25-0.4v0.05c-0.067 0.233-0.167 0.333-0.3 0.3-0.066 0-0.117-0.05-0.15-0.15-0.066-0.1-0.083-0.2-0.05-0.3 0.066-0.6 0.25-0.9 0.55-0.9 0.133 0 0.233 0.1 0.3 0.3 0.133-0.167 0.283-0.233 0.45-0.2zm-0.35-3.45c0.067 0.133 0.083 0.284 0.05 0.45v0.3c0.2-0.033 0.45-0.15 0.75-0.35 0.133-0.1 0.233-0.017 0.3 0.25s0.033 0.433-0.1 0.5c-0.5 0.3-0.933 0.4-1.3 0.3-0.2 0-0.267-0.167-0.2-0.5-0.267 0.1-0.5 0.133-0.7 0.1-0.167-0.067-0.25-0.217-0.25-0.45 0.1-0.533 0.283-0.933 0.55-1.2 0.133-0.1 0.25-0.05 0.35 0.15s0.083 0.367-0.05 0.5c-0.067 0.066-0.117 0.117-0.15 0.15 0.167-0.067 0.333-0.167 0.5-0.3 0.067-0.067 0.15-0.033 0.25 0.1zm1.6 0.6c0.033-0.033 0.067-0.033 0.1 0 0.067 0 0.1 0.05 0.1 0.15 0 0.2-0.083 0.333-0.25 0.4l-0.1 0.2c-0.067 0.233-0.15 0.35-0.25 0.35-0.167 0-0.217-0.083-0.15-0.25 0.167-0.433 0.35-0.717 0.55-0.85zm0.75 5.35c-0.066 0.033-0.117 0.083-0.15 0.15-0.6-0.1-1.017-0.417-1.25-0.95-0.133-0.3-0.15-0.534-0.05-0.7 0-0.033 0.017-0.067 0.05-0.1 0.1-0.167 0.25-0.267 0.45-0.3 0.1-0.1 0.15-0.067 0.15 0.1l0.15 0.6c0.033 0.1 0.017 0.2-0.05 0.3v0.05c0.233 0.233 0.466 0.367 0.7 0.4 0.033 0 0.067 0.017 0.1 0.05v-0.05c0-0.367 0.133-0.583 0.4-0.65 0.133-0.066 0.25 0 0.35 0.2 0.167-0.067 0.267 0.05 0.3 0.35 0.1 0.433 0.067 0.767-0.1 1-0.133 0.2-0.333 0.183-0.6-0.05-0.2-0.2-0.317-0.433-0.35-0.7 0 0.067-0.033 0.167-0.1 0.3zm2.2 2.7c0.2-0.066 0.383 0.066 0.55 0.399 0.033 0.067 0.017 0.167-0.05 0.301 0 0.033-0.017 0.05-0.05 0.05-0.133 0.166-0.267 0.267-0.4 0.3 0.1 0.233 0.283 0.35 0.55 0.35 0.066 0 0.1 0.051 0.1 0.15 0 0.066-0.017 0.116-0.05 0.15-0.067 0.166-0.167 0.25-0.3 0.25-0.367 0-0.6-0.167-0.7-0.5-0.067-0.134-0.1-0.267-0.1-0.4-0.033-0.1-0.033-0.184 0-0.25v-0.25c0.1-0.3 0.233-0.483 0.4-0.55h0.05zm-3.25 2.75c-0.1-0.2-0.083-0.367 0.05-0.5 0.133-0.167 0.233-0.15 0.3 0.05l0.1 0.1c0.167 0 0.217 0.117 0.15 0.351 0 0.233-0.083 0.35-0.25 0.35-0.133-1e-3 -0.25-0.117-0.35-0.351zm-1.7-0.3v-0.25c0.2-0.4 0.517-0.667 0.95-0.801 0.133-0.066 0.167 0 0.1 0.2-0.034 0.134-0.117 0.233-0.25 0.3-0.1 0.034-0.184 0.084-0.25 0.15 0.3 0.066 0.617 0.017 0.95-0.15 0.167-0.1 0.2-0.033 0.1 0.2-0.067 0.2-0.15 0.3-0.25 0.3-0.567 0.201-1.017 0.217-1.35 0.051zm0.8-3.5l-0.2 0.2c-0.467-0.3-0.767-0.45-0.9-0.45-0.033 0-0.083-0.017-0.15-0.05s-0.15-0.083-0.25-0.15c-0.167 0.033-0.267 0.017-0.3-0.05l-0.3-0.45c-0.133-0.167-0.233-0.217-0.3-0.15-0.233 0.3-0.45 0.25-0.65-0.15-0.1 0.067-0.2 0.067-0.3 0-0.2-0.133-0.35-0.5-0.45-1.1v-0.1c-0.066 0.066-0.15 0.117-0.25 0.15 0.067 0.133 0.15 0.25 0.25 0.35s0.1 0.25 0 0.45c-0.1 0.167-0.2 0.2-0.3 0.1-0.233-0.267-0.434-0.583-0.6-0.95-0.033 0.034-0.083 0.067-0.15 0.1-0.133 0-0.167-0.083-0.1-0.25 0-0.433-0.05-0.683-0.15-0.75-0.2-0.133-0.317-0.2-0.35-0.2-0.167 0-0.35 0.1-0.55 0.3-0.133 0.1-0.217 0.083-0.25-0.05 0-0.2 0.066-0.333 0.2-0.4 0.067-0.066 0.117-0.1 0.15-0.1 0.3-0.3 0.567-0.4 0.8-0.3 0.267 0.133 0.433 0.3 0.5 0.5 0.033 0.1 0.05 0.2 0.05 0.3 0.233-0.133 0.483-0.034 0.75 0.3 0.033 0.033 0.05 0.117 0.05 0.25v0.05l0.05-0.05 0.1-0.1c0.133-0.1 0.2-0.083 0.2 0.05 0.034 0.1 0.05 0.2 0.05 0.3 0.1 0.467 0.183 0.65 0.25 0.55 0-0.033 0.05-0.083 0.15-0.15 0.1-0.066 0.167-0.05 0.2 0.05 0.066 0.233 0.117 0.367 0.15 0.4 0.033 0 0.083-0.033 0.15-0.1l0.25-0.15c0.1 0.066 0.2 0.117 0.3 0.15 0.1 0.1 0.2 0.25 0.3 0.45 0.066 0.1 0.117 0.15 0.15 0.15s0.083-0.017 0.15-0.05c0.067 0 0.184 0.083 0.35 0.25 0.2-0.033 0.517 0.117 0.95 0.45 0.133 0.067 0.133 0.2 0 0.4zm-2.3-5.15c0.167-0.1 0.283-0.067 0.35 0.1 0.067 0.133 0.1 0.233 0.1 0.3 0.133 0.033 0.183 0.167 0.15 0.4 0 0.4-0.083 0.667-0.25 0.8s-0.383 0.117-0.65-0.05c-0.167-0.1-0.217-0.267-0.15-0.5 0.1-0.433 0.25-0.783 0.45-1.05zm7.4 8.05c-0.033-0.033-0.05-0.066-0.05-0.1v-0.05c-0.033-0.134-0.05-0.317-0.05-0.551 0-0.133 0.083-0.233 0.25-0.3 0.133-0.1 0.2-0.05 0.2 0.15v0.25h0.25l0.1-0.05c0.033 0 0.067 0.033 0.1 0.1 0.167 0.366 0.267 0.5 0.3 0.4 0.1-0.167 0.2-0.233 0.3-0.2 0.033 0.034 0.05 0.151 0.05 0.351-0.367 0.667-0.683 0.667-0.95 0h-0.5zm-0.75 2.7c-0.1 0.233-0.05 0.3 0.15 0.2h0.3l0.8-0.101c0.2-0.033 0.55-0.017 1.05 0.051 0.1 0.033 0.017 0.216-0.25 0.55-0.333-0.101-0.75-0.117-1.25-0.05-0.567 0.066-0.983 0.083-1.25 0.05l-0.05-0.1c0-0.166 0.017-0.316 0.05-0.449 0.066-0.301 0.233-0.534 0.5-0.7 0.133-0.066 0.183 0 0.15 0.2-0.067 0.166-0.133 0.267-0.2 0.3v0.049zm-0.25-0.85c0.3 0 0.35 0.083 0.15 0.25-0.2 0.133-0.383 0.199-0.55 0.199-0.199 0-0.282-0.017-0.25-0.05-0.034 0.033-0.083 0.05-0.15 0.05-0.167 0.068-0.45 0.101-0.85 0.101-0.2 0-0.3-0.167-0.3-0.5 0-0.033 0.05-0.2 0.15-0.5 0.133-0.167 0.25-0.184 0.35-0.05 0.033 0.066 0.066 0.149 0.1 0.25l0.35-0.051c0.167-0.033 0.284 0.067 0.35 0.301 0.033 0.133 0.033 0.25 0 0.35 0.033-0.033 0.067-0.066 0.1-0.1 0.2-0.167 0.383-0.25 0.55-0.25zm-0.5-5.55c-0.1-0.434-0.066-0.85 0.1-1.25 0.067-0.2 0.167-0.217 0.3-0.05s0.15 0.35 0.05 0.55v0.2c0.033-0.033 0.067-0.066 0.1-0.1 0.033-0.067 0.083-0.083 0.15-0.05 0.1 0.033 0.167 0.117 0.2 0.25 0.233 0.7 0.483 0.633 0.75-0.2 0.066-0.167 0.183-0.184 0.35-0.05 0.133 0.167 0.15 0.35 0.05 0.55-0.2 0.466-0.417 0.767-0.65 0.9-0.3 0.133-0.567-0.05-0.8-0.55-0.1 0-0.217 0.017-0.35 0.05-0.133 0-0.217-0.083-0.25-0.25zm-1.2 1.45v0.299l0.3-0.1c0.2-0.033 0.367-0.017 0.5 0.05 0.367 0.2 0.383 0.634 0.05 1.3-0.067 0.2-0.167 0.284-0.3 0.25-0.133-0.066-0.15-0.183-0.05-0.35 0.133-0.434 0.083-0.65-0.15-0.65l-0.6 0.101c-0.1 0-0.15-0.05-0.15-0.15l-0.05-0.4c-0.066 0.033-0.1 0.083-0.1 0.149-0.066 0.2-0.167 0.3-0.3 0.3-0.1 0-0.15-0.1-0.15-0.3 0.066-0.233 0.167-0.416 0.3-0.55 0.067-0.066 0.133-0.134 0.2-0.2 0.066-0.033 0.15-0.066 0.25-0.1 0-0.033 0.033-0.033 0.1 0 0.033 0 0.066 0.033 0.1 0.1l0.05 0.251zm4.4-1.3c0.2-0.1 0.383 0 0.55 0.3 0.133-0.066 0.25-0.05 0.35 0.05 0.267 0.133 0.417 0.483 0.45 1.05 0.033 0.199-0.033 0.316-0.2 0.35-0.133 0.066-0.217-0.017-0.25-0.25-0.033-0.434-0.133-0.583-0.3-0.45-0.133 0.134-0.25 0.117-0.35-0.05l-0.1-0.25-0.1 0.15c-0.066 0.166-0.167 0.233-0.3 0.199-0.167-0.066-0.217-0.216-0.15-0.45 0.1-0.366 0.233-0.582 0.4-0.649zm0 2.75c0.067-0.167 0.183-0.15 0.35 0.05 0.133 0.167 0.15 0.351 0.05 0.55 0 0.034-0.033 0.101-0.1 0.2-0.033 0.101-0.017 0.184 0.05 0.25 0.066 0.167 0.217 0.283 0.45 0.351 0.3 0.199 0.633 0.3 1 0.3 0.167 0 0.267 0.149 0.3 0.45 0 0.267-0.067 0.399-0.2 0.399-0.667-0.066-1.183-0.25-1.55-0.55-0.6-0.5-0.717-1.167-0.35-2zm5.2-9.65c-0.567 0.5-1.083 0.7-1.55 0.6 0.333-0.4 0.9-0.633 1.7-0.7 0.2 0.067 0.15 0.1-0.15 0.1zm-1.45 0.35c-0.033-0.2 0.233-0.717 0.8-1.55 0 0.233-0.066 0.517-0.2 0.85-0.167 0.367-0.367 0.6-0.6 0.7zm-1.05-0.35v-0.05l-0.1-0.4v-0.05l-0.55-2.1 1 2.4-0.35 0.2zm1.05-0.8l-0.3 0.25-1.4-2.05 1.7 1.8zm-1.15 1.95c0.066-0.333 0.233-0.617 0.5-0.85 0.3-0.233 0.5-0.433 0.6-0.6-0.034 0.333-0.167 0.633-0.4 0.9-0.2 0.3-0.433 0.483-0.7 0.55zm1.65-0.1c-0.733 0.567-1.333 0.667-1.8 0.3 0.233-0.267 0.833-0.367 1.8-0.3zm-20.65 17.2c-0.067-0.033-0.133-0.05-0.2-0.05l-0.8-0.1c-0.067-0.101-0.15-0.184-0.25-0.25h0.1c0.233-0.033 0.55-0.2 0.95-0.5 0.333-0.066 0.567-0.134 0.7-0.2 0.066-0.033 0.133-0.083 0.2-0.15 0.567-0.166 1.05-0.416 1.45-0.75 0.533-0.433 1.233-1.083 2.1-1.949l1.45-1.45c0.034-0.033 0.067-0.066 0.1-0.101l0.05-0.05c0.066-0.166 0.117-0.383 0.15-0.649v-0.4s-0.017-0.333-0.05-0.5v-0.15c-0.167-0.899-0.483-1.699-0.95-2.399-0.067-0.101-0.15-0.217-0.25-0.351l1.1 1.051c0.233 0.233 0.383 0.433 0.45 0.6 0.2 0.533 0.3 1.3 0.3 2.3-0.067 0.634-0.184 1.066-0.35 1.3-0.067 0.101-0.233 0.233-0.5 0.4l-0.5 0.35c-0.367 0.167-0.733 0.434-1.1 0.801l-1 1.25c-0.233 0.267-0.8 0.55-1.7 0.85l-0.5 0.15h-0.3v0.1c0.033 0.134 0.033 0.217 0 0.25l-0.15 0.05c-0.067 0.033-0.117 0.117-0.15 0.25-0.067 0.197-0.183 0.297-0.35 0.297zm6.85-17.95c-0.067-0.1-0.05-0.267 0.05-0.5 0.3-0.4 0.483-0.65 0.55-0.75 0.1-0.233 0.217-0.283 0.35-0.15 0.167 0.167 0.167 0.333 0 0.5l-0.65 0.95c-0.133 0.133-0.233 0.117-0.3-0.05zm-0.95 1.65c0.033-0.033 0.067-0.017 0.1 0.05 0.066 0.2 0.15 0.333 0.25 0.4 0.066 0.033 0.15 0.067 0.25 0.1-0.1 0.467-0.2 0.65-0.3 0.55-0.133-0.066-0.233-0.117-0.3-0.15-0.067-0.067-0.133-0.167-0.2-0.3-0.2 0.1-0.433 0.15-0.7 0.15-0.1 0-0.117-0.067-0.05-0.2 0.034-0.467 0.233-0.883 0.6-1.25l0.1-0.05c0.067 0 0.117 0.033 0.15 0.1 0 0.2-0.066 0.333-0.2 0.4-0.1 0.133-0.167 0.267-0.2 0.4 0.167-0.033 0.3-0.083 0.4-0.15 0-0.033 0.033-0.05 0.1-0.05zm2.15 17.55c-0.233 0.034-0.417 0.084-0.55 0.15-0.167 0.267-0.25 0.434-0.25 0.5 0.033 0.033 0.167-0.017 0.4-0.15 0.267-0.1 0.517-0.183 0.75-0.25-0.133-0.1-0.25-0.183-0.35-0.25zm1.1-0.1h-0.15c0.034 1e-3 0.067 0.018 0.1 0.05 0-0.032 0.017-0.049 0.05-0.05zm2.9 0.85c-0.367-0.066-0.683-0.149-0.95-0.25-0.4-0.166-0.75-0.3-1.05-0.399-0.1 0.066-0.2 0.133-0.3 0.2 0.3 0.133 0.633 0.267 1 0.399 0.1 0.033 0.8 0.3 2.1 0.8 0.033-0.066 0.083-0.133 0.15-0.199-0.1-0.233-0.2-0.417-0.3-0.551-0.133 0.034-0.35 0.034-0.65 0zm-2.6-4.25c-0.033 0.034-0.267 0.284-0.7 0.75-0.333 0.467-0.333 0.834 0 1.101 0.6 0.467 1.2 0.55 1.8 0.25 0.133-0.033 0.184 0.083 0.15 0.35 0.133-0.133 0.267-0.283 0.4-0.45 0.5-0.267 0.517-1.033 0.05-2.3-0.533-0.167-1.1-0.068-1.7 0.299zm1.65-4.2l0.05-0.25c0.033-0.134 0.117-0.233 0.25-0.301 0.133-0.066 0.167 0 0.1 0.2 0 0.101-0.05 0.2-0.15 0.3-0.133 0.101-0.217 0.118-0.25 0.051zm5.9 2.2c0.167 0.067 0.183 0.167 0.05 0.301-0.066 0.199-0.167 0.283-0.3 0.25h-0.1c-0.133 0-0.167-0.084-0.1-0.25 0.067-0.2 0.15-0.301 0.25-0.301h0.2zm1.85-1.6l-0.05-0.2c-0.066-0.2-0.033-0.35 0.1-0.45s0.25-0.033 0.35 0.2l0.05 0.2c0.067 0.2 0.017 0.35-0.15 0.45-0.133 0.1-0.233 0.033-0.3-0.2zm1-0.25l0.2 0.05c0.033 0 0.05 0.101 0.05 0.3-0.067 0.134-0.167 0.2-0.3 0.2h-0.2c-0.133-0.066-0.133-0.166 0-0.3 0.067-0.167 0.15-0.25 0.25-0.25zm0.95 0.4l0.15 0.1c-0.1 0.434-0.2 0.616-0.3 0.55l-0.2-0.15c-0.066-0.067-0.033-0.184 0.1-0.351 0.1-0.165 0.183-0.216 0.25-0.149z" fill="#807E6E"/>
	<path d="m34.7 8.6l1.2-0.45 2.15 1.15-0.25 0.2c-0.033 0.267-0.25 0.8-0.649 1.6l-0.7 1.1c-0.134 0.267-0.2 0.517-0.2 0.75h-0.051c-0.3 0.066-0.684-0.067-1.15-0.4-0.233-0.2-0.433-0.367-0.6-0.5-0.1-0.1-0.2-0.183-0.3-0.25 0.3-0.167 0.583-0.517 0.85-1.05-0.533 0.267-0.9 0.55-1.1 0.85-0.033-0.033-0.066-0.05-0.1-0.05 0.167-0.367 0.133-0.8-0.1-1.3-0.1 0.533-0.117 0.933-0.05 1.2-0.1-0.067-0.183-0.117-0.25-0.15-0.032-0.032-0.049-0.065-0.05-0.1v0.05c-0.1-0.067-0.2-0.15-0.3-0.25-0.133-0.1-0.233-0.217-0.3-0.35h0.35l0.05-0.35-0.55 0.1c-0.067-0.1-0.1-0.2-0.1-0.3l0.7-0.2v-0.35l-0.75 0.3c0-0.167 0.05-0.283 0.15-0.35l0.5-0.3v-0.05c0.1-0.033 0.217-0.066 0.35-0.1l0.3-0.1 0.15 0.3c0.133 0.2 0.283 0.333 0.45 0.4 0.066-0.367-0.067-0.633-0.4-0.8l0.2-0.05h0.1v-0.05h0.05c0.034 0.067 0.083 0.117 0.15 0.15 0.1-0.1 0.183-0.2 0.25-0.3zm0.35 0.05c-0.2 0.133-0.367 0.317-0.5 0.55-0.133 0.267-0.15 0.466-0.05 0.6 0.2-0.1 0.35-0.283 0.45-0.55 0.1-0.233 0.133-0.433 0.1-0.6zm-23.2 22.95c0.033 0.034 0.066 0.067 0.1 0.101 0.433 0.366 0.95 0.666 1.55 0.899 0.8 0.434 0.683 0.917-0.35 1.45-0.033-0.033-0.066-0.05-0.1-0.05-0.233-0.167-0.5-0.333-0.8-0.5l-2.9-1.9c-0.133-0.1-0.267-0.199-0.4-0.3h0.05c0.167 0.033 0.383-0.017 0.65-0.149 0.133-0.035 0.25-0.068 0.35-0.101 0 0.033 0.017 0.05 0.05 0.05 0.067 0.067 0.25 0.101 0.55 0.101 0.1 0.066 0.183 0.149 0.25 0.25l0.8 0.1c0.067-1e-3 0.133 0.015 0.2 0.049zm-3.7-0.85c0.067-0.033 0.167-0.066 0.3-0.1l-0.15 0.1c0.034 0.066 0.067 0.134 0.1 0.2-0.066-0.033-0.1-0.066-0.1-0.101h-0.05c-0.033-0.033-0.067-0.066-0.1-0.099zm-1.3-3.1c0 0.233 0.017 0.5 0.05 0.8 0 0.1-0.1 0.333-0.3 0.7-0.1 0.133-0.15 0.283-0.15 0.449-0.767-0.5-1.3-0.833-1.6-1 0.667-0.133 1.133-0.35 1.4-0.649 0.2-0.2 0.267-0.434 0.2-0.7 0-0.167-0.133-0.55-0.4-1.15l-1.25-2.75c0.2-0.166 0.383-0.333 0.55-0.5 0.033-0.033 0.083-0.083 0.15-0.149 0.333-0.3 0.65-0.601 0.95-0.9l1.5-1.45c-0.067 0.133-0.133 0.3-0.2 0.5-0.133 0.5-0.267 0.817-0.4 0.95-0.133-0.2-0.333-0.1-0.6 0.3-0.1 0.134-0.183 0.284-0.25 0.45-0.133 0.134-0.267 0.316-0.4 0.55-0.5 0.801-0.517 1.517-0.05 2.15 0.033 0.065 0.3 0.865 0.8 2.399zm27.35-17.05c0.1-0.267 0.1-0.5 0-0.7-0.067-0.1-0.217-0.25-0.45-0.45l0.15 0.6c0.033 0.267 0.133 0.45 0.3 0.55zm0.05 0.2c0.4-0.033 0.717-0.417 0.95-1.15-0.633 0.467-0.95 0.85-0.95 1.15zm2.2 0.85c-0.101 0.067-0.167 0.1-0.2 0.1v-0.15c0-0.1-0.033-0.133-0.1-0.1-0.234 0.467-0.2 0.633 0.1 0.5 0.066 0 0.2-0.117 0.4-0.35-0.034-0.067-0.1-0.067-0.2 0zm0.3-0.6c0 0.034 0.017 0.05 0.05 0.05 0.101 0.033 0.2-0.017 0.3-0.15-0.034-0.033-0.15 0-0.35 0.1zm-18-3.55l-0.1 0.1c0.5-0.7 0.95-1.383 1.35-2.05l2.9-5.55c0.233 0.267 0.483 0.533 0.75 0.8l0.65 0.55c0.667 0.5 1.434 1 2.3 1.5l-0.05 0.05-0.65 0.15c-1.433 0.434-2.5 0.784-3.2 1.05-0.667 0.267-1.383 0.767-2.15 1.5-0.4 0.4-1 1.033-1.8 1.9zm6.15 9.15c-0.133-0.167-0.233-0.333-0.3-0.5 0.3-0.2 0.65-0.333 1.05-0.4l0.1 0.1c-0.1 0.033-0.2 0.066-0.3 0.1-0.233 0.2-0.417 0.433-0.55 0.7zm5.25 4.35c-0.2-0.167-0.417-0.35-0.65-0.55l-1.25-0.8c-1-1-1.767-1.683-2.3-2.05h0.05c0.1 0.033 0.433 0.05 1 0.05 0.267-0.367 0.317-0.55 0.15-0.55-0.467 0-0.767-0.017-0.9-0.05-0.333-0.066-0.617-0.216-0.85-0.45 0.067-0.1 0.167-0.184 0.3-0.25 0.267-0.167 0.417-0.267 0.45-0.3 0.167-0.133 0.25-0.25 0.25-0.35 0.5 0 1.083 0.117 1.75 0.35 0.9 0.3 2.217 0.85 3.95 1.65 0.1 0.033 0.2 0.066 0.3 0.1-0.2 0.2-0.367 0.434-0.5 0.7-0.133 0.033-0.183 0.183-0.15 0.45 0.033 0.3 0.133 0.45 0.3 0.45 0.3 0 0.55-0.133 0.75-0.4l0.05-0.05v0.1c0.033 0.2 0.133 0.25 0.3 0.15 0.067-0.067 0.117-0.133 0.15-0.2 0.567-0.233 0.717-0.35 0.45-0.35-0.1 0-0.25 0.05-0.45 0.15 0.067-0.066 0.1-0.183 0.1-0.35-0.033-0.233-0.133-0.317-0.3-0.25-0.1 0.066-0.167 0.167-0.2 0.3-0.033-0.033-0.05-0.067-0.05-0.1-0.067-0.167-0.133-0.233-0.2-0.2 0.1-0.1 0.15-0.217 0.15-0.35 0.434 0 0.934-0.05 1.5-0.15 0.233 0.033 0.65 0.017 1.25-0.05 0.601 0.067 1.05 0.333 1.351 0.8l1.05 0.65c-0.834 1.4-1.834 2.333-3 2.8-0.767 0.333-1.534 0.433-2.3 0.3-0.033-0.066-0.1-0.101-0.2-0.101-0.067 0-0.117 0.017-0.15 0.051-0.167-0.034-0.316-0.084-0.45-0.15-0.067 0-0.133-0.017-0.2-0.05-0.033 0-0.066-0.017-0.1-0.05l-0.05-0.15c0.033-0.233-0.017-0.333-0.15-0.3s-0.217 0.116-0.25 0.25v0.05l-0.05-0.05c-0.066-0.033-0.15-0.084-0.25-0.15 0-0.166-0.05-0.3-0.15-0.399-0.168-0.168-0.334-0.218-0.501-0.151zm-2.55-3.7c0.033 0.034 0.117-0.017 0.25-0.15l0.35-0.45c0.1-0.167 0.117-0.284 0.05-0.35-0.1-0.067-0.2-0.017-0.3 0.15l-0.35 0.45-0.05 0.15c-0.033 0.1-0.017 0.167 0.05 0.2zm1.2-0.4c-0.167 0.033-0.333 0.133-0.5 0.3-0.033 0.033-0.066 0.117-0.1 0.25-0.034 0.167 0 0.267 0.1 0.3 0.2 0.067 0.417-0.017 0.65-0.25 0.033-0.033 0.066-0.067 0.1-0.1l-0.05 0.15c0 0.2 0.083 0.25 0.25 0.15 0.133-0.067 0.2-0.184 0.2-0.35v-0.1c0.066-0.233 0.017-0.35-0.15-0.35-0.1 0-0.167 0.083-0.2 0.25-0.033-0.033-0.05-0.066-0.05-0.1-0.033-0.033-0.05-0.066-0.05-0.1-0.033-0.034-0.067-0.05-0.1-0.05-0.033-0.033-0.067-0.033-0.1 0zm1.4 1.65c0.133 0.167 0.233 0.167 0.3 0l0.4-0.5c0.133-0.133 0.15-0.3 0.05-0.5s-0.217-0.233-0.35-0.1c-0.233 0.233-0.383 0.433-0.45 0.6-0.133 0.2-0.117 0.367 0.05 0.5zm4.25 0.9c0.1-0.067 0.183-0.184 0.25-0.35 0.066-0.2 0.017-0.3-0.15-0.3-0.1 0-0.183 0.1-0.25 0.3l-0.05 0.1 0.15-0.25c-0.133 0.267-0.2 0.417-0.2 0.45 0.033 0.133 0.117 0.15 0.25 0.05zm-11.1 1.85c-0.067 0.066-0.133 0.134-0.2 0.2-0.7-0.233-1.217-0.417-1.55-0.55-0.067-0.034-0.117-0.05-0.15-0.05 0.133-0.2 0.133-0.333 0-0.4-0.434-0.333-0.75-0.483-0.95-0.45-0.167-0.167-0.283-0.25-0.35-0.25-0.066 0.034-0.117 0.05-0.15 0.05s-0.083-0.05-0.15-0.15c-0.1-0.2-0.2-0.35-0.3-0.45 0.167 0.1 0.317 0.183 0.45 0.25l2.6 1.35c0.133 0.1 0.383 0.25 0.75 0.45zm0.5 0.25c0.2 0.101 0.35 0.134 0.45 0.101-0.133 0.066-0.283 0.083-0.45 0.05v-0.151zm-14.6-2.5c0.1-0.133 0.217-0.267 0.35-0.4 0 0.1-0.017 0.217-0.05 0.35h-0.05c-0.1 0-0.183 0.017-0.25 0.05zm10.95 1.55c-0.133-0.033-0.25-0.05-0.35-0.05-1.1-0.133-1.917-0.216-2.45-0.25-0.767-0.033-1.433 0.017-2 0.15-0.3-0.267-0.633-0.517-1-0.75-0.433-0.3-0.816-0.517-1.15-0.65-0.133-0.233-0.35-0.367-0.65-0.4l-0.05-0.05-0.25-0.05c-0.066-0.033-0.1 0.017-0.1 0.15-0.133 0.033-0.25 0.066-0.35 0.1-0.434-0.466-0.767-0.966-1-1.5l0.85-0.9 0.8-0.15c0.4-0.033 1.317 0.233 2.75 0.8 0.1 0.034 0.2 0.083 0.3 0.15-0.033 0-0.083 0.033-0.15 0.1-0.133 0.067-0.2 0.2-0.2 0.4 0.033 0.133 0.117 0.15 0.25 0.05 0.2-0.2 0.383-0.3 0.55-0.3 0.033 0 0.15 0.066 0.35 0.2 0.1 0.067 0.15 0.317 0.15 0.75-0.067 0.167-0.033 0.25 0.1 0.25 0.066-0.033 0.117-0.066 0.15-0.1 0.167 0.367 0.367 0.684 0.6 0.95 0.1 0.1 0.2 0.067 0.3-0.1 0.1-0.2 0.1-0.35 0-0.45s-0.183-0.217-0.25-0.35c0.1-0.033 0.184-0.083 0.25-0.15v0.1c0.1 0.6 0.25 0.967 0.45 1.1 0.1 0.067 0.2 0.067 0.3 0 0.2 0.4 0.417 0.45 0.65 0.15 0.067-0.066 0.167-0.017 0.3 0.15l0.3 0.45c0.033 0.067 0.133 0.083 0.3 0.05 0.1 0.067 0.183 0.117 0.25 0.15zm-2.5-2.35h0.05l-0.05 0.05v-0.05zm0.4 0.25c0.467 0.233 0.85 0.433 1.15 0.6l-0.25 0.15c-0.067 0.067-0.117 0.1-0.15 0.1-0.033-0.033-0.083-0.167-0.15-0.4-0.034-0.1-0.1-0.117-0.2-0.05s-0.15 0.117-0.15 0.15c-0.067 0.1-0.15-0.083-0.25-0.55z" fill="#CCC8B9"/>
	<path d="m39.3 16.5l-0.25 2.25c-0.166 0-0.35 0.117-0.55 0.35-0.134 0.133-0.3 0.316-0.5 0.55-0.733 0.9-1.417 2.167-2.05 3.8l-1.3 2.7c-0.133 0.233-0.333 0.699-0.6 1.399-0.233 0.601-0.45 1.051-0.65 1.351l-0.65 0.75-0.25 0.55c-0.3 0.2-0.75 0.416-1.35 0.649-0.267 0.067-0.783 0-1.55-0.199v-0.05c0.1-0.1 0.15-0.199 0.15-0.3 0-0.133-0.067-0.149-0.2-0.05l-0.3 0.3c-0.5-0.166-1.083-0.383-1.75-0.649h-0.05l-0.05-0.051-2.2-0.95c-0.333-0.134-0.717-0.301-1.15-0.5l-0.1-0.101c-0.6-0.399-0.7-0.75-0.3-1.05 0.2-0.167 0.5-0.3 0.9-0.4 0.167-0.066 0.434-0.133 0.8-0.199-0.033 0.133-0.05 0.283-0.05 0.449l0.05 0.101c0.267 0.033 0.683 0.017 1.25-0.05 0.5-0.067 0.917-0.051 1.25 0.05 0.267-0.334 0.35-0.517 0.25-0.55-0.5-0.067-0.85-0.084-1.05-0.051l-0.8 0.101h-0.3c-0.2 0.1-0.25 0.033-0.15-0.2 0.267-0.1 0.467-0.184 0.6-0.25 0.333-0.233 0.483-0.616 0.45-1.15-0.033-0.399-0.133-0.833-0.3-1.3h0.5c0.267 0.667 0.583 0.667 0.95 0 0-0.2-0.017-0.316-0.05-0.35-0.1-0.033-0.2 0.033-0.3 0.2-0.033 0.1-0.133-0.034-0.3-0.4-0.033-0.066-0.067-0.1-0.1-0.1l-0.1 0.05h-0.25v-0.25c0-0.2-0.066-0.25-0.2-0.15-0.167 0.066-0.25 0.167-0.25 0.3 0 0.233 0.017 0.417 0.05 0.551-0.133-0.301-0.283-0.617-0.45-0.95 0.034 0 0.05-0.017 0.05-0.05 0.066-0.134 0.083-0.233 0.05-0.301-0.167-0.333-0.35-0.466-0.55-0.399-0.567-0.834-1.3-1.733-2.2-2.7 0.067-0.133 0.1-0.233 0.1-0.3 0.033 0.267 0.15 0.5 0.35 0.7 0.267 0.233 0.467 0.25 0.6 0.05 0.167-0.233 0.2-0.567 0.1-1-0.033-0.3-0.133-0.417-0.3-0.35-0.1-0.2-0.217-0.267-0.35-0.2-0.267 0.067-0.4 0.283-0.4 0.65v0.05c-0.033-0.033-0.067-0.05-0.1-0.05-0.233-0.033-0.467-0.167-0.7-0.4v-0.05c0.066-0.1 0.083-0.2 0.05-0.3l-0.15-0.6c0-0.167-0.05-0.2-0.15-0.1-0.2 0.033-0.35 0.133-0.45 0.3-0.033 0.033-0.05 0.067-0.05 0.1-0.033-0.032-0.049-0.065-0.05-0.1 0-0.2-0.033-0.4-0.1-0.6l-0.15-0.25c-0.1-0.033-0.183-0.05-0.25-0.05-0.066-0.167-0.117-0.317-0.15-0.45 0.233-0.2 0.55-0.35 0.95-0.45l0.8-0.251c-0.033 0.133 0 0.25 0.1 0.35 0.1 0.167 0.217 0.15 0.35-0.05l0.3-0.45c0.433-0.1 0.933-0.117 1.5-0.05 0.067 0.033 0.2 0.15 0.4 0.35-0.4 0.067-0.75 0.2-1.05 0.4 0.066 0.167 0.167 0.333 0.3 0.5v0.3c0.3 0.333 0.65 0.55 1.05 0.65 0.533 0.367 1.3 1.05 2.3 2.05l1.25 0.8c0.233 0.2 0.45 0.383 0.65 0.55-0.133 0.066-0.217 0.233-0.25 0.5-0.033 0.033-0.066 0.1-0.1 0.2 0 0.267 0.067 0.399 0.2 0.399h0.05c0 0.067 0.034 0.134 0.1 0.2 0.133 0.2 0.283 0.3 0.45 0.3s0.267-0.1 0.3-0.3c0-0.233-0.066-0.383-0.2-0.45h-0.05c0.033-0.033 0.067-0.083 0.1-0.149s0.05-0.117 0.05-0.15c0.1 0.066 0.184 0.117 0.25 0.15l0.05 0.05c-0.033 0.267 0 0.55 0.1 0.85 0.033 0.067 0.1 0.101 0.2 0.101l0.15-0.05c0.2 0.433 0.4 0.616 0.6 0.55s0.35-0.316 0.45-0.75c0.033-0.101 0.05-0.184 0.05-0.25 0.767 0.133 1.533 0.033 2.3-0.3 1.166-0.467 2.166-1.4 3-2.8l-1.05-0.65c-0.301-0.467-0.75-0.733-1.351-0.8-0.6 0.067-1.017 0.083-1.25 0.05-0.566 0.1-1.066 0.15-1.5 0.15v-0.1c0-0.067-0.083-0.1-0.25-0.1-0.066 0.033-0.117 0.083-0.15 0.15-0.1-0.033-0.2-0.066-0.3-0.1-1.733-0.8-3.05-1.35-3.95-1.65-0.667-0.233-1.25-0.35-1.75-0.35-0.033-0.067-0.066-0.117-0.1-0.15l-0.05-0.05c0.4 0.033 0.917 0.083 1.55 0.15 0.5 0.067 1.817 0.367 3.95 0.9 1.633 0.4 2.917 0.567 3.85 0.5 0.7-0.033 1.8-0.333 3.3-0.9l0.401 0.349zm-14.25 3.6c0.034 0.167 0.117 0.25 0.25 0.25 0.133-0.033 0.25-0.05 0.35-0.05 0.233 0.5 0.5 0.684 0.8 0.55 0.233-0.133 0.45-0.434 0.65-0.9 0.1-0.2 0.083-0.383-0.05-0.55-0.167-0.133-0.283-0.117-0.35 0.05-0.267 0.833-0.517 0.9-0.75 0.2-0.034-0.133-0.1-0.217-0.2-0.25-0.067-0.033-0.117-0.017-0.15 0.05-0.033 0.033-0.067 0.066-0.1 0.1v-0.2c0.1-0.2 0.083-0.383-0.05-0.55s-0.233-0.15-0.3 0.05c-0.167 0.4-0.2 0.817-0.1 1.25zm3.2 0.15c-0.167 0.067-0.3 0.283-0.4 0.65-0.067 0.234-0.017 0.383 0.15 0.45 0.133 0.034 0.233-0.033 0.3-0.199l0.1-0.151 0.1 0.25c0.1 0.167 0.217 0.184 0.35 0.05 0.167-0.133 0.267 0.017 0.3 0.45 0.033 0.233 0.117 0.316 0.25 0.25 0.167-0.033 0.233-0.15 0.2-0.35-0.033-0.567-0.184-0.917-0.45-1.05-0.1-0.1-0.217-0.117-0.35-0.05-0.167-0.3-0.35-0.4-0.55-0.3zm0 2.75c-0.367 0.833-0.25 1.5 0.35 2 0.367 0.3 0.883 0.483 1.55 0.55 0.133 0 0.2-0.133 0.2-0.399-0.033-0.301-0.133-0.45-0.3-0.45-0.367 0-0.7-0.101-1-0.3-0.233-0.067-0.383-0.184-0.45-0.351-0.067-0.066-0.083-0.149-0.05-0.25 0.067-0.1 0.1-0.166 0.1-0.2 0.1-0.199 0.083-0.383-0.05-0.55-0.167-0.2-0.283-0.217-0.35-0.05zm3.4-1.05l-0.1 0.05v-0.1c0.033 0.034 0.067 0.05 0.1 0.05zm0.2 0.05c0.133 0.066 0.283 0.116 0.45 0.15-0.066 0.033-0.1 0.116-0.1 0.25-0.067 0.199-0.184 0.083-0.35-0.351v-0.049zm0.8 3.9c-0.066-0.067-0.15-0.017-0.25 0.149-0.133 0.167-0.167 0.283-0.1 0.351l0.2 0.149c0.1 0.066 0.2-0.116 0.3-0.55l-0.15-0.099zm-0.95-0.4c-0.1 0-0.184 0.083-0.25 0.25-0.133 0.134-0.133 0.233 0 0.3h0.2c0.133 0 0.233-0.066 0.3-0.2 0-0.199-0.017-0.3-0.05-0.3l-0.2-0.05zm-1 0.25c0.066 0.233 0.167 0.3 0.3 0.2 0.167-0.101 0.217-0.25 0.15-0.45l-0.05-0.2c-0.1-0.233-0.217-0.3-0.35-0.2-0.133 0.101-0.167 0.25-0.1 0.45l0.05 0.2zm-1.85 1.6h-0.2c-0.1 0-0.183 0.101-0.25 0.301-0.066 0.166-0.033 0.25 0.1 0.25h0.1c0.133 0.033 0.233-0.051 0.3-0.25 0.133-0.134 0.117-0.234-0.05-0.301z" fill="#D8D4C4"/>
	<path d="m9.55 19l0.8-0.2 0.65 0.15c0.133 0 0.417-0.05 0.85-0.15 0.1-0.033 0.217-0.066 0.35-0.1v0.1c0 0.167 0.05 0.3 0.15 0.4s0.2 0.083 0.3-0.05c0.067-0.167 0.05-0.333-0.05-0.5 0.3 0.033 0.517 0.167 0.65 0.4 0.067 0.1 0.117 0.25 0.15 0.45-0.133 0.133-0.333 0.133-0.6 0-0.233-0.133-0.4-0.217-0.5-0.25l-0.15-0.1c-0.033 0-0.183 0.083-0.45 0.25l-2.15 0.65c-0.066 0.034-0.117 0.067-0.15 0.1-0.233 0.067-0.417 0.133-0.55 0.2-0.3 0.1-0.55 0.15-0.75 0.15-0.033-0.1-0.05-0.2-0.05-0.3 0-0.067 0.017-0.133 0.05-0.2 0.033-0.167 0.117-0.35 0.25-0.55l-0.2 0.05c0.033-0.2 0.233-0.333 0.6-0.4 0.133-0.033 0.283-0.05 0.45-0.05h0.05c0.067-0.033 0.15-0.05 0.25-0.05h0.05zm-0.05 0.3c-0.233 0.067-0.367 0.184-0.4 0.35 0.066-0.033 0.283-0.05 0.65-0.05 0.3-0.067 0.4-0.25 0.3-0.55l-0.35-0.05-0.2 0.3zm-3 3.25c0.067-0.166 0.15-0.316 0.25-0.45 0.267-0.399 0.467-0.5 0.6-0.3 0.067 0.1 0.117 0.3 0.15 0.6 0.033 0.366 0 0.899-0.1 1.6-0.133 0.767-0.267 1.15-0.4 1.15-0.2 0-0.417-0.134-0.65-0.4-0.233-0.333-0.333-0.667-0.3-1 0.033-0.366 0.183-0.767 0.45-1.2zm0.2 0c-0.1 0.1-0.167 0.25-0.2 0.45-0.067 0.267-0.05 0.483 0.05 0.65 0.133 0.066 0.267-0.051 0.4-0.351 0.1-0.333 0.117-0.616 0.05-0.85l-0.3 0.101zm8.45-0.15c0-0.067 0.017-0.117 0.05-0.15l0.25-0.65c0.133-0.033 0.3-0.083 0.5-0.149 0.167 0 0.333 0.1 0.5 0.3 0.333 0.4 0.466 0.95 0.4 1.65-0.033 0.267-0.184 0.5-0.45 0.699-0.167 0.101-0.25 0.284-0.25 0.551l0.25 0.8c0 0.133-0.117 0.233-0.35 0.3-0.3 0.1-0.633 0.483-1 1.15-0.233 0.166-0.65 0.267-1.25 0.3-0.566 0.233-1.066 0.399-1.5 0.5-0.833 0.166-1.267 0.033-1.3-0.4 0.133-0.033 0.267-0.1 0.4-0.2 0.067-0.066 0.133-0.133 0.2-0.199l0.5-0.25 0.5-0.15c-0.067 0.033-0.1 0.1-0.1 0.2 0.067 0.066 0.167 0.1 0.3 0.1 0.1-0.033 0.2-0.066 0.3-0.1l0.6-0.15c0.333-0.1 0.517-0.149 0.55-0.149 0.233-0.134 0.383-0.25 0.45-0.351l0.05-0.399c-0.2 0.133-0.367 0.216-0.5 0.25l-0.15 0.097c0.3-0.267 0.566-0.634 0.8-1.1 0.1-0.134 0.184-0.517 0.25-1.15-0.067-0.634-0.067-1.083 0-1.35zm0.45-0.3c-0.3 0.067-0.434 0.317-0.4 0.75 0 0.167 0.05 0.4 0.15 0.7 0.1 0.334 0.183 0.517 0.25 0.55 0.1 0.067 0.217 0.051 0.35-0.05 0.133-0.133 0.216-0.267 0.25-0.399 0.033-0.2-0.034-0.617-0.2-1.25l-0.4-0.301zm-6.75 4.5l-0.65 0.2c0.033 0.367 0.3 0.6 0.8 0.7 0.367 0 0.483-0.25 0.35-0.75h0.05c0.033 0.033 0.283 0.167 0.75 0.4 0.033 0.033 0.117 0.05 0.25 0.05 0.1 0.033 0.167 0.1 0.2 0.2 0.167 0.333 0.167 0.583 0 0.75-0.033 0.066-0.2 0.1-0.5 0.1-0.133 0-0.3 0.017-0.5 0.05-0.267-0.033-0.583-0.066-0.95-0.1-0.033 0-0.3-0.05-0.8-0.15-0.267-0.166-0.45-0.25-0.55-0.25-0.233-0.5-0.183-0.883 0.15-1.149 0.3-0.267 0.6-0.334 0.9-0.2l0.5 0.149z" fill="#D9583A"/>
	<path d="m9.5 19.3l0.2-0.3 0.35 0.05c0.1 0.3 0 0.483-0.3 0.55-0.367 0-0.583 0.017-0.65 0.05 0.033-0.167 0.167-0.283 0.4-0.35zm2.7-0.6c0-0.133 0.033-0.184 0.1-0.15l0.25 0.05 0.05 0.05c0.1 0.167 0.117 0.333 0.05 0.5-0.1 0.133-0.2 0.15-0.3 0.05s-0.15-0.233-0.15-0.4v-0.1zm-3.35 7.9l0.25-0.1 0.05 0.05 0.1 0.05 0.05 0.05c0 0.033 0.017 0.066 0.05 0.1 0.133 0.5 0.017 0.75-0.35 0.75-0.5-0.1-0.767-0.333-0.8-0.7l0.65-0.2zm-2.15-4.05l0.3-0.1c0.067 0.233 0.05 0.517-0.05 0.85-0.133 0.3-0.267 0.417-0.4 0.351-0.1-0.168-0.117-0.384-0.05-0.651 0.033-0.2 0.1-0.35 0.2-0.45zm5.9 3.95c0.033-0.033 0.066-0.05 0.1-0.05 0.1-0.033 0.216-0.066 0.35-0.101l1.05-0.349 0.15-0.1c0.133-0.034 0.3-0.117 0.5-0.25l-0.05 0.4c-0.067 0.101-0.217 0.217-0.45 0.351-0.033 0-0.217 0.05-0.55 0.149l-0.6 0.15c-0.1 0.033-0.2 0.066-0.3 0.1-0.133 0-0.233-0.033-0.3-0.1 0-0.1 0.033-0.167 0.1-0.2zm3-4.4l0.4 0.3c0.167 0.633 0.233 1.05 0.2 1.25-0.034 0.133-0.117 0.267-0.25 0.399-0.133 0.101-0.25 0.117-0.35 0.05-0.067-0.033-0.15-0.216-0.25-0.55-0.1-0.3-0.15-0.533-0.15-0.7-0.033-0.432 0.1-0.682 0.4-0.749z" fill="#FF886E"/>
	<path d="m7.95 20.35c0.033-0.167 0.083-0.283 0.15-0.35-0.033 0.067-0.05 0.133-0.05 0.2 0 0.1 0.017 0.2 0.05 0.3 0.2 0 0.45-0.05 0.75-0.15 0.133-0.067 0.316-0.133 0.55-0.2 0.033-0.033 0.083-0.066 0.15-0.1l2.15-0.65c0.267-0.167 0.417-0.25 0.45-0.25l0.15 0.1c0.1 0.033 0.267 0.117 0.5 0.25 0.267 0.133 0.467 0.133 0.6 0-0.033-0.2-0.083-0.35-0.15-0.45 0.333 0.133 0.717 0.35 1.15 0.65 0.367 0.233 0.7 0.483 1 0.75 0.467 0.367 0.867 0.75 1.2 1.149 0.1 0.134 0.183 0.25 0.25 0.351 0.467 0.7 0.783 1.5 0.95 2.399-0.1-0.433-0.233-0.866-0.4-1.3 0.167 1.601-0.15 2.816-0.95 3.65-0.4 0.399-1.184 0.833-2.35 1.3-1.033 0.434-1.85 0.767-2.45 1-0.5 0.167-0.85 0.267-1.05 0.3-0.3 0.033-0.583 0.05-0.85 0.05-1.033-0.033-1.85-0.449-2.45-1.249l-0.45-0.8v0.15c-1e-3 -0.034-0.018-0.068-0.05-0.101 0.034 0.067 0.05 0.134 0.05 0.2v0.101c-0.5-1.534-0.767-2.334-0.8-2.4-0.467-0.634-0.45-1.35 0.05-2.15 0.133-0.233 0.267-0.416 0.4-0.55-0.267 0.434-0.417 0.834-0.45 1.2-0.033 0.333 0.067 0.667 0.3 1 0.233 0.267 0.45 0.4 0.65 0.4 0.133 0 0.267-0.384 0.4-1.15 0.1-0.7 0.133-1.233 0.1-1.6-0.033-0.3-0.083-0.5-0.15-0.6 0.133-0.133 0.267-0.45 0.4-0.95 0.067-0.2 0.133-0.367 0.2-0.5zm1.3 6.25c0.6 0.334 1.317 0.5 2.15 0.5-0.133 0.101-0.267 0.167-0.4 0.2 0.033 0.434 0.467 0.566 1.3 0.4 0.434-0.101 0.934-0.267 1.5-0.5 0.6-0.033 1.017-0.134 1.25-0.3 0.367-0.667 0.7-1.051 1-1.15 0.233-0.066 0.35-0.167 0.35-0.3l-0.25-0.8c0-0.267 0.083-0.45 0.25-0.551 0.267-0.199 0.417-0.433 0.45-0.699 0.066-0.7-0.067-1.25-0.4-1.65-0.167-0.2-0.333-0.3-0.5-0.3-0.2 0.066-0.367 0.116-0.5 0.149l-0.25 0.65c-0.034 0.033-0.05 0.083-0.05 0.15-0.066-0.067-0.117-0.15-0.15-0.25-0.367-0.634-0.883-1.084-1.55-1.351l-0.65-0.2-1-0.1h-0.15c-0.6 0.033-1.183 0.167-1.75 0.4-0.267 0.133-0.5 0.267-0.7 0.4-0.3 0.233-0.534 0.483-0.7 0.75-0.333 0.634-0.483 1.4-0.45 2.3 0.034 1 0.35 1.7 0.95 2.101 0.033 0.033 0.067 0.05 0.1 0.05l-0.25 0.1-0.5-0.149c-0.3-0.134-0.6-0.066-0.9 0.2-0.333 0.267-0.383 0.65-0.15 1.15 0.1 0 0.284 0.084 0.55 0.25 0.5 0.101 0.767 0.15 0.8 0.15 0.367 0.033 0.684 0.066 0.95 0.1 0.2-0.033 0.367-0.05 0.5-0.05 0.3 0 0.467-0.033 0.5-0.1 0.167-0.167 0.167-0.417 0-0.75-0.033-0.101-0.1-0.167-0.2-0.2-0.133 0-0.217-0.017-0.25-0.05-0.467-0.233-0.717-0.367-0.75-0.4h-0.05c-0.033-0.033-0.05-0.066-0.05-0.1l-0.05-0.05zm2.25-4.4c0.067 0.233 0.117 0.533 0.15 0.899h0.15l0.5-0.1 0.8-0.25c0.2-0.066 0.483-0.167 0.85-0.3 0.2 0.033 0.333 0.217 0.4 0.55v0.35c0 0.2-0.184 0.483-0.55 0.851-0.3 0.233-0.583 0.399-0.85 0.5-0.034 0.033-0.167 0.066-0.4 0.1-0.2 0.033-0.333 0.084-0.4 0.15-0.033 0.066-0.066 0.233-0.1 0.5 0 0.233-0.033 0.383-0.1 0.45-0.034 0.066-0.133 0.1-0.3 0.1-0.133 0.033-0.233 0.017-0.3-0.05-0.033 0-0.049-0.017-0.05-0.05-0.1-0.101-0.167-0.25-0.2-0.45v-0.05c-0.033-0.233-0.067-0.4-0.1-0.5-0.1 0-0.4 0.083-0.9 0.25-0.133 0.066-0.25 0.116-0.35 0.149h-0.2c-0.1-0.033-0.167-0.083-0.2-0.149-0.133-0.301 0-0.551 0.4-0.75 0.067-0.034 0.333-0.134 0.8-0.301l-0.3-1.699c0.033-0.301 0.233-0.517 0.6-0.65 0.1 0 0.2-0.033 0.3-0.1 0.1 0.033 0.184 0.149 0.25 0.35l0.1 0.2zm-0.9 7.65l0.2 0.051c0.034 0.066 0.067 0.133 0.1 0.199 0 0.167-0.083 0.301-0.25 0.4-0.066 0.033-0.15 0.066-0.25 0.1-0.2 0.067-0.333 0.084-0.4 0.051-0.067-0.034-0.117-0.117-0.15-0.25-0.033-0.067-0.067-0.15-0.1-0.25 0.033 0 0.067-0.017 0.1-0.051 0.066-0.066 0.133-0.149 0.2-0.25h0.55zm-3.55-1.1c0.067-0.033 0.184 0.017 0.35 0.15 0.067 0.066 0.167 0.166 0.3 0.3 0.2 0.133 0.383 0.184 0.55 0.149 0.1 0.2 0.117 0.351 0.05 0.45-0.067 0.101-0.183 0.168-0.35 0.201-0.367 0.1-0.7 0.066-1-0.1-0.3-0.167-0.4-0.384-0.3-0.65l0.25-0.65 0.15 0.15z" fill="#9C3F2A"/>
	<path d="m10 31.05c-0.1-0.1-0.2-0.233-0.3-0.399-0.1-0.2-0.217-0.317-0.35-0.351-0.3 0-0.533 0.066-0.7 0.2-0.066 0.033-0.133 0.083-0.2 0.15-0.133 0.033-0.233 0.066-0.3 0.1-0.067 0.033-0.117 0.05-0.15 0.05-0.267 0.101-0.533 0.066-0.8-0.1-0.3-0.134-0.534-0.384-0.7-0.75-0.067-0.134-0.083-0.25-0.05-0.35 0-0.166 0.05-0.316 0.15-0.449 0.2-0.367 0.3-0.601 0.3-0.7-0.033-0.3-0.05-0.566-0.05-0.8v-0.101c0-0.066-0.017-0.133-0.05-0.2 0.033 0.032 0.049 0.066 0.05 0.101v-0.15l0.45 0.8c0.6 0.801 1.417 1.217 2.45 1.25 0.267 0 0.55-0.017 0.85-0.05 0.2-0.033 0.55-0.133 1.05-0.3 0.6-0.233 1.417-0.566 2.45-1 1.167-0.467 1.95-0.9 2.35-1.3 0.8-0.834 1.117-2.05 0.95-3.65 0.167 0.434 0.3 0.867 0.4 1.3v0.15c0.034 0.167 0.05 0.333 0.05 0.5s0 0.3 0 0.4c-0.033 0.267-0.083 0.483-0.15 0.649l-0.05 0.05c-0.033 0.034-0.066 0.067-0.1 0.101l-1.45 1.45c-0.867 0.866-1.567 1.517-2.1 1.949-0.4 0.334-0.883 0.584-1.45 0.75-0.066 0.067-0.133 0.117-0.2 0.15-0.133 0.066-0.367 0.134-0.7 0.2-0.4 0.3-0.717 0.467-0.95 0.5h-0.1c-0.3 0-0.483-0.033-0.55-0.101-0.033 1e-3 -0.05-0.016-0.05-0.049zm3.45-10.25c0.633 0.267 1.133 0.717 1.5 1.351-0.934-0.5-1.784-0.75-2.55-0.75-0.667-0.034-1.383 0.149-2.15 0.55-0.7 0.366-1.167 0.8-1.4 1.3v0.05c-0.133 0.8-0.133 1.566 0 2.3 0.066 0.301 0.167 0.617 0.3 0.95l-0.05-0.051c-0.033 0-0.067-0.017-0.1-0.05-0.6-0.4-0.917-1.101-0.95-2.101-0.033-0.899 0.117-1.666 0.45-2.3 0.167-0.267 0.4-0.517 0.7-0.75 0.2-0.133 0.433-0.267 0.7-0.4 0.567-0.233 1.15-0.367 1.75-0.4h0.15l1 0.1 0.65 0.201zm-2.35 4.6c-0.167 0-0.417 0.066-0.75 0.199-0.167 0.067-0.3 0.117-0.4 0.15-0.167 0.033-0.3-0.017-0.4-0.15-0.033-0.1-0.033-0.199 0-0.3h0.2c0.1-0.033 0.217-0.083 0.35-0.149 0.5-0.167 0.8-0.25 0.9-0.25 0.033 0.1 0.067 0.267 0.1 0.5zm3.25-2.4c0.133 0.066 0.2 0.333 0.2 0.8 0 0.2-0.183 0.483-0.55 0.851l-0.8 0.55c-0.534 0.1-0.817 0.166-0.85 0.2-0.033 0.066-0.067 0.233-0.1 0.5 0 0.233-0.033 0.383-0.1 0.449-0.033 0.067-0.133 0.101-0.3 0.101-0.133 0.033-0.233 0.017-0.3-0.05-0.133-0.101-0.216-0.25-0.25-0.45v-0.051c1e-3 0.033 0.018 0.05 0.05 0.05 0.066 0.066 0.167 0.083 0.3 0.05 0.167 0 0.267-0.033 0.3-0.1 0.066-0.067 0.1-0.217 0.1-0.45 0.034-0.267 0.067-0.434 0.1-0.5 0.067-0.066 0.2-0.117 0.4-0.15 0.233-0.033 0.367-0.066 0.4-0.1 0.267-0.101 0.55-0.267 0.85-0.5 0.367-0.367 0.55-0.65 0.55-0.851v-0.349zm-2.85-0.8c0.033 0.066 0.067 0.149 0.1 0.25 0.066 0.166 0.133 0.383 0.2 0.649h-0.15c-0.033-0.366-0.083-0.665-0.15-0.899zm-0.9 7.65h-0.55c-0.066 0.101-0.133 0.184-0.2 0.25-0.033 0.034-0.067 0.051-0.1 0.051 0.033 0.1 0.067 0.183 0.1 0.25 0.033 0.133 0.083 0.216 0.15 0.25 0.067 0.033 0.2 0.017 0.4-0.051 0.1-0.033 0.184-0.066 0.25-0.1 0.167-0.1 0.25-0.233 0.25-0.4-0.033-0.066-0.066-0.133-0.1-0.199l-0.2-0.051zm-3.55-1.1l-0.15-0.15-0.25 0.65c-0.1 0.267 0 0.483 0.3 0.65 0.3 0.166 0.633 0.199 1 0.1 0.167-0.033 0.283-0.1 0.35-0.2s0.05-0.25-0.05-0.45c-0.167 0.034-0.35-0.017-0.55-0.15-0.133-0.134-0.233-0.233-0.3-0.3-0.167-0.133-0.283-0.183-0.35-0.15z" fill="#63281B"/>
	<path d="m11.4 27.1c-0.833 0-1.55-0.166-2.15-0.5l-0.1-0.05c-0.133-0.333-0.233-0.649-0.3-0.95-0.133-0.733-0.133-1.5 0-2.3v-0.05c0.233-0.5 0.7-0.934 1.4-1.3 0.767-0.4 1.483-0.584 2.15-0.55 0.767 0 1.617 0.25 2.55 0.75-0.367-0.634-0.867-1.084-1.5-1.351 0.667 0.267 1.183 0.717 1.55 1.351 0.033 0.1 0.083 0.183 0.15 0.25-0.066 0.267-0.066 0.716 0 1.35-0.066 0.634-0.15 1.017-0.25 1.15-0.233 0.466-0.5 0.833-0.8 1.1l-1.05 0.35c-0.133 0.034-0.25 0.067-0.35 0.101-0.034 0-0.067 0.017-0.1 0.05l-0.5 0.15-0.5 0.25c-0.067 0.066-0.133 0.132-0.2 0.199zm-1.85-1.8c-0.033 0.101-0.033 0.2 0 0.3 0.1 0.134 0.233 0.184 0.4 0.15 0.1-0.033 0.233-0.083 0.4-0.15 0.333-0.133 0.583-0.199 0.75-0.199v0.05c0.033 0.2 0.1 0.35 0.2 0.45v0.05c0.034 0.2 0.117 0.35 0.25 0.45 0.067 0.066 0.167 0.083 0.3 0.05 0.167 0 0.267-0.033 0.3-0.101 0.067-0.066 0.1-0.216 0.1-0.449 0.033-0.267 0.067-0.434 0.1-0.5 0.033-0.034 0.316-0.101 0.85-0.2l0.8-0.55c0.367-0.367 0.55-0.65 0.55-0.851 0-0.467-0.066-0.733-0.2-0.8-0.067-0.333-0.2-0.517-0.4-0.55-0.367 0.133-0.65 0.233-0.85 0.3l-0.8 0.25-0.5 0.1c-0.066-0.267-0.133-0.483-0.2-0.649-0.033-0.101-0.067-0.184-0.1-0.25s-0.067-0.134-0.1-0.2c-0.066-0.2-0.15-0.316-0.25-0.35-0.1 0.066-0.2 0.1-0.3 0.1-0.367 0.134-0.567 0.35-0.6 0.65l0.3 1.699c-0.466 0.167-0.733 0.267-0.8 0.301-0.4 0.199-0.533 0.449-0.4 0.75 0.033 0.066 0.1 0.116 0.2 0.149z" fill="#8C3926"/>
</g>
</svg>
