<?xml version="1.0" encoding="UTF-8" standalone="no"?>
<svg
   xmlns:dc="http://purl.org/dc/elements/1.1/"
   xmlns:cc="http://creativecommons.org/ns#"
   xmlns:rdf="http://www.w3.org/1999/02/22-rdf-syntax-ns#"
   xmlns:svg="http://www.w3.org/2000/svg"
   xmlns="http://www.w3.org/2000/svg"
   xmlns:xlink="http://www.w3.org/1999/xlink"
   xmlns:sodipodi="http://sodipodi.sourceforge.net/DTD/sodipodi-0.dtd"
   xmlns:inkscape="http://www.inkscape.org/namespaces/inkscape"
   enable-background="new 0 0 72.55 40.1"
   version="1.1"
   viewBox="0 0 52.449301 45.303194"
   xml:space="preserve"
   id="svg1003"
   sodipodi:docname="logo.svg"
   width="52.449303"
   height="45.303192"
   inkscape:version="1.0.2 (e86c870879, 2021-01-15, custom)"><metadata
   id="metadata1009"><rdf:RDF><cc:Work
       rdf:about=""><dc:format>image/svg+xml</dc:format><dc:type
         rdf:resource="http://purl.org/dc/dcmitype/StillImage" /><dc:title></dc:title></cc:Work></rdf:RDF></metadata><defs
   id="defs1007"><linearGradient
     id="h"
     x1="411.95001"
     x2="293.04001"
     y1="375.76999"
     y2="296.54999"
     gradientUnits="userSpaceOnUse"
     xlink:href="#b" /><linearGradient
     id="b"><stop
       offset="0"
       id="stop1063" /><stop
       stop-opacity="0"
       offset="1"
       id="stop1065" /></linearGradient><filter
     id="i"><feGaussianBlur
       stdDeviation="1.08899"
       id="feGaussianBlur1060" /></filter><radialGradient
     id="c"
     cx="61.563999"
     cy="105.94"
     r="27.959"
     fx="69.987"
     fy="90.418999"
     gradientTransform="matrix(1.1767,-0.065706,0.062292,1.0082,242.27,193.3)"
     gradientUnits="userSpaceOnUse"><stop
       stop-color="#fff"
       stop-opacity=".57047"
       offset="0"
       id="stop1078" /><stop
       stop-color="#96b0c6"
       stop-opacity=".89933"
       offset="1"
       id="stop1080" /></radialGradient><linearGradient
     id="g"
     x1="57.667999"
     x2="60.491001"
     y1="84.016998"
     y2="111.24"
     gradientTransform="matrix(1.1482,-0.034084,0.030664,0.93348,252.43,191.06)"
     gradientUnits="userSpaceOnUse"
     xlink:href="#a-5" /><linearGradient
     id="a-5"><stop
       stop-color="#fff"
       stop-opacity=".74902"
       offset="0"
       id="stop1068" /><stop
       stop-color="#fff"
       stop-opacity="0"
       offset="1"
       id="stop1070" /></linearGradient><linearGradient
     id="f"
     x1="42.498001"
     x2="54.321999"
     y1="103.57"
     y2="167.94"
     gradientTransform="matrix(1.1879,-0.035264,0.025189,0.76682,265.96,191.04)"
     gradientUnits="userSpaceOnUse"
     xlink:href="#a-5" /><linearGradient
     id="e"
     x1="110.05"
     x2="103.69"
     y1="138.24001"
     y2="145.34"
     gradientTransform="matrix(1.0182,-0.031794,0.03064,0.9812,248.5,191.29)"
     gradientUnits="userSpaceOnUse"
     xlink:href="#a-5" /><linearGradient
     id="d"
     x1="350.72"
     x2="358.85001"
     y1="336.37"
     y2="327.81"
     gradientUnits="userSpaceOnUse"
     xlink:href="#b" /></defs><sodipodi:namedview
   pagecolor="#ffffff"
   bordercolor="#666666"
   borderopacity="1"
   objecttolerance="10"
   gridtolerance="10"
   guidetolerance="10"
   inkscape:pageopacity="0"
   inkscape:pageshadow="2"
   inkscape:window-width="1431"
   inkscape:window-height="1030"
   id="namedview1005"
   showgrid="false"
   inkscape:zoom="4.2487939"
   inkscape:cx="22.395466"
   inkscape:cy="-2.6974585"
   inkscape:window-x="96"
   inkscape:window-y="0"
   inkscape:window-maximized="0"
   inkscape:current-layer="svg1003" />
<g
   clip-rule="evenodd"
   fill-rule="evenodd"
   id="g1001">
	<path
   d="M 43.95,9.6 43.8,9.95 c -0.233,0.233 -0.566,0.75 -1,1.55 -0.5,0.767 -1.033,1.15 -1.6,1.15 -0.033,-0.467 -0.05,-0.8 -0.05,-1 0.033,-0.233 0.116,-0.433 0.25,-0.6 0.166,-0.167 0.267,-0.316 0.3,-0.45 C 41.733,10.433 41.683,10.166 41.55,9.8 41.384,9.267 41.3,8.967 41.3,8.9 41.533,8.733 41.833,8.6 42.2,8.5 42.433,8.433 42.75,8.35 43.15,8.25 Z"
   fill="#d1cdbd"
   id="path968" />
	<path
   d="m 19.15,15.75 c -0.2,0.267 -0.35,0.617 -0.45,1.05 -0.067,0.233 -0.017,0.4 0.15,0.5 0.267,0.167 0.483,0.184 0.65,0.05 0.167,-0.134 0.25,-0.4 0.25,-0.8 0.033,-0.233 -0.017,-0.367 -0.15,-0.4 0,-0.066 -0.033,-0.167 -0.1,-0.3 -0.067,-0.167 -0.183,-0.2 -0.35,-0.1 z M 18.1,18.5 c 0,-0.1 -0.017,-0.2 -0.05,-0.3 0,-0.133 -0.066,-0.15 -0.2,-0.05 l -0.1,0.1 H 17.7 c 0,-0.133 -0.017,-0.217 -0.05,-0.25 -0.267,-0.333 -0.517,-0.433 -0.75,-0.3 0,-0.1 -0.017,-0.2 -0.05,-0.3 -0.067,-0.2 -0.233,-0.367 -0.5,-0.5 -0.233,-0.1 -0.5,0 -0.8,0.3 -0.1,-0.067 -0.2,-0.117 -0.3,-0.15 -1.433,-0.566 -2.35,-0.833 -2.75,-0.8 l -0.8,0.15 c 0.8,-0.867 1.566,-1.75 2.3,-2.65 1.8,-2.133 3.383,-4.217 4.75,-6.25 0.8,-0.867 1.4,-1.5 1.8,-1.9 0.767,-0.733 1.483,-1.233 2.15,-1.5 0.7,-0.267 1.767,-0.617 3.2,-1.05 L 26.55,2.9 c 1.934,1.067 4.3,1.967 7.1,2.7 4.633,1.233 8.85,1.483 12.65,0.75 -0.899,0.7 -1.684,1.783 -2.35,3.25 l -0.8,-1.35 c -0.4,0.1 -0.717,0.183 -0.95,0.25 -0.367,0.1 -0.667,0.233 -0.9,0.4 0,0.067 0.084,0.367 0.25,0.9 0.134,0.367 0.184,0.633 0.15,0.8 -0.033,0.133 -0.134,0.283 -0.3,0.45 -0.134,0.167 -0.217,0.367 -0.25,0.6 0,0.2 0.017,0.533 0.05,1 0.566,0 1.1,-0.383 1.6,-1.15 0.434,-0.8 0.767,-1.317 1,-1.55 l -0.35,1.1 c -0.467,1.633 -1.066,2.684 -1.8,3.15 -0.367,0.267 -0.934,0.383 -1.7,0.35 -0.434,-0.033 -1.15,0.1 -2.15,0.4 l -1.2,0.35 -0.149,0.05 1.35,0.35 c 0.7,0.267 1.066,0.417 1.101,0.45 -1.5,0.567 -2.601,0.867 -3.3,0.9 -0.934,0.067 -2.217,-0.1 -3.85,-0.5 -2.133,-0.533 -3.45,-0.833 -3.95,-0.9 -0.633,-0.066 -1.15,-0.117 -1.55,-0.15 -0.367,-0.367 -0.6,-0.583 -0.7,-0.65 -0.066,-0.067 -0.15,0 -0.25,0.2 -0.1,0.167 -0.117,0.284 -0.05,0.35 -0.567,-0.066 -1.067,-0.05 -1.5,0.05 l 0.05,-0.1 c 0.1,-0.167 0.1,-0.35 0,-0.55 -0.033,-0.033 -0.05,-0.066 -0.05,-0.1 0.133,-0.1 0.133,-0.284 0,-0.55 -0.1,-0.2 -0.217,-0.233 -0.35,-0.1 l -0.6,0.6 c -0.133,0.133 -0.133,0.317 0,0.55 0.067,0.167 0.15,0.25 0.25,0.25 C 23.017,15.483 23,15.533 23,15.6 l -0.8,0.25 c -0.4,0.1 -0.717,0.25 -0.95,0.45 0.033,0.133 0.083,0.284 0.15,0.45 -0.167,-0.033 -0.316,0.033 -0.45,0.2 -0.067,-0.2 -0.167,-0.3 -0.3,-0.3 -0.3,0 -0.483,0.3 -0.55,0.9 -0.033,0.1 -0.017,0.2 0.05,0.3 0.033,0.1 0.083,0.15 0.15,0.15 0.133,0.033 0.233,-0.067 0.3,-0.3 v -0.05 c 0.033,0.233 0.117,0.367 0.25,0.4 0.1,0.034 0.167,-0.017 0.2,-0.15 0.1,-0.233 0.2,-0.35 0.3,-0.35 v 0.3 c 0,0.233 0.083,0.383 0.25,0.45 0.167,0.067 0.25,-0.033 0.25,-0.3 0.033,-0.132 0.049,-0.249 0.05,-0.35 0.001,0.035 0.018,0.068 0.05,0.1 -0.1,0.167 -0.083,0.4 0.05,0.7 0.233,0.533 0.65,0.85 1.25,0.95 0.033,-0.066 0.083,-0.117 0.15,-0.15 0.9,0.967 1.633,1.866 2.2,2.7 h -0.05 c -0.167,0.066 -0.3,0.25 -0.4,0.55 v 0.25 c -0.033,0.066 -0.033,0.15 0,0.25 0,0.134 0.033,0.267 0.1,0.4 0.1,0.333 0.333,0.5 0.7,0.5 0.133,0 0.233,-0.084 0.3,-0.25 0.033,-0.034 0.05,-0.084 0.05,-0.15 0,-0.1 -0.033,-0.15 -0.1,-0.15 -0.267,0 -0.45,-0.116 -0.55,-0.35 0.133,-0.033 0.267,-0.134 0.4,-0.3 0.167,0.333 0.317,0.649 0.45,0.95 v 0.05 c 0,0.033 0.017,0.066 0.05,0.1 0.167,0.467 0.267,0.9 0.3,1.3 0.033,0.534 -0.117,0.917 -0.45,1.15 -0.133,0.066 -0.333,0.15 -0.6,0.25 v -0.05 c 0.067,-0.033 0.133,-0.134 0.2,-0.3 0.033,-0.2 -0.017,-0.267 -0.15,-0.2 -0.267,0.166 -0.434,0.399 -0.5,0.7 -0.367,0.066 -0.633,0.133 -0.8,0.199 -0.4,0.101 -0.7,0.233 -0.9,0.4 -0.4,0.3 -0.3,0.65 0.3,1.05 l 0.1,0.101 c 0.434,0.199 0.817,0.366 1.15,0.5 -0.267,-0.101 -0.55,-0.217 -0.85,-0.351 0.233,0.134 0.667,0.4 1.3,0.8 0.467,0.301 0.9,0.7 1.3,1.2 -0.2,0.334 -0.434,0.767 -0.7,1.3 -0.133,0.301 -0.25,0.585 -0.35,0.851 -0.233,0.066 -0.45,0.1 -0.65,0.1 -0.033,-0.033 -0.083,-0.05 -0.15,-0.05 h -0.25 c -0.1,-0.033 -0.184,-0.066 -0.25,-0.1 L 24.55,32.6 v 0.051 L 24.5,32.6 c -0.033,-0.066 -0.083,-0.033 -0.15,0.101 -0.533,-0.033 -1.117,-0.134 -1.75,-0.3 0.267,-0.233 0.517,-0.517 0.75,-0.851 0.3,-0.366 0.467,-0.934 0.5,-1.7 0.033,-0.899 -0.267,-1.399 -0.9,-1.5 -0.633,-0.066 -1.233,0.051 -1.8,0.351 -0.6,0.366 -1,0.916 -1.2,1.649 -0.2,0.8 0.117,1.35 0.95,1.65 0.133,0.033 0.267,0.066 0.4,0.1 -0.267,0 -0.583,0.017 -0.95,0.051 -0.1,0.033 -0.2,0.05 -0.3,0.05 -0.433,-0.334 -0.816,-0.717 -1.15,-1.15 -0.1,-0.133 -0.2,-0.116 -0.3,0.05 -0.1,0.2 -0.1,0.367 0,0.5 0.233,0.301 0.5,0.567 0.8,0.801 -0.133,0.033 -0.25,0.083 -0.35,0.149 -0.433,0.233 -0.75,0.617 -0.95,1.15 0,0.233 0.033,0.366 0.1,0.399 0.533,0.167 1.117,0.117 1.75,-0.149 0.267,-0.101 0.583,-0.25 0.95,-0.45 0.467,0.267 0.967,0.483 1.5,0.65 0.133,0.066 0.733,0.3 1.8,0.699 -0.333,0.267 -0.7,0.551 -1.1,0.851 -0.133,0.1 -0.167,0.217 -0.1,0.35 0.067,0.134 0.15,0.134 0.25,0 0.567,-0.5 1,-0.866 1.3,-1.1 0.167,0.066 0.333,0.133 0.5,0.2 0.167,0.066 0.333,0.133 0.5,0.199 0.133,0.233 0.267,0.417 0.4,0.551 0.433,0.5 0.983,0.783 1.65,0.85 0.267,-0.3 0.35,-0.467 0.25,-0.5 -0.434,-0.066 -0.833,-0.233 -1.2,-0.5 0.367,0.1 0.7,0.184 1,0.25 0.1,0.033 0.167,-0.05 0.2,-0.25 0.066,-0.2 0.033,-0.316 -0.1,-0.35 -0.533,-0.101 -1.2,-0.301 -2,-0.601 -0.1,-0.2 -0.217,-0.416 -0.35,-0.649 0.133,-0.167 0.25,-0.334 0.35,-0.5 0.133,-0.167 0.3,-0.434 0.5,-0.801 0.067,-0.033 0.15,-0.083 0.25,-0.149 0.5,-0.267 0.95,-0.517 1.35,-0.75 0.533,1.066 0.733,2.066 0.6,3 -0.233,1.366 -0.7,2.25 -1.4,2.649 -1.1,0.634 -3.083,0.617 -5.95,-0.05 -2.367,-0.566 -5.017,-1.733 -7.95,-3.5 1.033,-0.533 1.15,-1.017 0.35,-1.45 -0.6,-0.233 -1.117,-0.533 -1.55,-0.899 -0.034,-0.033 -0.067,-0.066 -0.1,-0.101 0.167,0 0.283,-0.1 0.35,-0.3 0.033,-0.133 0.083,-0.217 0.15,-0.25 L 12.5,31 c 0.033,-0.033 0.033,-0.116 0,-0.25 v -0.1 h 0.3 l 0.5,-0.15 c 0.9,-0.3 1.467,-0.583 1.7,-0.85 l 1,-1.25 c 0.367,-0.367 0.733,-0.634 1.1,-0.801 l 0.5,-0.35 c 0.267,-0.167 0.433,-0.3 0.5,-0.4 0.167,-0.233 0.283,-0.666 0.35,-1.3 0,-1 -0.1,-1.767 -0.3,-2.3 -0.066,-0.167 -0.217,-0.366 -0.45,-0.6 L 16.6,21.6 c -0.333,-0.399 -0.733,-0.783 -1.2,-1.149 0.567,-0.133 1.233,-0.184 2,-0.15 0.533,0.034 1.35,0.117 2.45,0.25 0.1,0 0.217,0.017 0.35,0.05 0.066,0.033 0.117,0.05 0.15,0.05 0.133,0 0.433,0.15 0.9,0.45 0.067,-0.066 0.133,-0.133 0.2,-0.2 0.033,0 0.083,0.017 0.15,0.05 0.333,0.133 0.85,0.316 1.55,0.55 -0.133,0.134 -0.233,0.316 -0.3,0.55 0,0.2 0.05,0.3 0.15,0.3 0.133,0 0.233,-0.1 0.3,-0.3 0,-0.066 0.034,-0.116 0.1,-0.149 l 0.05,0.399 c 0,0.101 0.05,0.15 0.15,0.15 l 0.6,-0.101 c 0.233,0 0.283,0.217 0.15,0.65 -0.1,0.167 -0.083,0.283 0.05,0.35 0.133,0.034 0.233,-0.05 0.3,-0.25 0.333,-0.666 0.316,-1.1 -0.05,-1.3 -0.133,-0.066 -0.3,-0.083 -0.5,-0.05 l -0.3,0.1 V 21.7 c 0.167,0.033 0.316,0.017 0.45,-0.05 -0.1,0.033 -0.25,0 -0.45,-0.101 L 23.8,21.3 c -0.033,-0.066 -0.066,-0.1 -0.1,-0.1 -0.067,-0.033 -0.1,-0.033 -0.1,0 -0.1,0.033 -0.184,0.066 -0.25,0.1 -0.367,-0.2 -0.617,-0.35 -0.75,-0.45 L 20,19.5 c -0.133,-0.067 -0.283,-0.15 -0.45,-0.25 -0.1,-0.033 -0.2,-0.083 -0.3,-0.15 -0.3,-0.167 -0.683,-0.367 -1.15,-0.6 z m 16.35,-6.45 c -0.467,0.133 -0.733,0.217 -0.8,0.25 -0.3,0.167 -0.533,0.4 -0.7,0.7 0.267,0.033 0.55,-0.083 0.85,-0.35 0.067,-0.033 0.283,-0.233 0.65,-0.6 z m -0.8,-0.6 c 0,0.1 0.017,0.183 0.05,0.25 0.033,-0.067 0.066,-0.117 0.1,-0.15 0.034,0 0.067,0.017 0.1,0.05 -0.1,0.1 -0.167,0.2 -0.2,0.3 0.167,0 0.316,-0.033 0.45,-0.1 0.1,0.067 0.2,0.15 0.3,0.25 0.167,0.133 0.367,0.3 0.6,0.5 0.467,0.333 0.85,0.467 1.15,0.4 h 0.05 c -0.033,0.2 -0.017,0.383 0.05,0.55 0.101,0.2 0.233,0.517 0.4,0.95 0.133,-0.067 0.467,-0.167 1,-0.3 0.399,-0.1 0.733,-0.3 1,-0.6 0.366,-0.733 0.649,-1.283 0.85,-1.65 0.367,-0.7 0.75,-1.233 1.15,-1.6 C 40.733,10.133 40.75,10 40.75,9.9 40.783,9.667 40.767,9.533 40.7,9.5 L 38.45,8.95 38.05,9.3 35.9,8.15 34.7,8.6 C 34.766,8.367 34.75,8.1 34.65,7.8 34.35,8.234 34.233,8.55 34.3,8.75 h -0.05 c -0.033,-0.367 -0.367,-0.55 -1,-0.55 0.1,0.066 0.233,0.167 0.4,0.3 0.133,0.133 0.3,0.233 0.5,0.3 l -0.2,0.05 C 33.85,8.817 33.733,8.783 33.6,8.75 l 0.15,0.2 -0.3,0.1 C 33.317,9.084 33.2,9.117 33.1,9.15 L 33,8.95 c -0.6,0.333 -1.433,0.867 -2.5,1.6 L 32.6,9.5 C 32.5,9.567 32.45,9.683 32.45,9.85 L 30.4,10.6 v 0.05 l 0.1,-0.05 2,-0.5 c 0,0.1 0.033,0.2 0.1,0.3 l -2.2,0.25 h 2.35 c 0.067,0.133 0.167,0.25 0.3,0.35 0.1,0.1 0.2,0.183 0.3,0.25 -0.067,0.2 -0.184,0.467 -0.35,0.8 -0.1,0.3 -0.1,0.517 0,0.65 0.467,-0.367 0.6,-0.833 0.4,-1.4 0.067,0.033 0.15,0.083 0.25,0.15 z M 32.5,30.2 32.75,29.65 33.4,28.9 c 0.2,-0.301 0.417,-0.75 0.65,-1.351 0.267,-0.7 0.467,-1.166 0.6,-1.399 l 1.3,-2.7 c 0.633,-1.634 1.316,-2.9 2.05,-3.8 0.2,-0.233 0.366,-0.417 0.5,-0.55 0.2,-0.233 0.384,-0.35 0.55,-0.35 L 39.3,16.5 c 0.334,0.333 0.45,0.867 0.351,1.6 -0.067,0.6 -0.567,1.55 -1.5,2.85 -1.101,1.6 -1.917,3.149 -2.45,4.649 C 34.833,27.9 33.767,29.434 32.5,30.2 Z M 20.65,24.4 c 0.333,0.166 0.783,0.149 1.35,-0.051 0.1,0 0.183,-0.1 0.25,-0.3 0.1,-0.233 0.067,-0.3 -0.1,-0.2 -0.333,0.167 -0.65,0.217 -0.95,0.15 0.066,-0.066 0.15,-0.116 0.25,-0.15 0.133,-0.066 0.216,-0.166 0.25,-0.3 0.066,-0.2 0.033,-0.267 -0.1,-0.2 -0.434,0.134 -0.75,0.4 -0.95,0.801 z m 1.7,0.3 c 0.1,0.233 0.217,0.35 0.35,0.35 0.167,0 0.25,-0.116 0.25,-0.35 0.066,-0.233 0.017,-0.351 -0.15,-0.351 l -0.1,-0.1 c -0.067,-0.2 -0.167,-0.217 -0.3,-0.05 -0.133,0.134 -0.15,0.301 -0.05,0.501 z M 0,27.45 c 1.667,-1.334 3.267,-2.7 4.8,-4.101 l 1.25,2.75 c 0.267,0.601 0.4,0.983 0.4,1.15 0.066,0.267 0,0.5 -0.2,0.7 -0.267,0.3 -0.733,0.517 -1.4,0.649 C 3.717,27.965 2.567,27.581 1.4,27.449 H 0 Z M 11.85,34 c -0.133,-0.066 -0.25,-0.134 -0.35,-0.2 -0.367,-0.267 -0.7,-0.517 -1,-0.75 0.4,0.3 0.85,0.617 1.35,0.95 z M 33.55,7.6 c 0.167,-0.233 0,-0.45 -0.5,-0.65 0.067,0.367 0.233,0.583 0.5,0.65 z m -2.75,0.2 -0.5,2.8 0.8,-2.8 z m 1.3,0.25 C 31.4,8.984 30.817,9.834 30.35,10.6 31.117,9.6 31.8,8.8 32.4,8.2 Z M 31.65,7.85 H 31.5 C 30.933,9.05 30.55,9.967 30.35,10.6 30.717,9.8 31.2,8.9 31.8,7.9 Z m 0.9,3.95 -2.2,-1.1 1.95,1.45 c 0.133,-0.133 0.217,-0.25 0.25,-0.35 z m 0.35,-0.55 0.05,-0.2 -2.6,-0.35 2.45,0.7 z M 33.25,8 c 0.233,0.1 0.433,0.133 0.6,0.1 0,-0.133 -0.15,-0.233 -0.45,-0.3 -0.267,-0.066 -0.5,-0.066 -0.7,0 0.033,0 0.217,0.067 0.55,0.2 z m 1,-0.35 C 34.217,7.584 34.117,7.45 33.95,7.25 33.75,7.65 33.8,7.967 34.1,8.2 34.267,8 34.317,7.817 34.25,7.65 Z m -1.6,0.75 c -0.833,0.733 -1.566,1.434 -2.2,2.1 l -0.1,0.1 -0.05,0.05 0.1,-0.05 c 0.767,-0.7 1.567,-1.35 2.4,-1.95 z m -1.7,-1 C 30.883,7.267 30.733,7.167 30.5,7.1 30.233,7.033 30.017,7.05 29.85,7.15 c 0.2,0.133 0.567,0.217 1.1,0.25 z M 25.8,5.4 24.25,4.7 23.55,5.1 C 23.484,5.5 23.267,5.967 22.9,6.5 l -0.7,0.9 c -0.267,0.434 -0.333,0.833 -0.2,1.2 0.1,0.233 0.233,0.55 0.4,0.95 0.1,-0.033 0.434,-0.066 1,-0.1 C 23.767,9.416 24.084,9.266 24.35,9 24.517,8.867 24.8,8.417 25.2,7.65 25.633,6.95 26,6.533 26.3,6.4 26.4,5.967 26.417,5.717 26.35,5.65 26.117,5.55 25.933,5.467 25.8,5.4 Z m -3.55,0.9 c -0.2,0.267 -0.233,0.434 -0.1,0.5 0.167,0.067 0.333,0 0.5,-0.2 C 22.617,6.567 22.5,6.55 22.3,6.55 22.367,6.417 22.35,6.333 22.25,6.3 Z M 22.2,6.85 c -0.1,0.066 -0.167,0.1 -0.2,0.1 0,-0.2 -0.033,-0.3 -0.1,-0.3 -0.1,0.167 -0.133,0.3 -0.1,0.4 0,0.133 0.067,0.184 0.2,0.15 C 22.1,7.166 22.233,7.067 22.4,6.9 22.367,6.833 22.3,6.817 22.2,6.85 Z m 0,-0.15 C 22.4,6.6 22.516,6.567 22.55,6.6 22.45,6.733 22.334,6.783 22.2,6.75 22.1,6.683 22.117,6.567 22.25,6.4 22.317,6.467 22.3,6.567 22.2,6.7 Z m 0.35,-0.3 c 0.1,0.067 0.2,0.05 0.3,-0.05 -0.067,-0.067 -0.167,-0.067 -0.3,0 0.067,-0.067 0.1,-0.167 0.1,-0.3 -0.167,0.167 -0.2,0.283 -0.1,0.35 z M 21.9,9.95 V 9.8 L 21.7,10 Z M 29.6,7.6 c 0.133,-0.033 0.333,-0.083 0.6,-0.15 -0.434,-0.2 -0.85,-0.167 -1.25,0.1 0.2,0.067 0.417,0.083 0.65,0.05 z m -0.9,1.3 1.55,1.75 V 10.6 L 29,8.6 Z m 0,-0.55 V 8.3 c -0.667,0.167 -1.083,0.45 -1.25,0.85 0.3,-0.1 0.717,-0.367 1.25,-0.8 z m 0.95,-0.2 -0.3,0.2 0.9,2.25 -0.1,-0.5 L 30.1,9.95 29.65,8.2 Z M 27,11.75 c 0.1,-0.367 0.167,-0.633 0.2,-0.8 -0.2,0.2 -0.383,0.483 -0.55,0.85 -0.167,0.4 -0.183,0.65 -0.05,0.75 0.167,-0.2 0.3,-0.467 0.4,-0.8 z m -0.95,-0.7 c 0.034,0.3 0.167,0.5 0.4,0.6 0.167,-0.5 0.05,-0.983 -0.35,-1.45 0,0.2 -0.017,0.483 -0.05,0.85 z M 27.4,9.5 C 27.133,9.7 26.967,9.95 26.9,10.25 27.334,9.983 27.717,9.567 28.05,9 27.917,9.1 27.7,9.267 27.4,9.5 Z M 27.25,9.25 C 27.683,8.817 27.8,8.367 27.6,7.9 c -0.033,0.133 -0.15,0.383 -0.35,0.75 -0.133,0.333 -0.133,0.533 0,0.6 z m 0.9,-1 c 0.333,0 0.783,-0.167 1.35,-0.5 -0.6,-0.067 -1.05,0.1 -1.35,0.5 z M 27.95,8.3 C 28.383,8.1 28.6,7.683 28.6,7.05 28.067,7.65 27.85,8.067 27.95,8.3 Z m -0.5,3.65 2.8,-1.25 c 0,-0.034 -0.033,-0.034 -0.1,0 -0.033,0.033 -0.066,0.05 -0.1,0.05 l -2.6,0.85 z M 26.55,9.8 c -0.033,0.3 0.034,0.5 0.2,0.6 0.233,-0.433 0.233,-0.917 0,-1.45 -0.133,0.533 -0.2,0.817 -0.2,0.85 z m 0.95,1.35 2.65,-0.45 -2.55,0.05 z m 2.75,-0.45 -2.75,1.65 0.1,0.3 2.55,-1.8 H 30.2 V 10.8 Z m 0.05,-0.5 0.1,-2.3 -0.35,0.1 0.2,2.6 z m -2.45,-0.05 -0.1,0.2 2.45,0.3 -2.3,-0.7 z m 2.3,0.7 -0.1,0.1 V 11 l -1.9,2.5 0.25,0.2 1.65,-2.6 0.1,-0.2 z m 0.05,-0.2 -1.8,-1.4 -0.25,0.3 z m 0.05,0.5 -0.05,2.6 0.35,-0.15 -0.25,-2.85 z m -0.5,2.7 0.5,-3.1 -0.85,3.15 z m -3.9,0.45 c 0.667,0.5 1.183,0.583 1.55,0.25 -0.2,-0.233 -0.717,-0.317 -1.55,-0.25 z m 0.75,0.9 c 0.467,0.133 0.85,0.15 1.15,0.05 0.267,-0.1 0.433,-0.217 0.5,-0.35 -0.267,-0.1 -0.833,0 -1.7,0.3 z m -0.75,-2.8 c 0.1,0.267 0.3,0.4 0.6,0.4 0.066,-0.566 -0.184,-0.95 -0.75,-1.15 0.067,0.167 0.117,0.417 0.15,0.75 z M 25.6,13 c 0.167,0.367 0.3,0.583 0.4,0.65 0.2,0.233 0.467,0.3 0.8,0.2 C 26.7,13.417 26.3,13.133 25.6,13 Z m 1.2,0.65 c 0.2,-0.3 0.3,-0.6 0.3,-0.9 0,-0.3 0,-0.533 0,-0.7 -0.433,0.767 -0.533,1.3 -0.3,1.6 z m 0.65,-0.05 c -0.1,-0.233 -0.167,-0.434 -0.2,-0.6 -0.267,0.767 -0.217,1.233 0.15,1.4 0.133,-0.267 0.15,-0.533 0.05,-0.8 z m 1.75,1.7 c -0.2,-0.2 -0.434,-0.316 -0.7,-0.35 -0.033,0.4 0.35,0.7 1.15,0.9 H 29.7 C 29.5,15.583 29.333,15.4 29.2,15.3 Z M 30.35,15 c -0.3,-0.1 -0.583,-0.083 -0.85,0.05 0.067,0.233 0.3,0.367 0.7,0.4 0.3,0.033 0.617,0 0.95,-0.1 -0.333,-0.167 -0.6,-0.283 -0.8,-0.35 z M 30.3,14.2 c -0.267,0.167 -0.483,0.383 -0.65,0.65 0.533,0.033 0.983,-0.333 1.35,-1.1 -0.133,0.133 -0.367,0.283 -0.7,0.45 z m -0.35,0 c -0.3,0.1 -0.534,0.167 -0.7,0.2 -0.267,0.067 -0.467,0.217 -0.6,0.45 0.533,0.2 0.967,-0.017 1.3,-0.65 z m -1.7,0.55 c 0.033,-0.233 -0.017,-0.433 -0.15,-0.6 -0.2,-0.167 -0.333,-0.3 -0.4,-0.4 -0.167,0.7 0.017,1.033 0.55,1 z m -0.35,-1.5 2.15,-2.25 -2.3,2 z m -5.25,0.65 c -0.2,0.133 -0.383,0.417 -0.55,0.85 -0.067,0.167 -0.017,0.25 0.15,0.25 0.1,0 0.183,-0.117 0.25,-0.35 l 0.1,-0.2 c 0.167,-0.067 0.25,-0.2 0.25,-0.4 0,-0.1 -0.033,-0.15 -0.1,-0.15 -0.033,-0.033 -0.067,-0.033 -0.1,0 z m -1.6,-0.6 c -0.1,-0.133 -0.183,-0.167 -0.25,-0.1 -0.167,0.133 -0.333,0.233 -0.5,0.3 0.034,-0.033 0.083,-0.083 0.15,-0.15 0.133,-0.133 0.15,-0.3 0.05,-0.5 -0.1,-0.2 -0.217,-0.25 -0.35,-0.15 -0.267,0.267 -0.45,0.667 -0.55,1.2 0,0.233 0.083,0.383 0.25,0.45 0.2,0.033 0.433,0 0.7,-0.1 -0.066,0.333 0,0.5 0.2,0.5 0.367,0.1 0.8,0 1.3,-0.3 0.133,-0.067 0.167,-0.233 0.1,-0.5 -0.066,-0.267 -0.167,-0.35 -0.3,-0.25 -0.3,0.2 -0.55,0.316 -0.75,0.35 v -0.3 c 0.033,-0.167 0.017,-0.317 -0.05,-0.45 z m 4.5,12.35 c -0.167,0 -0.35,0.083 -0.55,0.25 -0.033,0.033 -0.067,0.066 -0.1,0.1 0.033,-0.1 0.033,-0.217 0,-0.35 -0.066,-0.233 -0.183,-0.334 -0.35,-0.301 L 24.2,25.4 c -0.034,-0.101 -0.067,-0.184 -0.1,-0.25 -0.1,-0.134 -0.217,-0.117 -0.35,0.05 -0.1,0.3 -0.15,0.467 -0.15,0.5 0,0.333 0.1,0.5 0.3,0.5 0.4,0 0.684,-0.033 0.85,-0.101 0.066,0 0.116,-0.017 0.15,-0.05 -0.032,0.033 0.051,0.05 0.25,0.05 0.167,0 0.35,-0.066 0.55,-0.199 0.2,-0.167 0.15,-0.25 -0.15,-0.25 z m -5.65,7.2 c 0.1,0.067 0.217,0.15 0.35,0.25 -0.233,0.067 -0.483,0.15 -0.75,0.25 -0.233,0.134 -0.367,0.184 -0.4,0.15 0,-0.066 0.083,-0.233 0.25,-0.5 0.133,-0.066 0.317,-0.116 0.55,-0.15 z M 36.25,14.9 36.2,14.75 36,15.05 Z m 0.35,0.4 c 0.034,-0.133 0.067,-0.233 0.101,-0.3 l -0.15,0.1 0.05,0.05 v 0.15 z m -0.8,-0.75 0.05,-0.2 c -0.065,0.097 -0.098,0.18 -0.1,0.25 0.002,-0.033 0.019,-0.05 0.05,-0.05 z M 32,13.7 c 0.233,-0.1 0.433,-0.333 0.6,-0.7 0.133,-0.333 0.2,-0.617 0.2,-0.85 -0.567,0.833 -0.833,1.35 -0.8,1.55 z m 1.45,-0.35 c 0.3,0 0.35,-0.033 0.15,-0.1 -0.8,0.067 -1.367,0.3 -1.7,0.7 0.467,0.1 0.983,-0.1 1.55,-0.6 z m -1.45,-0.8 -1.7,-1.8 1.4,2.05 z m -1.05,0.8 0.35,-0.2 -1,-2.4 0.55,2.1 v 0.05 l 0.1,0.4 z m 1.55,1.05 c -0.967,-0.066 -1.567,0.033 -1.8,0.3 0.467,0.367 1.067,0.267 1.8,-0.3 z m -1.65,0.1 c 0.267,-0.067 0.5,-0.25 0.7,-0.55 0.233,-0.267 0.367,-0.567 0.4,-0.9 -0.1,0.167 -0.3,0.367 -0.6,0.6 -0.267,0.233 -0.433,0.517 -0.5,0.85 z M 9.2,19.05 c 0.566,-0.6 1.117,-1.183 1.65,-1.75 0.233,0.534 0.566,1.034 1,1.5 -0.434,0.1 -0.717,0.15 -0.85,0.15 L 10.35,18.8 9.55,19 C 9.584,18.867 9.6,18.75 9.6,18.65 9.467,18.783 9.35,18.917 9.25,19.05 Z m 8.55,-3.75 c -0.067,0 -0.1,0.017 -0.1,0.05 -0.1,0.066 -0.233,0.117 -0.4,0.15 0.033,-0.133 0.1,-0.267 0.2,-0.4 0.133,-0.067 0.2,-0.2 0.2,-0.4 -0.033,-0.067 -0.083,-0.1 -0.15,-0.1 l -0.1,0.05 c -0.367,0.367 -0.566,0.783 -0.6,1.25 -0.066,0.133 -0.05,0.2 0.05,0.2 0.267,0 0.5,-0.05 0.7,-0.15 0.067,0.133 0.133,0.233 0.2,0.3 0.067,0.033 0.167,0.083 0.3,0.15 0.1,0.1 0.2,-0.083 0.3,-0.55 -0.1,-0.033 -0.184,-0.067 -0.25,-0.1 -0.1,-0.067 -0.184,-0.2 -0.25,-0.4 -0.033,-0.067 -0.067,-0.083 -0.1,-0.05 z m 0.95,-1.65 c 0.066,0.167 0.167,0.184 0.3,0.05 l 0.65,-0.95 c 0.167,-0.167 0.167,-0.333 0,-0.5 -0.133,-0.133 -0.25,-0.083 -0.35,0.15 -0.066,0.1 -0.25,0.35 -0.55,0.75 -0.1,0.233 -0.117,0.4 -0.05,0.5 z m 4.25,11.5 c 0.033,0.066 0.117,0.05 0.25,-0.051 0.1,-0.1 0.15,-0.199 0.15,-0.3 0.066,-0.2 0.033,-0.267 -0.1,-0.2 -0.133,0.067 -0.217,0.167 -0.25,0.301 z m -1.65,4.2 c 0.6,-0.366 1.167,-0.466 1.7,-0.3 0.467,1.267 0.45,2.033 -0.05,2.3 -0.133,0.167 -0.267,0.317 -0.4,0.45 0.034,-0.267 -0.017,-0.383 -0.15,-0.35 -0.6,0.3 -1.2,0.217 -1.8,-0.25 -0.333,-0.267 -0.333,-0.634 0,-1.101 0.433,-0.465 0.667,-0.715 0.7,-0.749 z m 2.6,4.25 c 0.3,0.034 0.517,0.034 0.65,0 0.1,0.134 0.2,0.317 0.3,0.551 -0.067,0.066 -0.117,0.133 -0.15,0.199 -1.3,-0.5 -2,-0.767 -2.1,-0.8 -0.367,-0.133 -0.7,-0.267 -1,-0.399 0.1,-0.067 0.2,-0.134 0.3,-0.2 0.3,0.1 0.65,0.233 1.05,0.399 0.267,0.1 0.583,0.183 0.95,0.25 z M 21,32.75 c -0.033,10e-4 -0.05,0.018 -0.05,0.05 -0.033,-0.032 -0.066,-0.049 -0.1,-0.05 z m 6.7,-1.1 c -0.2,0.133 -0.417,0.25 -0.65,0.35 -0.2,0.134 -0.383,0.25 -0.55,0.35 0.033,-0.1 0.083,-0.216 0.15,-0.35 0.2,-0.434 0.383,-0.8 0.55,-1.1 0.167,0.234 0.333,0.484 0.5,0.75 z"
   fill="#dfdac9"
   id="path970" />
	<path
   d="m 36.25,12.95 c 0,-0.233 0.066,-0.483 0.2,-0.75 l 0.7,-1.1 c 0.399,-0.8 0.616,-1.333 0.649,-1.6 l 0.25,-0.2 0.4,-0.35 2.251,0.55 c 0.066,0.033 0.083,0.167 0.05,0.4 0,0.1 -0.017,0.233 -0.05,0.4 -0.4,0.367 -0.783,0.9 -1.15,1.6 -0.2,0.367 -0.483,0.917 -0.85,1.65 -0.267,0.3 -0.601,0.5 -1,0.6 -0.533,0.133 -0.867,0.233 -1,0.3 -0.167,-0.434 -0.3,-0.75 -0.4,-0.95 -0.067,-0.167 -0.083,-0.35 -0.05,-0.55 z m 0.2,-1.3 c 0.1,-0.066 0.166,-0.066 0.2,0 -0.2,0.233 -0.334,0.35 -0.4,0.35 -0.3,0.133 -0.333,-0.033 -0.1,-0.5 0.066,-0.033 0.1,0 0.1,0.1 v 0.15 c 0.033,0 0.1,-0.033 0.2,-0.1 z m 0.3,-0.6 c 0.2,-0.1 0.316,-0.133 0.35,-0.1 -0.1,0.133 -0.199,0.183 -0.3,0.15 -0.033,0 -0.05,-0.017 -0.05,-0.05 z M 25.8,5.4 c 0.133,0.067 0.317,0.15 0.55,0.25 C 26.416,5.717 26.4,5.967 26.3,6.4 26,6.533 25.633,6.95 25.2,7.65 24.8,8.417 24.517,8.867 24.35,9 24.083,9.267 23.767,9.417 23.4,9.45 22.834,9.483 22.5,9.516 22.4,9.55 22.233,9.15 22.1,8.834 22,8.6 21.867,8.233 21.933,7.833 22.2,7.4 l 0.7,-0.9 c 0.367,-0.533 0.583,-1 0.65,-1.4 l 0.7,-0.4 z M 22.2,6.7 C 22.3,6.567 22.317,6.467 22.25,6.4 22.117,6.567 22.1,6.683 22.2,6.75 22.333,6.783 22.45,6.733 22.55,6.6 22.517,6.567 22.4,6.6 22.2,6.7 Z m 0,0.15 C 22.3,6.817 22.367,6.833 22.4,6.9 22.233,7.067 22.1,7.167 22,7.2 21.867,7.233 21.8,7.183 21.8,7.05 c -0.033,-0.1 0,-0.233 0.1,-0.4 0.067,0 0.1,0.1 0.1,0.3 0.033,0 0.1,-0.033 0.2,-0.1 z M 22.25,6.3 c 0.1,0.034 0.117,0.117 0.05,0.25 0.2,0 0.317,0.017 0.35,0.05 -0.167,0.2 -0.333,0.267 -0.5,0.2 -0.133,-0.067 -0.1,-0.233 0.1,-0.5 z M 21.9,9.95 21.7,10 21.9,9.8 Z M 22.55,6.4 c -0.1,-0.066 -0.066,-0.183 0.1,-0.35 0,0.133 -0.033,0.233 -0.1,0.3 0.133,-0.067 0.233,-0.067 0.3,0 -0.1,0.1 -0.2,0.117 -0.3,0.05 z m 13.25,8.15 c -0.031,0 -0.048,0.017 -0.05,0.05 0.002,-0.07 0.035,-0.153 0.1,-0.25 z m 0.8,0.75 V 15.15 L 36.55,15.1 36.7,15 c -0.033,0.067 -0.066,0.167 -0.1,0.3 z m -0.35,-0.4 -0.25,0.15 0.2,-0.3 z"
   fill="#8f9c60"
   id="path972" />
	<path
   d="M 43.95,9.6 C 44.616,8.133 45.4,7.05 46.3,6.35 V 6.3 l 0.95,-0.2 c -0.434,0.667 -1.233,2.066 -2.4,4.2 -1.5,2.733 -3.6,6.667 -6.3,11.8 -3.833,7.267 -7.633,13.051 -11.4,17.351 l -4.35,-0.5 c -1.4,-0.267 -2.767,-0.667 -4.1,-1.2 -2.034,-0.767 -4.167,-1.9 -6.4,-3.4 -0.066,-0.033 -0.117,-0.066 -0.15,-0.1 L 11.85,34 C 11.35,33.667 10.9,33.35 10.5,33.05 L 7.85,31.2 C 7.783,31.167 7.733,31.134 7.7,31.1 7.666,31.1 7.633,31.083 7.6,31.05 6.933,30.583 6.35,30.2 5.85,29.9 5.45,29.667 5.067,29.433 4.7,29.2 4.133,28.9 3.583,28.634 3.05,28.4 2.017,27.934 1,27.616 0,27.45 h 1.4 c 1.167,0.133 2.317,0.517 3.45,1.149 0.3,0.167 0.833,0.5 1.6,1 -0.033,0.101 -0.017,0.217 0.05,0.351 0.167,0.366 0.4,0.616 0.7,0.75 0.267,0.166 0.533,0.2 0.8,0.1 0.033,0 0.083,-0.017 0.15,-0.05 0.033,0.033 0.067,0.066 0.1,0.1 H 8.3 c 0,0.034 0.034,0.067 0.1,0.101 0.167,0.1 0.35,0.217 0.55,0.35 0.133,0.101 0.267,0.2 0.4,0.3 l 2.9,1.9 c 0.3,0.167 0.567,0.333 0.8,0.5 0.034,0 0.067,0.017 0.1,0.05 2.934,1.767 5.583,2.934 7.95,3.5 2.867,0.667 4.85,0.684 5.95,0.05 0.7,-0.399 1.167,-1.283 1.4,-2.649 0.133,-0.934 -0.067,-1.934 -0.6,-3 0.767,-0.5 1.35,-0.934 1.75,-1.3 0.767,0.199 1.283,0.267 1.55,0.199 0.6,-0.233 1.05,-0.449 1.35,-0.649 1.267,-0.767 2.333,-2.3 3.2,-4.601 0.533,-1.5 1.35,-3.05 2.45,-4.649 0.933,-1.3 1.433,-2.25 1.5,-2.85 0.1,-0.733 -0.017,-1.267 -0.351,-1.6 L 38.9,16.15 C 38.866,16.117 38.5,15.967 37.799,15.7 l -1.35,-0.35 0.151,-0.05 1.2,-0.35 c 1,-0.3 1.717,-0.434 2.15,-0.4 0.767,0.034 1.333,-0.083 1.7,-0.35 0.733,-0.467 1.333,-1.517 1.8,-3.15 l 0.35,-1.1 z m -14.7,20.95 c -0.467,0.4 -0.983,0.767 -1.55,1.101 -0.167,-0.267 -0.333,-0.517 -0.5,-0.75 0.133,-0.267 0.25,-0.483 0.35,-0.65 0.1,-0.134 0.1,-0.233 0,-0.3 -0.133,-0.066 -0.233,-0.05 -0.3,0.05 -0.1,0.134 -0.2,0.316 -0.3,0.55 -0.4,-0.5 -0.833,-0.899 -1.3,-1.2 -0.633,-0.399 -1.066,-0.666 -1.3,-0.8 0.3,0.134 0.583,0.25 0.85,0.351 l 2.2,0.949 0.05,0.051 h 0.05 c 0.667,0.265 1.25,0.482 1.75,0.648 z"
   fill="#f4eedc"
   id="path974" />
		<linearGradient
   id="a"
   x1="-43.814999"
   x2="6.0981002"
   y1="-34.254002"
   y2="-34.254002"
   gradientTransform="matrix(-0.9606,0.278,-0.2659,-0.9641,-6.5091e-4,4.0084e-4)"
   gradientUnits="userSpaceOnUse">
		<stop
   stop-opacity=".298"
   offset="0"
   id="stop976" />
		<stop
   stop-opacity=".298"
   offset=".8588"
   id="stop978" />
		<stop
   stop-opacity=".298"
   offset="1"
   id="stop980" />
	</linearGradient>
	<path
   d="m 10.5,33.05 c 0.3,0.233 0.633,0.483 1,0.75 0.1,0.066 0.217,0.134 0.35,0.2 l 0.3,0.25 c 0.033,0.033 0.083,0.066 0.15,0.1 2.233,1.5 4.367,2.634 6.4,3.4 1.333,0.533 2.7,0.934 4.1,1.2 l 4.35,0.5 c 3.767,-4.3 7.567,-10.084 11.4,-17.351 2.7,-5.133 4.8,-9.066 6.3,-11.8 1.134,-0.066 2.233,-0.233 3.301,-0.5 -2.034,3.034 -5.034,7.85 -9,14.45 -3.867,6.1 -7.767,11.384 -11.7,15.85 C 22.117,39.9 17.333,38.7 13.1,36.5 8.067,33.9 4.533,32.4 2.5,32 3.267,31.033 4,30.1 4.7,29.2 c 0.367,0.233 0.75,0.467 1.15,0.7 0.5,0.3 1.083,0.683 1.75,1.149 0.033,0.033 0.066,0.05 0.1,0.05 0.033,0.034 0.083,0.067 0.15,0.101 z"
   fill="url(#a)"
   id="path983"
   style="fill:url(#a)" />
	<path
   d="m 27.7,31.65 c 0.566,-0.334 1.083,-0.7 1.55,-1.101 l 0.3,-0.3 c 0.133,-0.1 0.2,-0.083 0.2,0.05 0,0.101 -0.05,0.2 -0.15,0.3 v 0.051 c -0.4,0.366 -0.983,0.8 -1.75,1.3 -0.4,0.233 -0.85,0.483 -1.35,0.75 -0.1,0.066 -0.183,0.116 -0.25,0.149 -0.2,0.367 -0.367,0.634 -0.5,0.801 -0.1,0.166 -0.217,0.333 -0.35,0.5 0.133,0.233 0.25,0.449 0.35,0.649 0.8,0.3 1.467,0.5 2,0.601 0.133,0.033 0.167,0.149 0.1,0.35 -0.033,0.2 -0.1,0.283 -0.2,0.25 -0.3,-0.066 -0.633,-0.15 -1,-0.25 0.367,0.267 0.767,0.434 1.2,0.5 0.1,0.033 0.017,0.2 -0.25,0.5 -0.667,-0.066 -1.217,-0.35 -1.65,-0.85 -0.133,-0.134 -0.267,-0.317 -0.4,-0.551 -0.167,-0.066 -0.333,-0.133 -0.5,-0.199 -0.167,-0.067 -0.333,-0.134 -0.5,-0.2 -0.3,0.233 -0.733,0.6 -1.3,1.1 -0.1,0.134 -0.183,0.134 -0.25,0 -0.067,-0.133 -0.033,-0.25 0.1,-0.35 0.4,-0.3 0.767,-0.584 1.1,-0.851 -1.067,-0.399 -1.667,-0.633 -1.8,-0.699 -0.533,-0.167 -1.033,-0.384 -1.5,-0.65 -0.367,0.2 -0.683,0.35 -0.95,0.45 -0.633,0.267 -1.217,0.316 -1.75,0.149 -0.067,-0.033 -0.1,-0.166 -0.1,-0.399 0.2,-0.533 0.517,-0.917 0.95,-1.15 0.1,-0.066 0.217,-0.116 0.35,-0.149 -0.3,-0.233 -0.566,-0.5 -0.8,-0.801 -0.1,-0.133 -0.1,-0.3 0,-0.5 0.1,-0.166 0.2,-0.183 0.3,-0.05 0.333,0.434 0.717,0.816 1.15,1.15 0.1,0 0.2,-0.017 0.3,-0.05 0.367,-0.034 0.683,-0.051 0.95,-0.051 -0.133,-0.033 -0.267,-0.066 -0.4,-0.1 -0.833,-0.3 -1.15,-0.85 -0.95,-1.65 0.2,-0.733 0.6,-1.283 1.2,-1.649 0.567,-0.3 1.167,-0.417 1.8,-0.351 0.633,0.101 0.933,0.601 0.9,1.5 -0.033,0.767 -0.2,1.334 -0.5,1.7 -0.233,0.334 -0.483,0.617 -0.75,0.851 0.633,0.166 1.217,0.267 1.75,0.3 0.066,-0.134 0.117,-0.167 0.15,-0.101 l 0.05,0.051 V 32.6 l 0.05,0.051 c 0.066,0.033 0.15,0.066 0.25,0.1 h 0.25 c 0.066,0 0.117,0.017 0.15,0.05 0.2,0 0.417,-0.033 0.65,-0.1 0.1,-0.267 0.217,-0.55 0.35,-0.851 0.267,-0.533 0.5,-0.966 0.7,-1.3 0.1,-0.233 0.2,-0.416 0.3,-0.55 0.067,-0.1 0.167,-0.116 0.3,-0.05 0.1,0.066 0.1,0.166 0,0.3 -0.1,0.167 -0.216,0.384 -0.35,0.65 -0.167,0.3 -0.35,0.666 -0.55,1.1 -0.066,0.134 -0.117,0.25 -0.15,0.35 0.167,-0.1 0.35,-0.216 0.55,-0.35 0.233,-0.1 0.45,-0.217 0.65,-0.35 z m -19.25,-1 c 0.066,-0.067 0.133,-0.117 0.2,-0.15 0.167,-0.134 0.4,-0.2 0.7,-0.2 0.133,0.033 0.25,0.15 0.35,0.351 0.1,0.166 0.2,0.3 0.3,0.399 C 9.9,31.083 9.783,31.116 9.65,31.151 9.383,31.283 9.167,31.333 9,31.3 H 8.95 C 8.75,31.167 8.567,31.05 8.4,30.95 8.367,30.884 8.334,30.816 8.3,30.75 Z M 33.55,7.6 c -0.267,-0.067 -0.433,-0.283 -0.5,-0.65 0.5,0.2 0.667,0.417 0.5,0.65 z M 32.6,9.5 30.5,10.55 C 31.567,9.817 32.4,9.283 33,8.95 l 0.1,0.2 V 9.2 Z M 32.45,9.85 33.2,9.55 V 9.9 l -0.7,0.2 -2,0.5 -0.1,0.05 V 10.6 Z m 0.15,0.55 0.55,-0.1 -0.05,0.35 h -2.7 z m 0.3,0.85 -0.1,0.15 -2.45,-0.7 2.6,0.35 z m -0.35,0.55 c -0.033,0.1 -0.117,0.217 -0.25,0.35 L 30.35,10.7 Z M 31.65,7.85 31.8,7.9 c -0.6,1 -1.083,1.9 -1.45,2.7 0.2,-0.633 0.583,-1.55 1.15,-2.75 z m 0.45,0.2 0.3,0.15 C 31.8,8.8 31.117,9.6 30.35,10.6 30.817,9.833 31.4,8.983 32.1,8.05 Z M 30.8,7.8 h 0.3 l -0.8,2.8 z m 2.55,3.45 V 11.2 c 10e-4,0.034 0.018,0.067 0.05,0.1 0.2,0.567 0.067,1.034 -0.4,1.4 -0.1,-0.133 -0.1,-0.35 0,-0.65 0.167,-0.333 0.283,-0.6 0.35,-0.8 z m 0.3,0.2 c -0.066,-0.267 -0.05,-0.667 0.05,-1.2 0.233,0.5 0.267,0.933 0.1,1.3 -0.033,0.034 -0.066,0.083 -0.1,0.15 -0.033,-0.067 -0.05,-0.15 -0.05,-0.25 z m 0.25,0.15 c 0.2,-0.3 0.567,-0.583 1.1,-0.85 -0.267,0.533 -0.55,0.883 -0.85,1.05 -0.133,0.067 -0.283,0.1 -0.45,0.1 0.033,-0.1 0.1,-0.2 0.2,-0.3 z m 0.55,0.45 c -0.367,0.367 -0.583,0.567 -0.65,0.6 -0.3,0.267 -0.583,0.383 -0.85,0.35 0.167,-0.3 0.4,-0.533 0.7,-0.7 0.067,-0.033 0.333,-0.117 0.8,-0.25 z m 0.6,-3.4 c 0.034,0.167 0,0.367 -0.1,0.6 C 34.85,9.517 34.7,9.7 34.5,9.8 34.4,9.667 34.417,9.467 34.55,9.2 34.683,8.967 34.85,8.783 35.05,8.65 Z M 34.7,8.6 C 34.633,8.7 34.55,8.8 34.45,8.9 34.383,8.867 34.333,8.817 34.3,8.75 34.234,8.55 34.35,8.233 34.65,7.8 c 0.1,0.3 0.117,0.567 0.05,0.8 z M 34.25,8.75 V 8.8 h -0.1 c -0.2,-0.066 -0.367,-0.167 -0.5,-0.3 -0.167,-0.133 -0.3,-0.233 -0.4,-0.3 0.633,0 0.967,0.183 1,0.55 z m -0.3,0.1 c 0.333,0.167 0.466,0.433 0.4,0.8 C 34.183,9.584 34.033,9.45 33.9,9.25 L 33.75,8.95 33.6,8.75 c 0.133,0.033 0.25,0.067 0.35,0.1 z M 33.25,8 C 32.917,7.867 32.733,7.8 32.7,7.8 c 0.2,-0.066 0.433,-0.066 0.7,0 0.3,0.067 0.45,0.167 0.45,0.3 -0.167,0.033 -0.367,0 -0.6,-0.1 z m 1,-0.35 C 34.317,7.817 34.267,8 34.1,8.2 33.8,7.967 33.75,7.65 33.95,7.25 c 0.167,0.2 0.267,0.333 0.3,0.4 z m -1.6,0.75 0.15,0.25 c -0.833,0.6 -1.633,1.25 -2.4,1.95 l -0.1,0.05 0.05,-0.05 0.1,-0.1 c 0.633,-0.667 1.367,-1.367 2.2,-2.1 z m -1.7,-1 c -0.534,-0.033 -0.9,-0.117 -1.1,-0.25 0.167,-0.1 0.383,-0.117 0.65,-0.05 0.233,0.067 0.383,0.167 0.45,0.3 z m 3.3,3.4 c 0,-0.3 0.317,-0.683 0.95,-1.15 -0.233,0.733 -0.55,1.117 -0.95,1.15 z M 34.2,10.6 c -0.167,-0.1 -0.267,-0.283 -0.3,-0.55 l -0.15,-0.6 c 0.233,0.2 0.383,0.35 0.45,0.45 0.1,0.2 0.1,0.433 0,0.7 z m -4.6,-3 c -0.233,0.033 -0.45,0.017 -0.65,-0.05 0.4,-0.267 0.816,-0.3 1.25,-0.1 -0.267,0.067 -0.467,0.117 -0.6,0.15 z m -0.9,1.3 0.3,-0.3 1.25,2 v 0.05 z m 0,-0.55 c -0.534,0.433 -0.95,0.7 -1.25,0.8 0.167,-0.4 0.583,-0.683 1.25,-0.85 z m 0.95,-0.2 V 8.2 l 0.45,1.75 0.05,0.15 0.1,0.5 -0.9,-2.25 z m -1.7,0.15 c -0.1,-0.233 0.117,-0.65 0.65,-1.25 0,0.633 -0.217,1.05 -0.65,1.25 z m 0.2,-0.05 c 0.3,-0.4 0.75,-0.567 1.35,-0.5 -0.567,0.333 -1.017,0.5 -1.35,0.5 z m -0.9,1 c -0.133,-0.067 -0.133,-0.267 0,-0.6 0.2,-0.367 0.317,-0.617 0.35,-0.75 0.2,0.467 0.083,0.917 -0.35,1.35 z M 27.4,9.5 C 27.7,9.267 27.917,9.1 28.05,9 27.717,9.567 27.334,9.983 26.9,10.25 26.967,9.95 27.133,9.7 27.4,9.5 Z m -1.35,1.55 c 0.034,-0.367 0.05,-0.65 0.05,-0.85 0.4,0.466 0.517,0.95 0.35,1.45 -0.233,-0.1 -0.367,-0.3 -0.4,-0.6 z m 0.95,0.7 c -0.1,0.333 -0.233,0.6 -0.4,0.8 -0.133,-0.1 -0.117,-0.35 0.05,-0.75 0.167,-0.367 0.35,-0.65 0.55,-0.85 -0.033,0.167 -0.1,0.433 -0.2,0.8 z m 0.45,0.2 V 11.6 l 2.6,-0.85 c 0.034,0 0.067,-0.017 0.1,-0.05 0.067,-0.034 0.1,-0.034 0.1,0 z M 26.55,9.8 c 0,-0.033 0.067,-0.316 0.2,-0.85 0.233,0.533 0.233,1.017 0,1.45 -0.167,-0.1 -0.233,-0.3 -0.2,-0.6 z m 3.2,4.05 -0.35,0.05 0.85,-3.15 z m 0.5,-2.7 0.05,-0.4 0.25,2.85 -0.35,0.15 z m -0.05,-0.5 -2.05,-1.1 0.25,-0.3 z m -0.05,0.2 v 0.05 l -0.1,0.2 -1.65,2.6 -0.25,-0.2 1.9,-2.5 v -0.05 z m -2.3,-0.7 0.05,-0.2 2.3,0.7 -2.45,-0.3 z M 30.3,10.2 30.25,10.6 30.05,8 30.4,7.9 Z m -0.05,0.5 -0.05,0.1 v 0.05 h -0.05 l -2.55,1.8 -0.1,-0.3 z m -2.75,0.45 0.1,-0.4 2.55,-0.05 z m 0.75,3.6 c -0.533,0.033 -0.717,-0.3 -0.55,-1 0.066,0.1 0.2,0.233 0.4,0.4 0.133,0.167 0.183,0.367 0.15,0.6 z m 1.7,-0.55 c -0.333,0.633 -0.767,0.85 -1.3,0.65 0.133,-0.233 0.333,-0.383 0.6,-0.45 0.167,-0.033 0.4,-0.1 0.7,-0.2 z m 0.35,0 c 0.333,-0.167 0.567,-0.317 0.7,-0.45 -0.367,0.767 -0.817,1.133 -1.35,1.1 0.167,-0.267 0.383,-0.483 0.65,-0.65 z m 0.05,0.8 c 0.2,0.067 0.467,0.183 0.8,0.35 -0.333,0.1 -0.65,0.133 -0.95,0.1 -0.4,-0.034 -0.633,-0.167 -0.7,-0.4 0.267,-0.133 0.55,-0.15 0.85,-0.05 z m -1.15,0.3 c 0.133,0.1 0.3,0.284 0.5,0.55 h -0.05 c -0.8,-0.2 -1.183,-0.5 -1.15,-0.9 0.267,0.033 0.5,0.15 0.7,0.35 z m -1.75,-1.7 c 0.1,0.267 0.083,0.533 -0.05,0.8 -0.367,-0.167 -0.417,-0.633 -0.15,-1.4 0.033,0.167 0.1,0.367 0.2,0.6 z m -0.65,0.05 c -0.233,-0.3 -0.133,-0.833 0.3,-1.6 v 0.7 c 0,0 -0.1,0.6 -0.3,0.9 z M 25.6,13 c 0.7,0.133 1.1,0.417 1.2,0.85 -0.333,0.1 -0.6,0.033 -0.8,-0.2 C 25.9,13.583 25.767,13.367 25.6,13 Z m 0.25,-0.6 c -0.033,-0.333 -0.083,-0.583 -0.15,-0.75 0.566,0.2 0.816,0.583 0.75,1.15 -0.3,0 -0.5,-0.133 -0.6,-0.4 z m 0.75,2.8 h -0.05 c 0.867,-0.3 1.434,-0.4 1.7,-0.3 -0.067,0.133 -0.233,0.25 -0.5,0.35 -0.3,0.1 -0.683,0.083 -1.15,-0.05 z m -0.75,-0.9 c 0.833,-0.066 1.35,0.017 1.55,0.25 -0.367,0.333 -0.883,0.25 -1.55,-0.25 z m 1.75,3 c -0.067,-0.033 -0.083,-0.1 -0.05,-0.2 l 0.05,-0.15 0.35,-0.45 c 0.1,-0.167 0.2,-0.217 0.3,-0.15 0.067,0.066 0.05,0.183 -0.05,0.35 l -0.35,0.45 c -0.133,0.133 -0.217,0.183 -0.25,0.15 z m -1.2,-1.6 c 0,0.1 -0.083,0.216 -0.25,0.35 -0.033,0.034 -0.183,0.133 -0.45,0.3 -0.133,0.066 -0.233,0.15 -0.3,0.25 0.233,0.233 0.517,0.383 0.85,0.45 0.133,0.034 0.433,0.05 0.9,0.05 0.167,0 0.117,0.183 -0.15,0.55 -0.567,0 -0.9,-0.017 -1,-0.05 H 25.95 C 25.55,17.5 25.2,17.283 24.9,16.95 v -0.3 c 0.133,-0.267 0.317,-0.5 0.55,-0.7 0.1,-0.034 0.2,-0.067 0.3,-0.1 l -0.1,-0.1 c -0.2,-0.2 -0.333,-0.317 -0.4,-0.35 -0.067,-0.066 -0.05,-0.183 0.05,-0.35 0.1,-0.2 0.184,-0.267 0.25,-0.2 0.1,0.066 0.333,0.283 0.7,0.65 l 0.05,0.05 c 0.033,0.033 0.067,0.083 0.1,0.15 z m 3.8,2.85 c -0.167,-0.133 -0.184,-0.3 -0.05,-0.5 0.067,-0.167 0.217,-0.367 0.45,-0.6 0.133,-0.133 0.25,-0.1 0.35,0.1 0.1,0.2 0.083,0.367 -0.05,0.5 l -0.4,0.5 c -0.067,0.167 -0.167,0.167 -0.3,0 z M 28.8,16.9 c 0.034,-0.033 0.067,-0.033 0.1,0 0.033,0 0.067,0.017 0.1,0.05 0,0.033 0.017,0.066 0.05,0.1 0,0.034 0.017,0.067 0.05,0.1 0.033,-0.167 0.1,-0.25 0.2,-0.25 0.167,0 0.217,0.117 0.15,0.35 v 0.1 c 0,0.167 -0.067,0.283 -0.2,0.35 C 29.083,17.8 29,17.75 29,17.55 l 0.05,-0.15 c -0.033,0.033 -0.066,0.067 -0.1,0.1 -0.233,0.233 -0.45,0.317 -0.65,0.25 -0.1,-0.033 -0.133,-0.133 -0.1,-0.3 0.033,-0.133 0.066,-0.217 0.1,-0.25 0.167,-0.167 0.333,-0.267 0.5,-0.3 z m 3.85,5.3 c 0,0.066 -0.017,0.149 -0.05,0.25 -0.1,0.434 -0.25,0.684 -0.45,0.75 -0.2,0.066 -0.4,-0.117 -0.6,-0.55 L 31.4,22.7 c -0.1,0 -0.167,-0.033 -0.2,-0.101 -0.1,-0.3 -0.133,-0.583 -0.1,-0.85 V 21.7 c 0.033,-0.134 0.117,-0.217 0.25,-0.25 0.133,-0.033 0.183,0.066 0.15,0.3 l 0.05,0.15 V 22 l 0.1,-0.05 c 0.067,0.033 0.133,0.05 0.2,0.05 v 0.05 c 0.167,0.434 0.283,0.55 0.35,0.351 0,-0.134 0.033,-0.217 0.1,-0.25 0.034,-0.034 0.083,-0.051 0.15,-0.051 0.1,0 0.167,0.034 0.2,0.1 z M 30.15,21 c 0.167,-0.067 0.333,-0.017 0.5,0.15 0.1,0.1 0.15,0.233 0.15,0.399 0,0.033 -0.017,0.084 -0.05,0.15 -0.033,0.066 -0.067,0.116 -0.1,0.149 h 0.05 c 0.133,0.067 0.2,0.217 0.2,0.45 -0.033,0.2 -0.133,0.3 -0.3,0.3 -0.167,0 -0.317,-0.1 -0.45,-0.3 -0.066,-0.066 -0.1,-0.133 -0.1,-0.2 H 30 c -0.133,0 -0.2,-0.133 -0.2,-0.399 0.034,-0.101 0.067,-0.167 0.1,-0.2 0.033,-0.266 0.117,-0.433 0.25,-0.499 z m 4.3,-1.55 c -0.133,0.1 -0.217,0.083 -0.25,-0.05 0,-0.033 0.066,-0.183 0.2,-0.45 l -0.15,0.25 0.05,-0.1 c 0.067,-0.2 0.15,-0.3 0.25,-0.3 0.167,0 0.217,0.1 0.15,0.3 -0.067,0.167 -0.15,0.283 -0.25,0.35 z m -1.65,-1.6 c 0,0.133 -0.05,0.25 -0.15,0.35 0.067,-0.034 0.133,0.033 0.2,0.2 0,0.033 0.017,0.067 0.05,0.1 0.033,-0.133 0.1,-0.233 0.2,-0.3 0.167,-0.067 0.267,0.017 0.3,0.25 0,0.167 -0.033,0.283 -0.1,0.35 0.2,-0.1 0.35,-0.15 0.45,-0.15 0.267,0 0.117,0.117 -0.45,0.35 -0.033,0.067 -0.083,0.133 -0.15,0.2 -0.167,0.1 -0.267,0.05 -0.3,-0.15 v -0.1 L 32.8,19 c -0.2,0.267 -0.45,0.4 -0.75,0.4 -0.167,0 -0.267,-0.15 -0.3,-0.45 -0.033,-0.267 0.017,-0.417 0.15,-0.45 0.133,-0.267 0.3,-0.5 0.5,-0.7 0.033,-0.066 0.083,-0.117 0.15,-0.15 0.167,0 0.25,0.033 0.25,0.1 z m -9.05,-2.4 -0.3,0.45 C 23.317,16.1 23.2,16.117 23.1,15.95 23,15.85 22.967,15.733 23,15.6 c 0,-0.067 0.017,-0.117 0.05,-0.15 -0.1,0 -0.183,-0.083 -0.25,-0.25 -0.133,-0.233 -0.133,-0.417 0,-0.55 l 0.6,-0.6 c 0.133,-0.133 0.25,-0.1 0.35,0.1 0.133,0.267 0.133,0.45 0,0.55 0,0.033 0.017,0.066 0.05,0.1 0.1,0.2 0.1,0.383 0,0.55 z m 4.15,-2.2 -0.15,-0.25 2.3,-2 z m -6.5,3.5 c 0.067,0 0.15,0.017 0.25,0.05 l 0.15,0.25 c 0.067,0.2 0.1,0.4 0.1,0.6 0,0.102 -0.017,0.218 -0.05,0.35 0,0.267 -0.083,0.367 -0.25,0.3 -0.167,-0.066 -0.25,-0.216 -0.25,-0.45 v -0.3 c -0.1,0 -0.2,0.117 -0.3,0.35 -0.033,0.133 -0.1,0.184 -0.2,0.15 -0.133,-0.033 -0.217,-0.167 -0.25,-0.4 v 0.05 c -0.067,0.233 -0.167,0.333 -0.3,0.3 -0.066,0 -0.117,-0.05 -0.15,-0.15 -0.066,-0.1 -0.083,-0.2 -0.05,-0.3 0.066,-0.6 0.25,-0.9 0.55,-0.9 0.133,0 0.233,0.1 0.3,0.3 0.133,-0.167 0.283,-0.233 0.45,-0.2 z M 21.05,13.3 c 0.067,0.133 0.083,0.284 0.05,0.45 v 0.3 c 0.2,-0.033 0.45,-0.15 0.75,-0.35 0.133,-0.1 0.233,-0.017 0.3,0.25 0.067,0.267 0.033,0.433 -0.1,0.5 -0.5,0.3 -0.933,0.4 -1.3,0.3 -0.2,0 -0.267,-0.167 -0.2,-0.5 -0.267,0.1 -0.5,0.133 -0.7,0.1 -0.167,-0.067 -0.25,-0.217 -0.25,-0.45 0.1,-0.533 0.283,-0.933 0.55,-1.2 0.133,-0.1 0.25,-0.05 0.35,0.15 0.1,0.2 0.083,0.367 -0.05,0.5 -0.067,0.066 -0.117,0.117 -0.15,0.15 0.167,-0.067 0.333,-0.167 0.5,-0.3 0.067,-0.067 0.15,-0.033 0.25,0.1 z m 1.6,0.6 c 0.033,-0.033 0.067,-0.033 0.1,0 0.067,0 0.1,0.05 0.1,0.15 0,0.2 -0.083,0.333 -0.25,0.4 l -0.1,0.2 C 22.433,14.883 22.35,15 22.25,15 c -0.167,0 -0.217,-0.083 -0.15,-0.25 0.167,-0.433 0.35,-0.717 0.55,-0.85 z m 0.75,5.35 c -0.066,0.033 -0.117,0.083 -0.15,0.15 -0.6,-0.1 -1.017,-0.417 -1.25,-0.95 -0.133,-0.3 -0.15,-0.534 -0.05,-0.7 0,-0.033 0.017,-0.067 0.05,-0.1 0.1,-0.167 0.25,-0.267 0.45,-0.3 0.1,-0.1 0.15,-0.067 0.15,0.1 l 0.15,0.6 c 0.033,0.1 0.017,0.2 -0.05,0.3 v 0.05 c 0.233,0.233 0.466,0.367 0.7,0.4 0.033,0 0.067,0.017 0.1,0.05 V 18.8 c 0,-0.367 0.133,-0.583 0.4,-0.65 0.133,-0.066 0.25,0 0.35,0.2 0.167,-0.067 0.267,0.05 0.3,0.35 0.1,0.433 0.067,0.767 -0.1,1 -0.133,0.2 -0.333,0.183 -0.6,-0.05 -0.2,-0.2 -0.317,-0.433 -0.35,-0.7 0,0.067 -0.033,0.167 -0.1,0.3 z m 2.2,2.7 c 0.2,-0.066 0.383,0.066 0.55,0.399 0.033,0.067 0.017,0.167 -0.05,0.301 0,0.033 -0.017,0.05 -0.05,0.05 -0.133,0.166 -0.267,0.267 -0.4,0.3 0.1,0.233 0.283,0.35 0.55,0.35 0.066,0 0.1,0.051 0.1,0.15 0,0.066 -0.017,0.116 -0.05,0.15 -0.067,0.166 -0.167,0.25 -0.3,0.25 -0.367,0 -0.6,-0.167 -0.7,-0.5 -0.067,-0.134 -0.1,-0.267 -0.1,-0.4 -0.033,-0.1 -0.033,-0.184 0,-0.25 V 22.5 c 0.1,-0.3 0.233,-0.483 0.4,-0.55 z m -3.25,2.75 c -0.1,-0.2 -0.083,-0.367 0.05,-0.5 0.133,-0.167 0.233,-0.15 0.3,0.05 l 0.1,0.1 c 0.167,0 0.217,0.117 0.15,0.351 0,0.233 -0.083,0.35 -0.25,0.35 C 22.567,25.05 22.45,24.934 22.35,24.7 Z m -1.7,-0.3 v -0.25 c 0.2,-0.4 0.517,-0.667 0.95,-0.801 0.133,-0.066 0.167,0 0.1,0.2 -0.034,0.134 -0.117,0.233 -0.25,0.3 -0.1,0.034 -0.184,0.084 -0.25,0.15 0.3,0.066 0.617,0.017 0.95,-0.15 0.167,-0.1 0.2,-0.033 0.1,0.2 -0.067,0.2 -0.15,0.3 -0.25,0.3 -0.567,0.201 -1.017,0.217 -1.35,0.051 z m 0.8,-3.5 -0.2,0.2 c -0.467,-0.3 -0.767,-0.45 -0.9,-0.45 -0.033,0 -0.083,-0.017 -0.15,-0.05 -0.067,-0.033 -0.15,-0.083 -0.25,-0.15 -0.167,0.033 -0.267,0.017 -0.3,-0.05 l -0.3,-0.45 c -0.133,-0.167 -0.233,-0.217 -0.3,-0.15 -0.233,0.3 -0.45,0.25 -0.65,-0.15 -0.1,0.067 -0.2,0.067 -0.3,0 -0.2,-0.133 -0.35,-0.5 -0.45,-1.1 v -0.1 c -0.066,0.066 -0.15,0.117 -0.25,0.15 0.067,0.133 0.15,0.25 0.25,0.35 0.1,0.1 0.1,0.25 0,0.45 -0.1,0.167 -0.2,0.2 -0.3,0.1 -0.233,-0.267 -0.434,-0.583 -0.6,-0.95 -0.033,0.034 -0.083,0.067 -0.15,0.1 -0.133,0 -0.167,-0.083 -0.1,-0.25 0,-0.433 -0.05,-0.683 -0.15,-0.75 -0.2,-0.133 -0.317,-0.2 -0.35,-0.2 -0.167,0 -0.35,0.1 -0.55,0.3 -0.133,0.1 -0.217,0.083 -0.25,-0.05 0,-0.2 0.066,-0.333 0.2,-0.4 0.067,-0.066 0.117,-0.1 0.15,-0.1 0.3,-0.3 0.567,-0.4 0.8,-0.3 0.267,0.133 0.433,0.3 0.5,0.5 0.033,0.1 0.05,0.2 0.05,0.3 0.233,-0.133 0.483,-0.034 0.75,0.3 0.033,0.033 0.05,0.117 0.05,0.25 v 0.05 l 0.05,-0.05 0.1,-0.1 c 0.133,-0.1 0.2,-0.083 0.2,0.05 0.034,0.1 0.05,0.2 0.05,0.3 0.1,0.467 0.183,0.65 0.25,0.55 0,-0.033 0.05,-0.083 0.15,-0.15 0.1,-0.066 0.167,-0.05 0.2,0.05 0.066,0.233 0.117,0.367 0.15,0.4 0.033,0 0.083,-0.033 0.15,-0.1 l 0.25,-0.15 c 0.1,0.066 0.2,0.117 0.3,0.15 0.1,0.1 0.2,0.25 0.3,0.45 0.066,0.1 0.117,0.15 0.15,0.15 0.033,0 0.083,-0.017 0.15,-0.05 0.067,0 0.184,0.083 0.35,0.25 0.2,-0.033 0.517,0.117 0.95,0.45 0.133,0.067 0.133,0.2 0,0.4 z m -2.3,-5.15 c 0.167,-0.1 0.283,-0.067 0.35,0.1 0.067,0.133 0.1,0.233 0.1,0.3 0.133,0.033 0.183,0.167 0.15,0.4 0,0.4 -0.083,0.667 -0.25,0.8 -0.167,0.133 -0.383,0.117 -0.65,-0.05 -0.167,-0.1 -0.217,-0.267 -0.15,-0.5 0.1,-0.433 0.25,-0.783 0.45,-1.05 z m 7.4,8.05 C 26.517,23.767 26.5,23.734 26.5,23.7 v -0.05 c -0.033,-0.134 -0.05,-0.317 -0.05,-0.551 0,-0.133 0.083,-0.233 0.25,-0.3 0.133,-0.1 0.2,-0.05 0.2,0.15 v 0.25 h 0.25 l 0.1,-0.05 c 0.033,0 0.067,0.033 0.1,0.1 0.167,0.366 0.267,0.5 0.3,0.4 0.1,-0.167 0.2,-0.233 0.3,-0.2 0.033,0.034 0.05,0.151 0.05,0.351 -0.367,0.667 -0.683,0.667 -0.95,0 z m -0.75,2.7 c -0.1,0.233 -0.05,0.3 0.15,0.2 h 0.3 l 0.8,-0.101 c 0.2,-0.033 0.55,-0.017 1.05,0.051 0.1,0.033 0.017,0.216 -0.25,0.55 -0.333,-0.101 -0.75,-0.117 -1.25,-0.05 -0.567,0.066 -0.983,0.083 -1.25,0.05 L 25.3,27.1 c 0,-0.166 0.017,-0.316 0.05,-0.449 0.066,-0.301 0.233,-0.534 0.5,-0.7 0.133,-0.066 0.183,0 0.15,0.2 -0.067,0.166 -0.133,0.267 -0.2,0.3 z m -0.25,-0.85 c 0.3,0 0.35,0.083 0.15,0.25 -0.2,0.133 -0.383,0.199 -0.55,0.199 -0.199,0 -0.282,-0.017 -0.25,-0.05 -0.034,0.033 -0.083,0.05 -0.15,0.05 -0.167,0.068 -0.45,0.101 -0.85,0.101 -0.2,0 -0.3,-0.167 -0.3,-0.5 0,-0.033 0.05,-0.2 0.15,-0.5 0.133,-0.167 0.25,-0.184 0.35,-0.05 0.033,0.066 0.066,0.149 0.1,0.25 l 0.35,-0.051 c 0.167,-0.033 0.284,0.067 0.35,0.301 0.033,0.133 0.033,0.25 0,0.35 0.033,-0.033 0.067,-0.066 0.1,-0.1 0.2,-0.167 0.383,-0.25 0.55,-0.25 z m -0.5,-5.55 c -0.1,-0.434 -0.066,-0.85 0.1,-1.25 0.067,-0.2 0.167,-0.217 0.3,-0.05 0.133,0.167 0.15,0.35 0.05,0.55 v 0.2 c 0.033,-0.033 0.067,-0.066 0.1,-0.1 0.033,-0.067 0.083,-0.083 0.15,-0.05 0.1,0.033 0.167,0.117 0.2,0.25 0.233,0.7 0.483,0.633 0.75,-0.2 0.066,-0.167 0.183,-0.184 0.35,-0.05 0.133,0.167 0.15,0.35 0.05,0.55 -0.2,0.466 -0.417,0.767 -0.65,0.9 -0.3,0.133 -0.567,-0.05 -0.8,-0.55 -0.1,0 -0.217,0.017 -0.35,0.05 -0.133,0 -0.217,-0.083 -0.25,-0.25 z m -1.2,1.45 v 0.299 l 0.3,-0.1 c 0.2,-0.033 0.367,-0.017 0.5,0.05 0.367,0.2 0.383,0.634 0.05,1.3 -0.067,0.2 -0.167,0.284 -0.3,0.25 -0.133,-0.066 -0.15,-0.183 -0.05,-0.35 0.133,-0.434 0.083,-0.65 -0.15,-0.65 l -0.6,0.101 c -0.1,0 -0.15,-0.05 -0.15,-0.15 L 23.4,21.9 c -0.066,0.033 -0.1,0.083 -0.1,0.149 -0.066,0.2 -0.167,0.3 -0.3,0.3 -0.1,0 -0.15,-0.1 -0.15,-0.3 0.066,-0.233 0.167,-0.416 0.3,-0.55 0.067,-0.066 0.133,-0.134 0.2,-0.2 0.066,-0.033 0.15,-0.066 0.25,-0.1 0,-0.033 0.033,-0.033 0.1,0 0.033,0 0.066,0.033 0.1,0.1 z m 4.4,-1.3 c 0.2,-0.1 0.383,0 0.55,0.3 0.133,-0.066 0.25,-0.05 0.35,0.05 0.267,0.133 0.417,0.483 0.45,1.05 0.033,0.199 -0.033,0.316 -0.2,0.35 -0.133,0.066 -0.217,-0.017 -0.25,-0.25 -0.033,-0.434 -0.133,-0.583 -0.3,-0.45 -0.133,0.134 -0.25,0.117 -0.35,-0.05 L 28.4,21 28.3,21.15 c -0.066,0.166 -0.167,0.233 -0.3,0.199 -0.167,-0.066 -0.217,-0.216 -0.15,-0.45 0.1,-0.366 0.233,-0.582 0.4,-0.649 z m 0,2.75 c 0.067,-0.167 0.183,-0.15 0.35,0.05 0.133,0.167 0.15,0.351 0.05,0.55 0,0.034 -0.033,0.101 -0.1,0.2 -0.033,0.101 -0.017,0.184 0.05,0.25 0.066,0.167 0.217,0.283 0.45,0.351 0.3,0.199 0.633,0.3 1,0.3 0.167,0 0.267,0.149 0.3,0.45 0,0.267 -0.067,0.399 -0.2,0.399 C 29.483,25.484 28.967,25.3 28.6,25 28,24.5 27.883,23.833 28.25,23 Z m 5.2,-9.65 c -0.567,0.5 -1.083,0.7 -1.55,0.6 0.333,-0.4 0.9,-0.633 1.7,-0.7 0.2,0.067 0.15,0.1 -0.15,0.1 z M 32,13.7 c -0.033,-0.2 0.233,-0.717 0.8,-1.55 0,0.233 -0.066,0.517 -0.2,0.85 -0.167,0.367 -0.367,0.6 -0.6,0.7 z M 30.95,13.35 V 13.3 l -0.1,-0.4 v -0.05 l -0.55,-2.1 1,2.4 z M 32,12.55 31.7,12.8 30.3,10.75 Z m -1.15,1.95 c 0.066,-0.333 0.233,-0.617 0.5,-0.85 0.3,-0.233 0.5,-0.433 0.6,-0.6 -0.034,0.333 -0.167,0.633 -0.4,0.9 -0.2,0.3 -0.433,0.483 -0.7,0.55 z m 1.65,-0.1 c -0.733,0.567 -1.333,0.667 -1.8,0.3 0.233,-0.267 0.833,-0.367 1.8,-0.3 z M 11.85,31.6 c -0.067,-0.033 -0.133,-0.05 -0.2,-0.05 l -0.8,-0.1 C 10.783,31.349 10.7,31.266 10.6,31.2 h 0.1 c 0.233,-0.033 0.55,-0.2 0.95,-0.5 0.333,-0.066 0.567,-0.134 0.7,-0.2 0.066,-0.033 0.133,-0.083 0.2,-0.15 0.567,-0.166 1.05,-0.416 1.45,-0.75 0.533,-0.433 1.233,-1.083 2.1,-1.949 l 1.45,-1.45 c 0.034,-0.033 0.067,-0.066 0.1,-0.101 l 0.05,-0.05 c 0.066,-0.166 0.117,-0.383 0.15,-0.649 v -0.4 c 0,0 -0.017,-0.333 -0.05,-0.5 v -0.15 C 17.633,23.452 17.317,22.652 16.85,21.952 16.783,21.851 16.7,21.735 16.6,21.601 l 1.1,1.051 c 0.233,0.233 0.383,0.433 0.45,0.6 0.2,0.533 0.3,1.3 0.3,2.3 -0.067,0.634 -0.184,1.066 -0.35,1.3 -0.067,0.101 -0.233,0.233 -0.5,0.4 l -0.5,0.35 c -0.367,0.167 -0.733,0.434 -1.1,0.801 l -1,1.25 c -0.233,0.267 -0.8,0.55 -1.7,0.85 l -0.5,0.15 h -0.3 v 0.1 c 0.033,0.134 0.033,0.217 0,0.25 l -0.15,0.05 C 12.283,31.086 12.233,31.17 12.2,31.303 12.133,31.5 12.017,31.6 11.85,31.6 Z M 18.7,13.65 c -0.067,-0.1 -0.05,-0.267 0.05,-0.5 0.3,-0.4 0.483,-0.65 0.55,-0.75 0.1,-0.233 0.217,-0.283 0.35,-0.15 0.167,0.167 0.167,0.333 0,0.5 L 19,13.7 c -0.133,0.133 -0.233,0.117 -0.3,-0.05 z m -0.95,1.65 c 0.033,-0.033 0.067,-0.017 0.1,0.05 0.066,0.2 0.15,0.333 0.25,0.4 0.066,0.033 0.15,0.067 0.25,0.1 -0.1,0.467 -0.2,0.65 -0.3,0.55 -0.133,-0.066 -0.233,-0.117 -0.3,-0.15 -0.067,-0.067 -0.133,-0.167 -0.2,-0.3 -0.2,0.1 -0.433,0.15 -0.7,0.15 -0.1,0 -0.117,-0.067 -0.05,-0.2 0.034,-0.467 0.233,-0.883 0.6,-1.25 l 0.1,-0.05 c 0.067,0 0.117,0.033 0.15,0.1 0,0.2 -0.066,0.333 -0.2,0.4 -0.1,0.133 -0.167,0.267 -0.2,0.4 0.167,-0.033 0.3,-0.083 0.4,-0.15 0,-0.033 0.033,-0.05 0.1,-0.05 z m 2.15,17.55 c -0.233,0.034 -0.417,0.084 -0.55,0.15 -0.167,0.267 -0.25,0.434 -0.25,0.5 0.033,0.033 0.167,-0.017 0.4,-0.15 0.267,-0.1 0.517,-0.183 0.75,-0.25 C 20.117,33 20,32.917 19.9,32.85 Z m 1.1,-0.1 h -0.15 c 0.034,10e-4 0.067,0.018 0.1,0.05 0,-0.032 0.017,-0.049 0.05,-0.05 z m 2.9,0.85 c -0.367,-0.066 -0.683,-0.149 -0.95,-0.25 -0.4,-0.166 -0.75,-0.3 -1.05,-0.399 -0.1,0.066 -0.2,0.133 -0.3,0.2 0.3,0.133 0.633,0.267 1,0.399 0.1,0.033 0.8,0.3 2.1,0.8 0.033,-0.066 0.083,-0.133 0.15,-0.199 -0.1,-0.233 -0.2,-0.417 -0.3,-0.551 -0.133,0.034 -0.35,0.034 -0.65,0 z m -2.6,-4.25 c -0.033,0.034 -0.267,0.284 -0.7,0.75 -0.333,0.467 -0.333,0.834 0,1.101 0.6,0.467 1.2,0.55 1.8,0.25 0.133,-0.033 0.184,0.083 0.15,0.35 0.133,-0.133 0.267,-0.283 0.4,-0.45 0.5,-0.267 0.517,-1.033 0.05,-2.3 -0.533,-0.167 -1.1,-0.068 -1.7,0.299 z M 22.95,25.15 23,24.9 c 0.033,-0.134 0.117,-0.233 0.25,-0.301 0.133,-0.066 0.167,0 0.1,0.2 0,0.101 -0.05,0.2 -0.15,0.3 -0.133,0.101 -0.217,0.118 -0.25,0.051 z m 5.9,2.2 c 0.167,0.067 0.183,0.167 0.05,0.301 -0.066,0.199 -0.167,0.283 -0.3,0.25 h -0.1 c -0.133,0 -0.167,-0.084 -0.1,-0.25 0.067,-0.2 0.15,-0.301 0.25,-0.301 z m 1.85,-1.6 -0.05,-0.2 C 30.584,25.35 30.617,25.2 30.75,25.1 30.883,25 31,25.067 31.1,25.3 l 0.05,0.2 c 0.067,0.2 0.017,0.35 -0.15,0.45 -0.133,0.1 -0.233,0.033 -0.3,-0.2 z m 1,-0.25 0.2,0.05 c 0.033,0 0.05,0.101 0.05,0.3 -0.067,0.134 -0.167,0.2 -0.3,0.2 h -0.2 c -0.133,-0.066 -0.133,-0.166 0,-0.3 0.067,-0.167 0.15,-0.25 0.25,-0.25 z m 0.95,0.4 0.15,0.1 c -0.1,0.434 -0.2,0.616 -0.3,0.55 L 32.3,26.4 c -0.066,-0.067 -0.033,-0.184 0.1,-0.351 0.1,-0.165 0.183,-0.216 0.25,-0.149 z"
   fill="#807e6e"
   id="path985" />
	<path
   d="M 34.7,8.6 35.9,8.15 38.05,9.3 37.8,9.5 c -0.033,0.267 -0.25,0.8 -0.649,1.6 l -0.7,1.1 c -0.134,0.267 -0.2,0.517 -0.2,0.75 H 36.2 c -0.3,0.066 -0.684,-0.067 -1.15,-0.4 -0.233,-0.2 -0.433,-0.367 -0.6,-0.5 -0.1,-0.1 -0.2,-0.183 -0.3,-0.25 0.3,-0.167 0.583,-0.517 0.85,-1.05 -0.533,0.267 -0.9,0.55 -1.1,0.85 -0.033,-0.033 -0.066,-0.05 -0.1,-0.05 0.167,-0.367 0.133,-0.8 -0.1,-1.3 -0.1,0.533 -0.117,0.933 -0.05,1.2 -0.1,-0.067 -0.183,-0.117 -0.25,-0.15 -0.032,-0.032 -0.049,-0.065 -0.05,-0.1 v 0.05 C 33.25,11.183 33.15,11.1 33.05,11 32.917,10.9 32.817,10.783 32.75,10.65 H 33.1 L 33.15,10.3 32.6,10.4 C 32.533,10.3 32.5,10.2 32.5,10.1 L 33.2,9.9 V 9.55 l -0.75,0.3 C 32.45,9.683 32.5,9.567 32.6,9.5 L 33.1,9.2 V 9.15 c 0.1,-0.033 0.217,-0.066 0.35,-0.1 l 0.3,-0.1 0.15,0.3 c 0.133,0.2 0.283,0.333 0.45,0.4 0.066,-0.367 -0.067,-0.633 -0.4,-0.8 l 0.2,-0.05 h 0.1 V 8.75 h 0.05 c 0.034,0.067 0.083,0.117 0.15,0.15 0.1,-0.1 0.183,-0.2 0.25,-0.3 z m 0.35,0.05 c -0.2,0.133 -0.367,0.317 -0.5,0.55 -0.133,0.267 -0.15,0.466 -0.05,0.6 0.2,-0.1 0.35,-0.283 0.45,-0.55 0.1,-0.233 0.133,-0.433 0.1,-0.6 z M 11.85,31.6 c 0.033,0.034 0.066,0.067 0.1,0.101 0.433,0.366 0.95,0.666 1.55,0.899 0.8,0.434 0.683,0.917 -0.35,1.45 C 13.117,34.017 13.084,34 13.05,34 12.817,33.833 12.55,33.667 12.25,33.5 L 9.35,31.6 C 9.217,31.5 9.083,31.401 8.95,31.3 H 9 C 9.167,31.333 9.383,31.283 9.65,31.151 9.783,31.116 9.9,31.083 10,31.05 c 0,0.033 0.017,0.05 0.05,0.05 0.067,0.067 0.25,0.101 0.55,0.101 0.1,0.066 0.183,0.149 0.25,0.25 l 0.8,0.1 c 0.067,-10e-4 0.133,0.015 0.2,0.049 z m -3.7,-0.85 c 0.067,-0.033 0.167,-0.066 0.3,-0.1 l -0.15,0.1 c 0.034,0.066 0.067,0.134 0.1,0.2 C 8.334,30.917 8.3,30.884 8.3,30.849 H 8.25 C 8.217,30.816 8.183,30.783 8.15,30.75 Z m -1.3,-3.1 c 0,0.233 0.017,0.5 0.05,0.8 0,0.1 -0.1,0.333 -0.3,0.7 -0.1,0.133 -0.15,0.283 -0.15,0.449 -0.767,-0.5 -1.3,-0.833 -1.6,-1 0.667,-0.133 1.133,-0.35 1.4,-0.649 0.2,-0.2 0.267,-0.434 0.2,-0.7 0,-0.167 -0.133,-0.55 -0.4,-1.15 L 4.8,23.35 c 0.2,-0.166 0.383,-0.333 0.55,-0.5 0.033,-0.033 0.083,-0.083 0.15,-0.149 0.333,-0.3 0.65,-0.601 0.95,-0.9 l 1.5,-1.45 c -0.067,0.133 -0.133,0.3 -0.2,0.5 -0.133,0.5 -0.267,0.817 -0.4,0.95 -0.133,-0.2 -0.333,-0.1 -0.6,0.3 -0.1,0.134 -0.183,0.284 -0.25,0.45 -0.133,0.134 -0.267,0.316 -0.4,0.55 -0.5,0.801 -0.517,1.517 -0.05,2.15 0.033,0.065 0.3,0.865 0.8,2.399 z M 34.2,10.6 c 0.1,-0.267 0.1,-0.5 0,-0.7 C 34.133,9.8 33.983,9.65 33.75,9.45 l 0.15,0.6 c 0.033,0.267 0.133,0.45 0.3,0.55 z m 0.05,0.2 c 0.4,-0.033 0.717,-0.417 0.95,-1.15 -0.633,0.467 -0.95,0.85 -0.95,1.15 z m 2.2,0.85 c -0.101,0.067 -0.167,0.1 -0.2,0.1 V 11.6 c 0,-0.1 -0.033,-0.133 -0.1,-0.1 -0.234,0.467 -0.2,0.633 0.1,0.5 0.066,0 0.2,-0.117 0.4,-0.35 -0.034,-0.067 -0.1,-0.067 -0.2,0 z m 0.3,-0.6 c 0,0.034 0.017,0.05 0.05,0.05 0.101,0.033 0.2,-0.017 0.3,-0.15 -0.034,-0.033 -0.15,0 -0.35,0.1 z m -18,-3.55 -0.1,0.1 C 19.15,6.9 19.6,6.217 20,5.55 L 22.9,0 c 0.233,0.267 0.483,0.533 0.75,0.8 l 0.65,0.55 c 0.667,0.5 1.434,1 2.3,1.5 L 26.55,2.9 25.9,3.05 c -1.433,0.434 -2.5,0.784 -3.2,1.05 -0.667,0.267 -1.383,0.767 -2.15,1.5 -0.4,0.4 -1,1.033 -1.8,1.9 z m 6.15,9.15 c -0.133,-0.167 -0.233,-0.333 -0.3,-0.5 0.3,-0.2 0.65,-0.333 1.05,-0.4 l 0.1,0.1 c -0.1,0.033 -0.2,0.066 -0.3,0.1 -0.233,0.2 -0.417,0.433 -0.55,0.7 z M 30.15,21 c -0.2,-0.167 -0.417,-0.35 -0.65,-0.55 l -1.25,-0.8 c -1,-1 -1.767,-1.683 -2.3,-2.05 H 26 c 0.1,0.033 0.433,0.05 1,0.05 0.267,-0.367 0.317,-0.55 0.15,-0.55 -0.467,0 -0.767,-0.017 -0.9,-0.05 -0.333,-0.066 -0.617,-0.216 -0.85,-0.45 0.067,-0.1 0.167,-0.184 0.3,-0.25 0.267,-0.167 0.417,-0.267 0.45,-0.3 0.167,-0.133 0.25,-0.25 0.25,-0.35 0.5,0 1.083,0.117 1.75,0.35 0.9,0.3 2.217,0.85 3.95,1.65 0.1,0.033 0.2,0.066 0.3,0.1 -0.2,0.2 -0.367,0.434 -0.5,0.7 -0.133,0.033 -0.183,0.183 -0.15,0.45 0.033,0.3 0.133,0.45 0.3,0.45 0.3,0 0.55,-0.133 0.75,-0.4 l 0.05,-0.05 v 0.1 c 0.033,0.2 0.133,0.25 0.3,0.15 0.067,-0.067 0.117,-0.133 0.15,-0.2 0.567,-0.233 0.717,-0.35 0.45,-0.35 -0.1,0 -0.25,0.05 -0.45,0.15 0.067,-0.066 0.1,-0.183 0.1,-0.35 -0.033,-0.233 -0.133,-0.317 -0.3,-0.25 -0.1,0.066 -0.167,0.167 -0.2,0.3 -0.033,-0.033 -0.05,-0.067 -0.05,-0.1 -0.067,-0.167 -0.133,-0.233 -0.2,-0.2 0.1,-0.1 0.15,-0.217 0.15,-0.35 0.434,0 0.934,-0.05 1.5,-0.15 0.233,0.033 0.65,0.017 1.25,-0.05 0.601,0.067 1.05,0.333 1.351,0.8 l 1.05,0.65 c -0.834,1.4 -1.834,2.333 -3,2.8 -0.767,0.333 -1.534,0.433 -2.3,0.3 -0.033,-0.066 -0.1,-0.101 -0.2,-0.101 -0.067,0 -0.117,0.017 -0.15,0.051 -0.167,-0.034 -0.316,-0.084 -0.45,-0.15 -0.067,0 -0.133,-0.017 -0.2,-0.05 -0.033,0 -0.066,-0.017 -0.1,-0.05 l -0.05,-0.15 c 0.033,-0.233 -0.017,-0.333 -0.15,-0.3 -0.133,0.033 -0.217,0.116 -0.25,0.25 v 0.05 l -0.05,-0.05 c -0.066,-0.033 -0.15,-0.084 -0.25,-0.15 0,-0.166 -0.05,-0.3 -0.15,-0.399 C 30.483,20.983 30.317,20.933 30.15,21 Z M 27.6,17.3 c 0.033,0.034 0.117,-0.017 0.25,-0.15 L 28.2,16.7 c 0.1,-0.167 0.117,-0.284 0.05,-0.35 -0.1,-0.067 -0.2,-0.017 -0.3,0.15 l -0.35,0.45 -0.05,0.15 c -0.033,0.1 -0.017,0.167 0.05,0.2 z m 1.2,-0.4 c -0.167,0.033 -0.333,0.133 -0.5,0.3 -0.033,0.033 -0.066,0.117 -0.1,0.25 -0.034,0.167 0,0.267 0.1,0.3 0.2,0.067 0.417,-0.017 0.65,-0.25 0.033,-0.033 0.066,-0.067 0.1,-0.1 L 29,17.55 c 0,0.2 0.083,0.25 0.25,0.15 0.133,-0.067 0.2,-0.184 0.2,-0.35 v -0.1 c 0.066,-0.233 0.017,-0.35 -0.15,-0.35 -0.1,0 -0.167,0.083 -0.2,0.25 -0.033,-0.033 -0.05,-0.066 -0.05,-0.1 C 29.017,17.017 29,16.984 29,16.95 28.967,16.916 28.933,16.9 28.9,16.9 c -0.033,-0.033 -0.067,-0.033 -0.1,0 z m 1.4,1.65 c 0.133,0.167 0.233,0.167 0.3,0 l 0.4,-0.5 c 0.133,-0.133 0.15,-0.3 0.05,-0.5 -0.1,-0.2 -0.217,-0.233 -0.35,-0.1 -0.233,0.233 -0.383,0.433 -0.45,0.6 -0.133,0.2 -0.117,0.367 0.05,0.5 z m 4.25,0.9 c 0.1,-0.067 0.183,-0.184 0.25,-0.35 0.066,-0.2 0.017,-0.3 -0.15,-0.3 -0.1,0 -0.183,0.1 -0.25,0.3 l -0.05,0.1 0.15,-0.25 c -0.133,0.267 -0.2,0.417 -0.2,0.45 0.033,0.133 0.117,0.15 0.25,0.05 z m -11.1,1.85 c -0.067,0.066 -0.133,0.134 -0.2,0.2 -0.7,-0.233 -1.217,-0.417 -1.55,-0.55 -0.067,-0.034 -0.117,-0.05 -0.15,-0.05 0.133,-0.2 0.133,-0.333 0,-0.4 -0.434,-0.333 -0.75,-0.483 -0.95,-0.45 -0.167,-0.167 -0.283,-0.25 -0.35,-0.25 -0.066,0.034 -0.117,0.05 -0.15,0.05 -0.033,0 -0.083,-0.05 -0.15,-0.15 -0.1,-0.2 -0.2,-0.35 -0.3,-0.45 0.167,0.1 0.317,0.183 0.45,0.25 l 2.6,1.35 c 0.133,0.1 0.383,0.25 0.75,0.45 z m 0.5,0.25 c 0.2,0.101 0.35,0.134 0.45,0.101 -0.133,0.066 -0.283,0.083 -0.45,0.05 z m -14.6,-2.5 c 0.1,-0.133 0.217,-0.267 0.35,-0.4 0,0.1 -0.017,0.217 -0.05,0.35 H 9.5 C 9.4,19 9.317,19.017 9.25,19.05 Z M 20.2,20.6 c -0.133,-0.033 -0.25,-0.05 -0.35,-0.05 -1.1,-0.133 -1.917,-0.216 -2.45,-0.25 -0.767,-0.033 -1.433,0.017 -2,0.15 -0.3,-0.267 -0.633,-0.517 -1,-0.75 -0.433,-0.3 -0.816,-0.517 -1.15,-0.65 -0.133,-0.233 -0.35,-0.367 -0.65,-0.4 L 12.55,18.6 12.3,18.55 c -0.066,-0.033 -0.1,0.017 -0.1,0.15 -0.133,0.033 -0.25,0.066 -0.35,0.1 -0.434,-0.466 -0.767,-0.966 -1,-1.5 l 0.85,-0.9 0.8,-0.15 c 0.4,-0.033 1.317,0.233 2.75,0.8 0.1,0.034 0.2,0.083 0.3,0.15 -0.033,0 -0.083,0.033 -0.15,0.1 -0.133,0.067 -0.2,0.2 -0.2,0.4 0.033,0.133 0.117,0.15 0.25,0.05 0.2,-0.2 0.383,-0.3 0.55,-0.3 0.033,0 0.15,0.066 0.35,0.2 0.1,0.067 0.15,0.317 0.15,0.75 -0.067,0.167 -0.033,0.25 0.1,0.25 0.066,-0.033 0.117,-0.066 0.15,-0.1 0.167,0.367 0.367,0.684 0.6,0.95 0.1,0.1 0.2,0.067 0.3,-0.1 0.1,-0.2 0.1,-0.35 0,-0.45 -0.1,-0.1 -0.183,-0.217 -0.25,-0.35 0.1,-0.033 0.184,-0.083 0.25,-0.15 v 0.1 c 0.1,0.6 0.25,0.967 0.45,1.1 0.1,0.067 0.2,0.067 0.3,0 0.2,0.4 0.417,0.45 0.65,0.15 0.067,-0.066 0.167,-0.017 0.3,0.15 l 0.3,0.45 c 0.033,0.067 0.133,0.083 0.3,0.05 0.1,0.067 0.183,0.117 0.25,0.15 z m -2.5,-2.35 h 0.05 L 17.7,18.3 Z m 0.4,0.25 c 0.467,0.233 0.85,0.433 1.15,0.6 L 19,19.25 c -0.067,0.067 -0.117,0.1 -0.15,0.1 -0.033,-0.033 -0.083,-0.167 -0.15,-0.4 -0.034,-0.1 -0.1,-0.117 -0.2,-0.05 -0.1,0.067 -0.15,0.117 -0.15,0.15 -0.067,0.1 -0.15,-0.083 -0.25,-0.55 z"
   fill="#ccc8b9"
   id="path987" />
	<path
   d="m 39.3,16.5 -0.25,2.25 c -0.166,0 -0.35,0.117 -0.55,0.35 -0.134,0.133 -0.3,0.316 -0.5,0.55 -0.733,0.9 -1.417,2.167 -2.05,3.8 l -1.3,2.7 c -0.133,0.233 -0.333,0.699 -0.6,1.399 C 33.817,28.15 33.6,28.6 33.4,28.9 l -0.65,0.75 -0.25,0.55 c -0.3,0.2 -0.75,0.416 -1.35,0.649 -0.267,0.067 -0.783,0 -1.55,-0.199 V 30.6 c 0.1,-0.1 0.15,-0.199 0.15,-0.3 0,-0.133 -0.067,-0.149 -0.2,-0.05 l -0.3,0.3 C 28.75,30.384 28.167,30.167 27.5,29.901 H 27.45 L 27.4,29.85 25.2,28.9 c -0.333,-0.134 -0.717,-0.301 -1.15,-0.5 l -0.1,-0.101 c -0.6,-0.399 -0.7,-0.75 -0.3,-1.05 0.2,-0.167 0.5,-0.3 0.9,-0.4 0.167,-0.066 0.434,-0.133 0.8,-0.199 -0.033,0.133 -0.05,0.283 -0.05,0.449 l 0.05,0.101 c 0.267,0.033 0.683,0.017 1.25,-0.05 0.5,-0.067 0.917,-0.051 1.25,0.05 0.267,-0.334 0.35,-0.517 0.25,-0.55 -0.5,-0.067 -0.85,-0.084 -1.05,-0.051 l -0.8,0.101 h -0.3 c -0.2,0.1 -0.25,0.033 -0.15,-0.2 0.267,-0.1 0.467,-0.184 0.6,-0.25 0.333,-0.233 0.483,-0.616 0.45,-1.15 -0.033,-0.399 -0.133,-0.833 -0.3,-1.3 h 0.5 c 0.267,0.667 0.583,0.667 0.95,0 0,-0.2 -0.017,-0.316 -0.05,-0.35 -0.1,-0.033 -0.2,0.033 -0.3,0.2 -0.033,0.1 -0.133,-0.034 -0.3,-0.4 -0.033,-0.066 -0.067,-0.1 -0.1,-0.1 l -0.1,0.05 H 26.9 v -0.25 c 0,-0.2 -0.066,-0.25 -0.2,-0.15 -0.167,0.066 -0.25,0.167 -0.25,0.3 0,0.233 0.017,0.417 0.05,0.551 -0.133,-0.301 -0.283,-0.617 -0.45,-0.95 0.034,0 0.05,-0.017 0.05,-0.05 0.066,-0.134 0.083,-0.233 0.05,-0.301 -0.167,-0.333 -0.35,-0.466 -0.55,-0.399 -0.567,-0.834 -1.3,-1.733 -2.2,-2.7 0.067,-0.133 0.1,-0.233 0.1,-0.3 0.033,0.267 0.15,0.5 0.35,0.7 0.267,0.233 0.467,0.25 0.6,0.05 0.167,-0.233 0.2,-0.567 0.1,-1 -0.033,-0.3 -0.133,-0.417 -0.3,-0.35 -0.1,-0.2 -0.217,-0.267 -0.35,-0.2 -0.267,0.067 -0.4,0.283 -0.4,0.65 v 0.05 c -0.033,-0.033 -0.067,-0.05 -0.1,-0.05 -0.233,-0.033 -0.467,-0.167 -0.7,-0.4 v -0.05 c 0.066,-0.1 0.083,-0.2 0.05,-0.3 l -0.15,-0.6 c 0,-0.167 -0.05,-0.2 -0.15,-0.1 -0.2,0.033 -0.35,0.133 -0.45,0.3 -0.033,0.033 -0.05,0.067 -0.05,0.1 -0.033,-0.032 -0.049,-0.065 -0.05,-0.1 0,-0.2 -0.033,-0.4 -0.1,-0.6 l -0.15,-0.25 c -0.1,-0.033 -0.183,-0.05 -0.25,-0.05 -0.066,-0.167 -0.117,-0.317 -0.15,-0.45 0.233,-0.2 0.55,-0.35 0.95,-0.45 L 23,15.6 c -0.033,0.133 0,0.25 0.1,0.35 0.1,0.167 0.217,0.15 0.35,-0.05 l 0.3,-0.45 c 0.433,-0.1 0.933,-0.117 1.5,-0.05 0.067,0.033 0.2,0.15 0.4,0.35 -0.4,0.067 -0.75,0.2 -1.05,0.4 0.066,0.167 0.167,0.333 0.3,0.5 v 0.3 c 0.3,0.333 0.65,0.55 1.05,0.65 0.533,0.367 1.3,1.05 2.3,2.05 l 1.25,0.8 c 0.233,0.2 0.45,0.383 0.65,0.55 -0.133,0.066 -0.217,0.233 -0.25,0.5 -0.033,0.033 -0.066,0.1 -0.1,0.2 0,0.267 0.067,0.399 0.2,0.399 h 0.05 c 0,0.067 0.034,0.134 0.1,0.2 0.133,0.2 0.283,0.3 0.45,0.3 0.167,0 0.267,-0.1 0.3,-0.3 0,-0.233 -0.066,-0.383 -0.2,-0.45 h -0.05 c 0.033,-0.033 0.067,-0.083 0.1,-0.149 0.033,-0.066 0.05,-0.117 0.05,-0.15 0.1,0.066 0.184,0.117 0.25,0.15 l 0.05,0.05 c -0.033,0.267 0,0.55 0.1,0.85 0.033,0.067 0.1,0.101 0.2,0.101 l 0.15,-0.05 c 0.2,0.433 0.4,0.616 0.6,0.55 0.2,-0.066 0.35,-0.316 0.45,-0.75 0.033,-0.101 0.05,-0.184 0.05,-0.25 0.767,0.133 1.533,0.033 2.3,-0.3 1.166,-0.467 2.166,-1.4 3,-2.8 l -1.05,-0.65 c -0.301,-0.467 -0.75,-0.733 -1.351,-0.8 -0.6,0.067 -1.017,0.083 -1.25,0.05 -0.566,0.1 -1.066,0.15 -1.5,0.15 v -0.1 c 0,-0.067 -0.083,-0.1 -0.25,-0.1 -0.066,0.033 -0.117,0.083 -0.15,0.15 -0.1,-0.033 -0.2,-0.066 -0.3,-0.1 -1.733,-0.8 -3.05,-1.35 -3.95,-1.65 -0.667,-0.233 -1.25,-0.35 -1.75,-0.35 -0.033,-0.067 -0.066,-0.117 -0.1,-0.15 l -0.05,-0.05 c 0.4,0.033 0.917,0.083 1.55,0.15 0.5,0.067 1.817,0.367 3.95,0.9 1.633,0.4 2.917,0.567 3.85,0.5 0.7,-0.033 1.8,-0.333 3.3,-0.9 z m -14.25,3.6 c 0.034,0.167 0.117,0.25 0.25,0.25 0.133,-0.033 0.25,-0.05 0.35,-0.05 0.233,0.5 0.5,0.684 0.8,0.55 0.233,-0.133 0.45,-0.434 0.65,-0.9 0.1,-0.2 0.083,-0.383 -0.05,-0.55 -0.167,-0.133 -0.283,-0.117 -0.35,0.05 -0.267,0.833 -0.517,0.9 -0.75,0.2 -0.034,-0.133 -0.1,-0.217 -0.2,-0.25 -0.067,-0.033 -0.117,-0.017 -0.15,0.05 -0.033,0.033 -0.067,0.066 -0.1,0.1 v -0.2 c 0.1,-0.2 0.083,-0.383 -0.05,-0.55 -0.133,-0.167 -0.233,-0.15 -0.3,0.05 -0.167,0.4 -0.2,0.817 -0.1,1.25 z m 3.2,0.15 c -0.167,0.067 -0.3,0.283 -0.4,0.65 -0.067,0.234 -0.017,0.383 0.15,0.45 0.133,0.034 0.233,-0.033 0.3,-0.199 L 28.4,21 l 0.1,0.25 c 0.1,0.167 0.217,0.184 0.35,0.05 0.167,-0.133 0.267,0.017 0.3,0.45 0.033,0.233 0.117,0.316 0.25,0.25 0.167,-0.033 0.233,-0.15 0.2,-0.35 -0.033,-0.567 -0.184,-0.917 -0.45,-1.05 -0.1,-0.1 -0.217,-0.117 -0.35,-0.05 -0.167,-0.3 -0.35,-0.4 -0.55,-0.3 z m 0,2.75 c -0.367,0.833 -0.25,1.5 0.35,2 0.367,0.3 0.883,0.483 1.55,0.55 0.133,0 0.2,-0.133 0.2,-0.399 -0.033,-0.301 -0.133,-0.45 -0.3,-0.45 -0.367,0 -0.7,-0.101 -1,-0.3 -0.233,-0.067 -0.383,-0.184 -0.45,-0.351 -0.067,-0.066 -0.083,-0.149 -0.05,-0.25 0.067,-0.1 0.1,-0.166 0.1,-0.2 0.1,-0.199 0.083,-0.383 -0.05,-0.55 -0.167,-0.2 -0.283,-0.217 -0.35,-0.05 z m 3.4,-1.05 -0.1,0.05 v -0.1 c 0.033,0.034 0.067,0.05 0.1,0.05 z m 0.2,0.05 c 0.133,0.066 0.283,0.116 0.45,0.15 -0.066,0.033 -0.1,0.116 -0.1,0.25 -0.067,0.199 -0.184,0.083 -0.35,-0.351 z m 0.8,3.9 c -0.066,-0.067 -0.15,-0.017 -0.25,0.149 -0.133,0.167 -0.167,0.283 -0.1,0.351 l 0.2,0.149 c 0.1,0.066 0.2,-0.116 0.3,-0.55 z M 31.7,25.5 c -0.1,0 -0.184,0.083 -0.25,0.25 -0.133,0.134 -0.133,0.233 0,0.3 h 0.2 c 0.133,0 0.233,-0.066 0.3,-0.2 0,-0.199 -0.017,-0.3 -0.05,-0.3 z m -1,0.25 c 0.066,0.233 0.167,0.3 0.3,0.2 0.167,-0.101 0.217,-0.25 0.15,-0.45 L 31.1,25.3 C 31,25.067 30.883,25 30.75,25.1 c -0.133,0.101 -0.167,0.25 -0.1,0.45 z m -1.85,1.6 h -0.2 c -0.1,0 -0.183,0.101 -0.25,0.301 -0.066,0.166 -0.033,0.25 0.1,0.25 h 0.1 c 0.133,0.033 0.233,-0.051 0.3,-0.25 0.133,-0.134 0.117,-0.234 -0.05,-0.301 z"
   fill="#d8d4c4"
   id="path989" />
	<path
   d="m 9.55,19 0.8,-0.2 0.65,0.15 c 0.133,0 0.417,-0.05 0.85,-0.15 0.1,-0.033 0.217,-0.066 0.35,-0.1 v 0.1 c 0,0.167 0.05,0.3 0.15,0.4 0.1,0.1 0.2,0.083 0.3,-0.05 0.067,-0.167 0.05,-0.333 -0.05,-0.5 0.3,0.033 0.517,0.167 0.65,0.4 0.067,0.1 0.117,0.25 0.15,0.45 -0.133,0.133 -0.333,0.133 -0.6,0 -0.233,-0.133 -0.4,-0.217 -0.5,-0.25 l -0.15,-0.1 c -0.033,0 -0.183,0.083 -0.45,0.25 L 9.55,20.05 C 9.484,20.084 9.433,20.117 9.4,20.15 9.167,20.217 8.983,20.283 8.85,20.35 8.55,20.45 8.3,20.5 8.1,20.5 8.067,20.4 8.05,20.3 8.05,20.2 8.05,20.133 8.067,20.067 8.1,20 8.133,19.833 8.217,19.65 8.35,19.45 L 8.15,19.5 C 8.183,19.3 8.383,19.167 8.75,19.1 8.883,19.067 9.033,19.05 9.2,19.05 H 9.25 C 9.317,19.017 9.4,19 9.5,19 Z M 9.5,19.3 c -0.233,0.067 -0.367,0.184 -0.4,0.35 0.066,-0.033 0.283,-0.05 0.65,-0.05 0.3,-0.067 0.4,-0.25 0.3,-0.55 L 9.7,19 Z m -3,3.25 c 0.067,-0.166 0.15,-0.316 0.25,-0.45 0.267,-0.399 0.467,-0.5 0.6,-0.3 0.067,0.1 0.117,0.3 0.15,0.6 0.033,0.366 0,0.899 -0.1,1.6 -0.133,0.767 -0.267,1.15 -0.4,1.15 -0.2,0 -0.417,-0.134 -0.65,-0.4 -0.233,-0.333 -0.333,-0.667 -0.3,-1 0.033,-0.366 0.183,-0.767 0.45,-1.2 z m 0.2,0 C 6.6,22.65 6.533,22.8 6.5,23 c -0.067,0.267 -0.05,0.483 0.05,0.65 0.133,0.066 0.267,-0.051 0.4,-0.351 0.1,-0.333 0.117,-0.616 0.05,-0.85 z m 8.45,-0.15 c 0,-0.067 0.017,-0.117 0.05,-0.15 l 0.25,-0.65 c 0.133,-0.033 0.3,-0.083 0.5,-0.149 0.167,0 0.333,0.1 0.5,0.3 0.333,0.4 0.466,0.95 0.4,1.65 -0.033,0.267 -0.184,0.5 -0.45,0.699 -0.167,0.101 -0.25,0.284 -0.25,0.551 l 0.25,0.8 c 0,0.133 -0.117,0.233 -0.35,0.3 -0.3,0.1 -0.633,0.483 -1,1.15 -0.233,0.166 -0.65,0.267 -1.25,0.3 -0.566,0.233 -1.066,0.399 -1.5,0.5 -0.833,0.166 -1.267,0.033 -1.3,-0.4 0.133,-0.033 0.267,-0.1 0.4,-0.2 0.067,-0.066 0.133,-0.133 0.2,-0.199 l 0.5,-0.25 0.5,-0.15 c -0.067,0.033 -0.1,0.1 -0.1,0.2 0.067,0.066 0.167,0.1 0.3,0.1 0.1,-0.033 0.2,-0.066 0.3,-0.1 l 0.6,-0.15 c 0.333,-0.1 0.517,-0.149 0.55,-0.149 0.233,-0.134 0.383,-0.25 0.45,-0.351 l 0.05,-0.399 c -0.2,0.133 -0.367,0.216 -0.5,0.25 L 14.1,26 c 0.3,-0.267 0.566,-0.634 0.8,-1.1 0.1,-0.134 0.184,-0.517 0.25,-1.15 -0.067,-0.634 -0.067,-1.083 0,-1.35 z m 0.45,-0.3 c -0.3,0.067 -0.434,0.317 -0.4,0.75 0,0.167 0.05,0.4 0.15,0.7 0.1,0.334 0.183,0.517 0.25,0.55 0.1,0.067 0.217,0.051 0.35,-0.05 0.133,-0.133 0.216,-0.267 0.25,-0.399 0.033,-0.2 -0.034,-0.617 -0.2,-1.25 z M 8.85,26.6 8.2,26.8 c 0.033,0.367 0.3,0.6 0.8,0.7 0.367,0 0.483,-0.25 0.35,-0.75 H 9.4 c 0.033,0.033 0.283,0.167 0.75,0.4 0.033,0.033 0.117,0.05 0.25,0.05 0.1,0.033 0.167,0.1 0.2,0.2 0.167,0.333 0.167,0.583 0,0.75 -0.033,0.066 -0.2,0.1 -0.5,0.1 -0.133,0 -0.3,0.017 -0.5,0.05 C 9.333,28.267 9.017,28.234 8.65,28.2 8.617,28.2 8.35,28.15 7.85,28.05 7.583,27.884 7.4,27.8 7.3,27.8 7.067,27.3 7.117,26.917 7.45,26.651 c 0.3,-0.267 0.6,-0.334 0.9,-0.2 z"
   fill="#d9583a"
   id="path991" />
	<path
   d="m 9.5,19.3 0.2,-0.3 0.35,0.05 c 0.1,0.3 0,0.483 -0.3,0.55 -0.367,0 -0.583,0.017 -0.65,0.05 0.033,-0.167 0.167,-0.283 0.4,-0.35 z m 2.7,-0.6 c 0,-0.133 0.033,-0.184 0.1,-0.15 l 0.25,0.05 0.05,0.05 c 0.1,0.167 0.117,0.333 0.05,0.5 -0.1,0.133 -0.2,0.15 -0.3,0.05 -0.1,-0.1 -0.15,-0.233 -0.15,-0.4 z m -3.35,7.9 0.25,-0.1 0.05,0.05 0.1,0.05 0.05,0.05 c 0,0.033 0.017,0.066 0.05,0.1 C 9.483,27.25 9.367,27.5 9,27.5 8.5,27.4 8.233,27.167 8.2,26.8 Z M 6.7,22.55 7,22.45 C 7.067,22.683 7.05,22.967 6.95,23.3 6.817,23.6 6.683,23.717 6.55,23.651 6.45,23.483 6.433,23.267 6.5,23 6.533,22.8 6.6,22.65 6.7,22.55 Z m 5.9,3.95 c 0.033,-0.033 0.066,-0.05 0.1,-0.05 0.1,-0.033 0.216,-0.066 0.35,-0.101 L 14.1,26 14.25,25.9 c 0.133,-0.034 0.3,-0.117 0.5,-0.25 l -0.05,0.4 c -0.067,0.101 -0.217,0.217 -0.45,0.351 -0.033,0 -0.217,0.05 -0.55,0.149 l -0.6,0.15 c -0.1,0.033 -0.2,0.066 -0.3,0.1 -0.133,0 -0.233,-0.033 -0.3,-0.1 0,-0.1 0.033,-0.167 0.1,-0.2 z m 3,-4.4 0.4,0.3 c 0.167,0.633 0.233,1.05 0.2,1.25 -0.034,0.133 -0.117,0.267 -0.25,0.399 -0.133,0.101 -0.25,0.117 -0.35,0.05 -0.067,-0.033 -0.15,-0.216 -0.25,-0.55 -0.1,-0.3 -0.15,-0.533 -0.15,-0.7 -0.033,-0.432 0.1,-0.682 0.4,-0.749 z"
   fill="#ff886e"
   id="path993" />
	<path
   d="M 7.95,20.35 C 7.983,20.183 8.033,20.067 8.1,20 c -0.033,0.067 -0.05,0.133 -0.05,0.2 0,0.1 0.017,0.2 0.05,0.3 0.2,0 0.45,-0.05 0.75,-0.15 0.133,-0.067 0.316,-0.133 0.55,-0.2 0.033,-0.033 0.083,-0.066 0.15,-0.1 L 11.7,19.4 c 0.267,-0.167 0.417,-0.25 0.45,-0.25 l 0.15,0.1 c 0.1,0.033 0.267,0.117 0.5,0.25 0.267,0.133 0.467,0.133 0.6,0 -0.033,-0.2 -0.083,-0.35 -0.15,-0.45 0.333,0.133 0.717,0.35 1.15,0.65 0.367,0.233 0.7,0.483 1,0.75 0.467,0.367 0.867,0.75 1.2,1.149 0.1,0.134 0.183,0.25 0.25,0.351 0.467,0.7 0.783,1.5 0.95,2.399 -0.1,-0.433 -0.233,-0.866 -0.4,-1.3 0.167,1.601 -0.15,2.816 -0.95,3.65 -0.4,0.399 -1.184,0.833 -2.35,1.3 -1.033,0.434 -1.85,0.767 -2.45,1 -0.5,0.167 -0.85,0.267 -1.05,0.3 -0.3,0.033 -0.583,0.05 -0.85,0.05 C 8.717,29.316 7.9,28.9 7.3,28.1 L 6.85,27.3 v 0.15 C 6.849,27.416 6.832,27.382 6.8,27.349 c 0.034,0.067 0.05,0.134 0.05,0.2 V 27.65 C 6.35,26.116 6.083,25.316 6.05,25.25 5.583,24.616 5.6,23.9 6.1,23.1 c 0.133,-0.233 0.267,-0.416 0.4,-0.55 -0.267,0.434 -0.417,0.834 -0.45,1.2 -0.033,0.333 0.067,0.667 0.3,1 0.233,0.267 0.45,0.4 0.65,0.4 0.133,0 0.267,-0.384 0.4,-1.15 0.1,-0.7 0.133,-1.233 0.1,-1.6 -0.033,-0.3 -0.083,-0.5 -0.15,-0.6 0.133,-0.133 0.267,-0.45 0.4,-0.95 0.067,-0.2 0.133,-0.367 0.2,-0.5 z m 1.3,6.25 c 0.6,0.334 1.317,0.5 2.15,0.5 -0.133,0.101 -0.267,0.167 -0.4,0.2 0.033,0.434 0.467,0.566 1.3,0.4 0.434,-0.101 0.934,-0.267 1.5,-0.5 0.6,-0.033 1.017,-0.134 1.25,-0.3 0.367,-0.667 0.7,-1.051 1,-1.15 0.233,-0.066 0.35,-0.167 0.35,-0.3 l -0.25,-0.8 c 0,-0.267 0.083,-0.45 0.25,-0.551 0.267,-0.199 0.417,-0.433 0.45,-0.699 0.066,-0.7 -0.067,-1.25 -0.4,-1.65 -0.167,-0.2 -0.333,-0.3 -0.5,-0.3 -0.2,0.066 -0.367,0.116 -0.5,0.149 l -0.25,0.65 c -0.034,0.033 -0.05,0.083 -0.05,0.15 -0.066,-0.067 -0.117,-0.15 -0.15,-0.25 -0.367,-0.634 -0.883,-1.084 -1.55,-1.351 l -0.65,-0.2 -1,-0.1 h -0.15 c -0.6,0.033 -1.183,0.167 -1.75,0.4 -0.267,0.133 -0.5,0.267 -0.7,0.4 -0.3,0.233 -0.534,0.483 -0.7,0.75 -0.333,0.634 -0.483,1.4 -0.45,2.3 0.034,1 0.35,1.7 0.95,2.101 0.033,0.033 0.067,0.05 0.1,0.05 l -0.25,0.1 -0.5,-0.149 c -0.3,-0.134 -0.6,-0.066 -0.9,0.2 -0.333,0.267 -0.383,0.65 -0.15,1.15 0.1,0 0.284,0.084 0.55,0.25 0.5,0.101 0.767,0.15 0.8,0.15 0.367,0.033 0.684,0.066 0.95,0.1 0.2,-0.033 0.367,-0.05 0.5,-0.05 0.3,0 0.467,-0.033 0.5,-0.1 0.167,-0.167 0.167,-0.417 0,-0.75 -0.033,-0.101 -0.1,-0.167 -0.2,-0.2 -0.133,0 -0.217,-0.017 -0.25,-0.05 C 9.683,26.917 9.433,26.783 9.4,26.75 H 9.35 C 9.317,26.717 9.3,26.684 9.3,26.65 Z m 2.25,-4.4 c 0.067,0.233 0.117,0.533 0.15,0.899 h 0.15 l 0.5,-0.1 0.8,-0.25 c 0.2,-0.066 0.483,-0.167 0.85,-0.3 0.2,0.033 0.333,0.217 0.4,0.55 v 0.35 c 0,0.2 -0.184,0.483 -0.55,0.851 -0.3,0.233 -0.583,0.399 -0.85,0.5 -0.034,0.033 -0.167,0.066 -0.4,0.1 -0.2,0.033 -0.333,0.084 -0.4,0.15 -0.033,0.066 -0.066,0.233 -0.1,0.5 0,0.233 -0.033,0.383 -0.1,0.45 -0.034,0.066 -0.133,0.1 -0.3,0.1 -0.133,0.033 -0.233,0.017 -0.3,-0.05 -0.033,0 -0.049,-0.017 -0.05,-0.05 -0.1,-0.101 -0.167,-0.25 -0.2,-0.45 V 25.4 C 11.067,25.167 11.033,25 11,24.9 c -0.1,0 -0.4,0.083 -0.9,0.25 -0.133,0.066 -0.25,0.116 -0.35,0.149 h -0.2 c -0.1,-0.033 -0.167,-0.083 -0.2,-0.149 -0.133,-0.301 0,-0.551 0.4,-0.75 0.067,-0.034 0.333,-0.134 0.8,-0.301 L 10.25,22.4 c 0.033,-0.301 0.233,-0.517 0.6,-0.65 0.1,0 0.2,-0.033 0.3,-0.1 0.1,0.033 0.184,0.149 0.25,0.35 z m -0.9,7.65 0.2,0.051 c 0.034,0.066 0.067,0.133 0.1,0.199 0,0.167 -0.083,0.301 -0.25,0.4 -0.066,0.033 -0.15,0.066 -0.25,0.1 -0.2,0.067 -0.333,0.084 -0.4,0.051 -0.067,-0.034 -0.117,-0.117 -0.15,-0.25 -0.033,-0.067 -0.067,-0.15 -0.1,-0.25 0.033,0 0.067,-0.017 0.1,-0.051 0.066,-0.066 0.133,-0.149 0.2,-0.25 z m -3.55,-1.1 c 0.067,-0.033 0.184,0.017 0.35,0.15 0.067,0.066 0.167,0.166 0.3,0.3 0.2,0.133 0.383,0.184 0.55,0.149 0.1,0.2 0.117,0.351 0.05,0.45 C 8.233,29.9 8.117,29.967 7.95,30 c -0.367,0.1 -0.7,0.066 -1,-0.1 -0.3,-0.167 -0.4,-0.384 -0.3,-0.65 L 6.9,28.6 Z"
   fill="#9c3f2a"
   id="path995" />
	<path
   d="M 10,31.05 C 9.9,30.95 9.8,30.817 9.7,30.651 9.6,30.451 9.483,30.334 9.35,30.3 c -0.3,0 -0.533,0.066 -0.7,0.2 -0.066,0.033 -0.133,0.083 -0.2,0.15 -0.133,0.033 -0.233,0.066 -0.3,0.1 C 8.083,30.783 8.033,30.8 8,30.8 7.733,30.901 7.467,30.866 7.2,30.7 6.9,30.566 6.666,30.316 6.5,29.95 6.433,29.816 6.417,29.7 6.45,29.6 c 0,-0.166 0.05,-0.316 0.15,-0.449 0.2,-0.367 0.3,-0.601 0.3,-0.7 -0.033,-0.3 -0.05,-0.566 -0.05,-0.8 V 27.55 c 0,-0.066 -0.017,-0.133 -0.05,-0.2 0.033,0.032 0.049,0.066 0.05,0.101 v -0.15 l 0.45,0.8 c 0.6,0.801 1.417,1.217 2.45,1.25 0.267,0 0.55,-0.017 0.85,-0.05 0.2,-0.033 0.55,-0.133 1.05,-0.3 0.6,-0.233 1.417,-0.566 2.45,-1 1.167,-0.467 1.95,-0.9 2.35,-1.3 0.8,-0.834 1.117,-2.05 0.95,-3.65 0.167,0.434 0.3,0.867 0.4,1.3 v 0.15 c 0.034,0.167 0.05,0.333 0.05,0.5 0,0.167 0,0.3 0,0.4 -0.033,0.267 -0.083,0.483 -0.15,0.649 l -0.05,0.05 c -0.033,0.034 -0.066,0.067 -0.1,0.101 l -1.45,1.45 c -0.867,0.866 -1.567,1.517 -2.1,1.949 -0.4,0.334 -0.883,0.584 -1.45,0.75 -0.066,0.067 -0.133,0.117 -0.2,0.15 -0.133,0.066 -0.367,0.134 -0.7,0.2 -0.4,0.3 -0.717,0.467 -0.95,0.5 h -0.1 c -0.3,0 -0.483,-0.033 -0.55,-0.101 C 10.017,31.1 10,31.083 10,31.05 Z M 13.45,20.8 c 0.633,0.267 1.133,0.717 1.5,1.351 -0.934,-0.5 -1.784,-0.75 -2.55,-0.75 -0.667,-0.034 -1.383,0.149 -2.15,0.55 -0.7,0.366 -1.167,0.8 -1.4,1.3 v 0.05 c -0.133,0.8 -0.133,1.566 0,2.3 0.066,0.301 0.167,0.617 0.3,0.95 L 9.1,26.5 C 9.067,26.5 9.033,26.483 9,26.45 8.4,26.05 8.083,25.349 8.05,24.349 8.017,23.45 8.167,22.683 8.5,22.049 c 0.167,-0.267 0.4,-0.517 0.7,-0.75 0.2,-0.133 0.433,-0.267 0.7,-0.4 0.567,-0.233 1.15,-0.367 1.75,-0.4 h 0.15 l 1,0.1 z m -2.35,4.6 c -0.167,0 -0.417,0.066 -0.75,0.199 -0.167,0.067 -0.3,0.117 -0.4,0.15 -0.167,0.033 -0.3,-0.017 -0.4,-0.15 -0.033,-0.1 -0.033,-0.199 0,-0.3 h 0.2 c 0.1,-0.033 0.217,-0.083 0.35,-0.149 0.5,-0.167 0.8,-0.25 0.9,-0.25 0.033,0.1 0.067,0.267 0.1,0.5 z M 14.35,23 c 0.133,0.066 0.2,0.333 0.2,0.8 0,0.2 -0.183,0.483 -0.55,0.851 l -0.8,0.55 c -0.534,0.1 -0.817,0.166 -0.85,0.2 -0.033,0.066 -0.067,0.233 -0.1,0.5 0,0.233 -0.033,0.383 -0.1,0.449 -0.033,0.067 -0.133,0.101 -0.3,0.101 -0.133,0.033 -0.233,0.017 -0.3,-0.05 -0.133,-0.101 -0.216,-0.25 -0.25,-0.45 V 25.9 c 10e-4,0.033 0.018,0.05 0.05,0.05 0.066,0.066 0.167,0.083 0.3,0.05 0.167,0 0.267,-0.033 0.3,-0.1 0.066,-0.067 0.1,-0.217 0.1,-0.45 0.034,-0.267 0.067,-0.434 0.1,-0.5 0.067,-0.066 0.2,-0.117 0.4,-0.15 0.233,-0.033 0.367,-0.066 0.4,-0.1 0.267,-0.101 0.55,-0.267 0.85,-0.5 0.367,-0.367 0.55,-0.65 0.55,-0.851 z M 11.5,22.2 c 0.033,0.066 0.067,0.149 0.1,0.25 0.066,0.166 0.133,0.383 0.2,0.649 H 11.65 C 11.617,22.733 11.567,22.434 11.5,22.2 Z m -0.9,7.65 h -0.55 c -0.066,0.101 -0.133,0.184 -0.2,0.25 -0.033,0.034 -0.067,0.051 -0.1,0.051 0.033,0.1 0.067,0.183 0.1,0.25 0.033,0.133 0.083,0.216 0.15,0.25 0.067,0.033 0.2,0.017 0.4,-0.051 0.1,-0.033 0.184,-0.066 0.25,-0.1 0.167,-0.1 0.25,-0.233 0.25,-0.4 -0.033,-0.066 -0.066,-0.133 -0.1,-0.199 z M 7.05,28.75 6.9,28.6 6.65,29.25 c -0.1,0.267 0,0.483 0.3,0.65 0.3,0.166 0.633,0.199 1,0.1 C 8.117,29.967 8.233,29.9 8.3,29.8 8.367,29.7 8.35,29.55 8.25,29.35 8.083,29.384 7.9,29.333 7.7,29.2 7.567,29.066 7.467,28.967 7.4,28.9 7.233,28.767 7.117,28.717 7.05,28.75 Z"
   fill="#63281b"
   id="path997" />
	<path
   d="m 11.4,27.1 c -0.833,0 -1.55,-0.166 -2.15,-0.5 L 9.15,26.55 C 9.017,26.217 8.917,25.901 8.85,25.6 8.717,24.867 8.717,24.1 8.85,23.3 v -0.05 c 0.233,-0.5 0.7,-0.934 1.4,-1.3 0.767,-0.4 1.483,-0.584 2.15,-0.55 0.767,0 1.617,0.25 2.55,0.75 -0.367,-0.634 -0.867,-1.084 -1.5,-1.351 0.667,0.267 1.183,0.717 1.55,1.351 0.033,0.1 0.083,0.183 0.15,0.25 -0.066,0.267 -0.066,0.716 0,1.35 -0.066,0.634 -0.15,1.017 -0.25,1.15 -0.233,0.466 -0.5,0.833 -0.8,1.1 l -1.05,0.35 c -0.133,0.034 -0.25,0.067 -0.35,0.101 -0.034,0 -0.067,0.017 -0.1,0.05 l -0.5,0.15 -0.5,0.25 c -0.067,0.066 -0.133,0.132 -0.2,0.199 z M 9.55,25.3 c -0.033,0.101 -0.033,0.2 0,0.3 0.1,0.134 0.233,0.184 0.4,0.15 0.1,-0.033 0.233,-0.083 0.4,-0.15 0.333,-0.133 0.583,-0.199 0.75,-0.199 v 0.05 c 0.033,0.2 0.1,0.35 0.2,0.45 v 0.05 c 0.034,0.2 0.117,0.35 0.25,0.45 0.067,0.066 0.167,0.083 0.3,0.05 0.167,0 0.267,-0.033 0.3,-0.101 0.067,-0.066 0.1,-0.216 0.1,-0.449 0.033,-0.267 0.067,-0.434 0.1,-0.5 0.033,-0.034 0.316,-0.101 0.85,-0.2 l 0.8,-0.55 c 0.367,-0.367 0.55,-0.65 0.55,-0.851 0,-0.467 -0.066,-0.733 -0.2,-0.8 -0.067,-0.333 -0.2,-0.517 -0.4,-0.55 -0.367,0.133 -0.65,0.233 -0.85,0.3 L 12.3,23 11.8,23.1 c -0.066,-0.267 -0.133,-0.483 -0.2,-0.649 -0.033,-0.101 -0.067,-0.184 -0.1,-0.25 -0.033,-0.066 -0.067,-0.134 -0.1,-0.2 -0.066,-0.2 -0.15,-0.316 -0.25,-0.35 -0.1,0.066 -0.2,0.1 -0.3,0.1 -0.367,0.134 -0.567,0.35 -0.6,0.65 l 0.3,1.699 c -0.466,0.167 -0.733,0.267 -0.8,0.301 -0.4,0.199 -0.533,0.449 -0.4,0.75 0.033,0.066 0.1,0.116 0.2,0.149 z"
   fill="#8c3926"
   id="path999" />
</g>
<g
   transform="matrix(0.36421518,0,0,0.36421518,-86.309151,-83.481629)"
   id="g1101"><path
     d="m 316.07,281.98 c -0.43848,0.0485 -0.86293,0.0963 -1.3033,0.16735 -14.091,2.2736 -23.673,15.315 -21.394,29.118 2.279,13.803 15.553,23.187 29.644,20.913 5.324,-0.85901 9.9974,-3.2451 13.637,-6.6441 l 29.694,21.536 c 3.1211,-0.43375 5.3252,-2.5465 6.6369,-6.3641 l -31.28,-21.377 -0.60163,0.70667 c 2.9989,-4.9494 4.3139,-10.898 3.3056,-17.007 -2.2073,-13.372 -14.746,-22.554 -28.338,-21.049 z m 0.11619,1.0566 c 13.018,-1.4415 25.056,7.3638 27.17,20.171 2.1822,13.221 -8.3072,25.742 -21.803,27.919 -13.4958,2.177 -24.913,-6.7908 -27.096,-20.011 -2.183,-13.2202 6.9914,-25.739 20.488,-27.917 0.42175,-0.0681 0.82103,-0.11586 1.241,-0.16234 z"
     fill="url(#h)"
     fill-rule="evenodd"
     filter="url(#i)"
     id="path1085"
     style="fill:url(#h)" /><path
     d="m 344.17,310.53 29.617,27.048 c -1.8924,3.876 -4.5006,5.8091 -7.81,5.8386 l -28.02,-27.098 6.2131,-5.7887 z"
     fill="#807d74"
     fill-rule="evenodd"
     id="path1087" /><path
     d="m 344.99,308.54 c -25.578,26.694 -58.357,-3.9253 -41.04,-28.541 -22.474,26.707 17.052,59.24 41.04,28.541 z"
     fill="#273f57"
     fill-opacity="0.99608"
     id="path1089" /><path
     d="m 349.3,294.36 c 0.43574,13.265 -10.536,24.367 -24.49,24.781 -13.954,0.414 -25.633,-10.015 -26.068,-23.281 -0.435,-13.266 10.536,-24.367 24.49,-24.781 13.954,-0.414 25.633,10.015 26.068,23.281 z"
     fill="url(#c)"
     fill-rule="evenodd"
     stroke="#314e6c"
     stroke-opacity="0.99524"
     stroke-width="1.1349"
     id="path1091"
     style="fill:url(#c)" /><path
     d="m 334.58,277.67 c 3.5711,4.2824 -0.18987,12.776 -8.395,18.96 -8.20513,6.184 -17.763,7.7262 -21.334,3.4438 -3.571,-4.2824 0.18987,-12.776 8.3951,-18.96 8.20523,-6.184 17.763,-7.7263 21.334,-3.4438 z"
     fill="url(#g)"
     fill-opacity="0.09091"
     fill-rule="evenodd"
     id="path1093"
     style="fill:url(#g)" /><path
     d="m 310.11,312.32 c 14.494,4.309 31.856,-4.4673 36.424,-18.217 4.4147,12.575 -23.28,39.532 -36.424,18.217 z"
     fill="url(#f)"
     fill-opacity="0.55208"
     fill-rule="evenodd"
     id="path1095"
     style="fill:url(#f)" /><path
     d="m 339.59,316.19 4.6224,-4.3825 27.972,25.693 c 1.2331,3.3285 -0.44562,5.6816 -6.1006,4.8803 l -26.493,-26.19 z"
     fill="url(#e)"
     fill-opacity="0.75"
     fill-rule="evenodd"
     id="path1097"
     style="fill:url(#e)" /><path
     d="m 338.94,316.82 4.6224,-4.3825 27.972,25.693 c 1.2331,3.3285 -0.44562,5.6816 -6.1006,4.8803 l -26.493,-26.19 z"
     fill="url(#d)"
     fill-rule="evenodd"
     id="path1099"
     style="fill:url(#d)" /></g></svg>
