<?xml version="1.0" encoding="UTF-8"?>
<svg viewBox="0 0 540.75085 512.7453" xmlns="http://www.w3.org/2000/svg" xmlns:xlink="http://www.w3.org/1999/xlink">
 <defs>
  <filter id="i">
   <feGaussianBlur stdDeviation="1.08899"/>
  </filter>
  <linearGradient id="b">
   <stop offset="0"/>
   <stop stop-opacity="0" offset="1"/>
  </linearGradient>
  <linearGradient id="a">
   <stop stop-color="#fff" stop-opacity=".74902" offset="0"/>
   <stop stop-color="#fff" stop-opacity="0" offset="1"/>
  </linearGradient>
  <linearGradient id="d" x1="350.72" x2="358.85" y1="336.37" y2="327.81" gradientUnits="userSpaceOnUse" xlink:href="#b"/>
  <linearGradient id="e" x1="110.05" x2="103.69" y1="138.24" y2="145.34" gradientTransform="matrix(1.0182 -.031794 .03064 .9812 248.5 191.29)" gradientUnits="userSpaceOnUse" xlink:href="#a"/>
  <linearGradient id="f" x1="42.498" x2="54.322" y1="103.57" y2="167.94" gradientTransform="matrix(1.1879 -.035264 .025189 .76682 265.96 191.04)" gradientUnits="userSpaceOnUse" xlink:href="#a"/>
  <linearGradient id="g" x1="57.668" x2="60.491" y1="84.017" y2="111.24" gradientTransform="matrix(1.1482 -.034084 .030664 .93348 252.43 191.06)" gradientUnits="userSpaceOnUse" xlink:href="#a"/>
  <linearGradient id="h" x1="411.95" x2="293.04" y1="375.77" y2="296.55" gradientUnits="userSpaceOnUse" xlink:href="#b"/>
  <radialGradient id="c" cx="61.564" cy="105.94" r="27.959" fx="69.987" fy="90.419" gradientTransform="matrix(1.1767 -.065706 .062292 1.0082 242.27 193.3)" gradientUnits="userSpaceOnUse">
   <stop stop-color="#fff" stop-opacity=".57047" offset="0"/>
   <stop stop-color="#96b0c6" stop-opacity=".89933" offset="1"/>
  </radialGradient>
 </defs>
 <g transform="matrix(5.8474 0 0 5.8474 -1684.9 -1550.3)">
  <path d="m316.07 281.98c-0.43848 0.04855-0.86293 0.0963-1.3033 0.16735-14.091 2.2736-23.673 15.315-21.394 29.118s15.553 23.187 29.644 20.913c5.324-0.85901 9.9974-3.2451 13.637-6.6441l29.694 21.536c3.1211-0.43375 5.3252-2.5465 6.6369-6.3641l-31.28-21.377-0.60163 0.70667c2.9989-4.9494 4.3139-10.898 3.3056-17.007-2.2073-13.372-14.746-22.554-28.338-21.049zm0.11619 1.0566c13.018-1.4415 25.056 7.3638 27.17 20.171 2.1822 13.221-8.3072 25.742-21.803 27.919s-24.913-6.7908-27.096-20.011 6.9914-25.739 20.488-27.917c0.42175-0.06806 0.82103-0.11586 1.241-0.16234z" fill="url(#h)" fill-rule="evenodd" filter="url(#i)"/>
  <path d="m344.17 310.53 29.617 27.048c-1.8924 3.876-4.5006 5.8091-7.81 5.8386l-28.02-27.098 6.2131-5.7887z" fill="#807d74" fill-rule="evenodd"/>
  <path d="m344.99 308.54c-25.578 26.694-58.357-3.9253-41.04-28.541-22.474 26.707 17.052 59.24 41.04 28.541z" fill="#273f57" fill-opacity=".99608"/>
  <path d="m349.3 294.36c0.43574 13.265-10.536 24.367-24.49 24.781s-25.633-10.015-26.068-23.281 10.536-24.367 24.49-24.781 25.633 10.015 26.068 23.281z" fill="url(#c)" fill-rule="evenodd" stroke="#314e6c" stroke-opacity=".99524" stroke-width="1.1349"/>
  <path d="m334.58 277.67c3.5711 4.2824-0.18987 12.776-8.395 18.96s-17.763 7.7262-21.334 3.4438 0.18987-12.776 8.3951-18.96 17.763-7.7263 21.334-3.4438z" fill="url(#g)" fill-opacity=".09091" fill-rule="evenodd"/>
  <path d="m310.11 312.32c14.494 4.309 31.856-4.4673 36.424-18.217 4.4147 12.575-23.28 39.532-36.424 18.217z" fill="url(#f)" fill-opacity=".55208" fill-rule="evenodd"/>
  <path d="m339.59 316.19 4.6224-4.3825 27.972 25.693c1.2331 3.3285-0.44562 5.6816-6.1006 4.8803l-26.493-26.19z" fill="url(#e)" fill-opacity=".75" fill-rule="evenodd"/>
  <path d="m338.94 316.82 4.6224-4.3825 27.972 25.693c1.2331 3.3285-0.44562 5.6816-6.1006 4.8803l-26.493-26.19z" fill="url(#d)" fill-rule="evenodd"/>
 </g>
</svg>
