<?xml version="1.0" standalone="no"?>
<!DOCTYPE svg PUBLIC "-//W3C//DTD SVG 20010904//EN"
 "http://www.w3.org/TR/2001/REC-SVG-20010904/DTD/svg10.dtd">
<svg version="1.0" xmlns="http://www.w3.org/2000/svg"
 width="832.000000pt" height="832.000000pt" viewBox="0 0 832.000000 832.000000"
 preserveAspectRatio="xMidYMid meet">
<metadata>
Created by potrace 1.14, written by Peter Selinger 2001-2017
</metadata>
<g transform="translate(0.000000,832.000000) scale(0.100000,-0.100000)"
fill="#000000" stroke="none">
<path d="M3783 6970 c-33 -19 -53 -37 -53 -48 0 -36 -69 -160 -144 -259 -42
-56 -83 -118 -91 -137 -23 -55 -18 -113 19 -201 l34 -80 89 3 c165 6 222 43
313 204 72 127 131 209 184 255 36 31 44 46 49 83 3 25 3 51 -1 57 -8 13 -314
153 -334 153 -7 0 -37 -14 -65 -30z"/>
<path d="M3576 6768 c-4 -9 -5 -22 -1 -28 8 -13 45 -13 45 0 0 6 -6 10 -14 10
-8 0 -16 8 -19 18 -4 16 -4 16 -11 0z"/>
<path d="M3510 6720 c-9 -23 -10 -33 -1 -44 9 -10 8 -15 -4 -20 -10 -4 -15 1
-15 15 0 36 -25 14 -28 -24 -3 -32 0 -37 18 -37 22 0 117 86 107 96 -3 4 -13
-1 -22 -10 -18 -18 -41 -21 -49 -7 -8 13 4 42 15 35 5 -3 9 2 9 10 0 26 -17
18 -30 -14z"/>
<path d="M3530 6700 c0 -5 7 -7 15 -4 8 4 15 8 15 10 0 2 -7 4 -15 4 -8 0 -15
-4 -15 -10z"/>
<path d="M5245 6628 c11 -37 40 -73 64 -76 17 -3 21 2 21 22 0 18 -11 33 -37
51 -46 31 -56 31 -48 3z"/>
<path d="M4499 6590 c-43 -53 -69 -101 -69 -129 0 -16 7 -20 33 -19 61 0 207
57 207 81 0 14 -97 -1 -133 -20 -28 -14 -30 -14 -22 3 13 32 26 97 23 113 -2
10 -15 1 -39 -29z"/>
<path d="M4745 6620 c-9 -14 40 -31 109 -37 46 -5 57 -3 51 6 -19 32 -145 56
-160 31z"/>
<path d="M5371 6567 c-11 -32 -10 -42 6 -74 23 -46 36 -51 51 -18 18 39 15 57
-17 95 l-28 34 -12 -37z"/>
<path d="M4627 6574 c-58 -31 4 -45 102 -22 28 6 51 15 51 19 0 22 -113 25
-153 3z"/>
<path d="M4886 6512 c-9 -15 -65 -347 -64 -382 0 -19 -1 -42 -3 -50 -3 -13 25
-15 216 -15 l220 0 3 29 c3 26 1 28 -21 22 -31 -7 -360 -47 -363 -43 -2 1 85
25 193 52 107 26 197 54 200 61 2 7 3 21 1 32 -3 19 -14 16 -158 -39 -214 -82
-216 -81 -36 13 161 84 191 107 169 129 -13 13 -96 -33 -283 -158 l-95 -63 55
51 c30 28 106 90 167 137 62 48 113 92 113 98 0 6 -6 16 -13 22 -10 9 -40 -14
-133 -100 -65 -61 -132 -123 -148 -137 -39 -34 81 112 166 204 51 54 64 75 56
83 -27 27 -47 8 -144 -129 -54 -78 -105 -148 -112 -157 -21 -27 25 64 100 196
49 86 67 127 60 134 -6 6 -17 8 -25 5 -16 -6 -65 -106 -128 -260 -23 -59 -44
-105 -46 -103 -2 1 19 80 47 174 27 94 50 178 50 186 0 16 -35 22 -44 8z"/>
<path d="M5203 6509 c27 -16 128 -49 149 -49 29 0 17 22 -23 42 -38 20 -159
26 -126 7z"/>
<path d="M5470 6479 c-11 -19 -23 -47 -27 -62 l-6 -28 -21 20 c-27 25 -69 41
-109 41 l-32 0 30 -25 c44 -37 115 -78 122 -71 3 3 12 1 20 -6 10 -8 19 -6 38
12 20 19 25 33 25 74 0 74 -13 88 -40 45z"/>
<path d="M4786 6493 c-18 -5 -18 -13 -12 -127 3 -66 9 -143 13 -171 3 -27 3
-48 0 -45 -3 3 -22 70 -42 150 -21 80 -39 148 -42 152 -6 11 -43 -15 -43 -29
0 -7 25 -75 55 -150 30 -75 53 -138 51 -140 -1 -2 -38 53 -80 122 -43 69 -81
125 -85 125 -4 0 -17 -9 -29 -21 l-22 -20 117 -132 c64 -73 120 -133 124 -135
3 -2 9 7 13 20 10 37 19 408 10 407 -5 -1 -18 -4 -28 -6z"/>
<path d="M4346 6433 c-40 -80 -47 -112 -34 -136 10 -20 11 -20 29 4 10 13 19
18 19 11 0 -9 13 -6 42 9 61 31 154 102 140 107 -21 7 -82 -19 -128 -54 -27
-21 -41 -28 -36 -17 16 30 19 133 4 133 -4 0 -21 -26 -36 -57z"/>
<path d="M5518 6342 c-21 -20 -41 -48 -46 -62 l-9 -24 -14 29 c-16 33 -72 75
-100 75 -17 0 -17 -2 3 -37 23 -41 77 -103 89 -103 4 0 10 8 12 18 3 10 5 6 6
-10 1 -37 23 -36 55 2 28 34 61 129 48 142 -4 4 -24 -9 -44 -30z"/>
<path d="M6044 6282 c-41 -37 -56 -61 -74 -112 -30 -87 -71 -168 -136 -267
-95 -147 -106 -224 -49 -358 20 -46 39 -79 47 -78 31 4 168 44 201 58 69 29
105 72 177 214 87 172 127 238 194 321 43 53 55 76 60 116 6 37 4 53 -6 62
-11 9 -334 92 -356 92 -4 0 -30 -22 -58 -48z"/>
<path d="M4236 6309 c-29 -86 -33 -164 -10 -194 13 -17 16 -18 24 -5 5 8 10
22 10 30 0 12 2 13 9 1 7 -11 16 -8 46 15 38 30 129 143 121 151 -8 9 -118
-80 -141 -115 l-23 -33 -4 70 c-3 68 -21 112 -32 80z"/>
<path d="M4482 6260 c-6 -11 -12 -22 -12 -24 0 -3 61 -37 135 -77 74 -40 134
-73 132 -75 -1 -2 -68 17 -147 41 -80 25 -150 45 -155 45 -6 0 -16 -14 -22
-30 -14 -36 -23 -33 167 -55 181 -21 174 -21 179 -10 5 10 -237 205 -254 205
-6 0 -16 -9 -23 -20z"/>
<path d="M5360 6233 c0 -37 29 -137 45 -152 21 -21 30 -6 30 50 0 43 -4 53
-37 86 -34 34 -38 35 -38 16z"/>
<path d="M5531 6184 c-48 -42 -101 -110 -101 -131 0 -21 36 -15 69 12 31 27
86 126 79 145 -2 6 -23 -6 -47 -26z"/>
<path d="M3455 6180 c-3 -5 -1 -10 4 -10 6 0 11 5 11 10 0 6 -2 10 -4 10 -3 0
-8 -4 -11 -10z"/>
<path d="M7580 6179 c-70 -17 -218 -41 -339 -55 -68 -7 -125 -15 -126 -16 -10
-11 -410 -753 -655 -1215 -68 -128 -126 -233 -130 -233 -4 0 -22 23 -40 52
-205 316 -557 547 -964 630 -78 17 -144 22 -292 24 -105 1 -201 5 -212 9 -29
9 -94 9 -121 0 -15 -5 -20 -12 -16 -25 10 -31 -38 -31 -86 2 -23 15 -50 28
-61 28 -23 0 -24 -27 -2 -58 9 -13 14 -24 13 -26 -2 -1 -44 -17 -94 -35 -100
-37 -224 -101 -300 -155 -49 -35 -49 -35 -79 -18 -16 9 -31 22 -33 29 -2 6 18
26 44 44 62 42 103 79 103 96 0 16 -130 143 -147 143 -14 0 -43 -50 -43 -73 0
-8 17 -29 37 -47 35 -31 36 -33 18 -46 -10 -8 -22 -14 -26 -14 -4 0 -23 -22
-43 -49 -47 -64 -48 -99 -2 -139 l35 -30 -82 -81 -81 -81 -23 21 c-19 19 -26
20 -51 10 -31 -13 -52 -47 -52 -83 0 -17 -4 -19 -27 -13 -16 3 -45 17 -66 31
-30 20 -37 29 -31 46 6 21 -13 137 -26 151 -9 10 -45 -7 -76 -34 -21 -19 -21
-19 -33 34 -6 30 -21 64 -32 76 -23 24 -66 28 -94 7 -17 -12 -21 -12 -33 5
-22 31 -69 25 -92 -13 -28 -47 -42 -122 -29 -152 16 -35 40 -41 61 -16 l17 21
11 -21 c17 -31 45 -24 71 18 l23 37 9 -48 c7 -34 17 -53 34 -64 24 -16 26 -16
38 0 11 15 16 11 39 -38 32 -64 84 -110 146 -130 43 -13 46 -12 66 10 12 13
25 21 28 18 13 -13 4 -44 -30 -105 -117 -204 -191 -410 -210 -575 -7 -71 -15
-81 -67 -85 -46 -3 -54 5 -23 22 28 14 54 67 40 80 -28 26 -174 -96 -174 -146
0 -41 83 -54 185 -28 25 6 25 6 25 -62 0 -138 49 -356 109 -489 l30 -65 -54 0
c-29 0 -80 -8 -114 -19 -153 -48 -247 -147 -287 -302 -29 -115 8 -195 116
-247 l61 -29 -82 -6 -82 -5 -56 48 c-31 27 -72 69 -91 94 -50 64 -90 58 -90
-12 0 -28 11 -45 64 -100 l64 -67 -37 -17 c-80 -38 -165 -150 -159 -210 4 -43
34 -58 116 -58 70 0 174 30 270 79 l57 29 59 -30 c33 -17 148 -64 255 -105
108 -41 197 -75 198 -77 2 -2 -37 -34 -87 -72 -50 -38 -93 -76 -95 -85 -7 -21
4 -49 19 -49 6 0 60 43 120 94 l109 94 51 -20 c28 -11 63 -25 78 -30 15 -5 37
-25 48 -43 56 -91 185 -177 280 -187 29 -3 37 2 57 31 26 39 24 46 -17 54 -37
8 -132 48 -126 54 2 2 32 -3 66 -12 52 -13 65 -14 76 -3 11 12 18 45 15 74 -1
6 -38 21 -83 32 -46 12 -120 34 -166 49 -78 27 -84 31 -111 77 l-28 50 70 107
c61 94 77 112 122 135 l51 27 95 -40 c172 -73 369 -113 563 -113 l108 0 -17
-27 c-42 -67 -232 -328 -315 -433 -50 -63 -126 -160 -169 -215 -98 -126 -230
-280 -239 -280 -10 1 -106 12 -438 50 -229 27 -324 43 -449 75 -366 93 -738
248 -1116 466 -164 94 -462 290 -569 374 -45 35 -408 288 -522 364 -49 32 -88
60 -88 62 0 2 16 -4 35 -12 40 -16 86 -18 132 -5 26 8 33 6 38 -7 7 -23 90
-75 119 -74 13 0 47 7 76 17 41 14 57 15 76 6 14 -6 39 -11 56 -11 18 0 41 -9
52 -19 15 -14 46 -23 104 -30 95 -12 115 -6 130 38 6 16 20 34 31 41 13 6 21
21 21 35 0 19 5 25 23 25 61 0 298 96 348 142 15 12 62 68 107 123 95 119 120
143 192 187 30 18 89 57 131 85 86 58 102 83 126 196 27 129 -2 392 -52 467
-30 46 -308 326 -409 413 -85 74 -223 170 -296 207 -25 12 -60 35 -77 51 -51
44 -132 62 -159 35 -8 -8 -48 -22 -90 -32 -65 -14 -84 -15 -134 -4 -50 11 -69
10 -127 -4 -37 -9 -101 -21 -141 -26 -81 -11 -132 -33 -132 -55 0 -8 5 -15 10
-15 7 0 7 -6 0 -17 -23 -42 -78 -172 -95 -223 -27 -83 -44 -113 -61 -106 -28
11 -53 -14 -125 -122 -103 -152 -124 -201 -124 -287 0 -58 5 -80 28 -124 47
-89 144 -397 150 -478 5 -66 3 -76 -29 -143 -51 -106 -43 -159 35 -244 l26
-29 -45 30 c-81 54 -311 193 -320 193 -5 0 -84 -96 -176 -212 l-167 -213 64
-18 c363 -102 702 -247 1439 -612 411 -204 587 -282 795 -355 466 -163 1002
-266 1535 -295 l115 -6 186 218 c180 211 438 534 604 756 70 94 85 109 120
117 111 29 257 89 406 168 90 49 178 96 194 107 l30 19 -30 -32 -29 -32 78
-79 78 -79 -103 -126 c-139 -170 -159 -197 -159 -213 0 -8 24 -25 53 -37 29
-13 73 -39 97 -58 492 -376 677 -516 1060 -802 250 -188 472 -349 493 -358
114 -54 272 30 371 196 38 64 48 128 24 165 -9 15 -7 24 9 47 20 29 63 109 63
118 0 3 -383 354 -850 781 -502 458 -848 781 -844 787 4 6 31 44 59 84 113
157 207 380 240 571 28 161 19 397 -22 561 l-15 62 68 113 c336 554 745 1209
960 1535 73 111 130 202 126 201 -4 -1 -23 -5 -42 -10z m-2235 -918 c359 -86
651 -273 853 -548 63 -86 126 -205 124 -236 0 -9 3 -15 9 -12 5 4 9 4 9 1 0
-2 3 -13 6 -23 5 -15 4 -15 -5 -3 -14 19 -14 4 0 -40 6 -19 14 -78 18 -130 l6
-95 20 33 c10 17 22 32 26 32 17 0 34 -146 34 -295 0 -171 -14 -262 -61 -405
-44 -133 -154 -333 -154 -280 0 8 -18 -4 -40 -25 -22 -21 -40 -46 -40 -55 0
-9 -7 -25 -15 -36 -8 -10 -15 -28 -15 -38 0 -28 -163 -184 -260 -248 -47 -31
-130 -79 -185 -106 -99 -50 -285 -117 -305 -110 -6 2 46 86 114 188 68 102
123 186 123 186 -1 1 -54 -15 -117 -37 l-115 -38 -60 -85 c-33 -47 -82 -117
-109 -155 -56 -79 -58 -80 -210 -83 l-101 -2 100 -6 100 -6 -81 -2 c-44 -1
-127 5 -185 13 -165 23 -374 85 -353 104 5 4 45 35 89 68 104 78 155 129 155
153 0 34 -33 23 -80 -26 -58 -59 -233 -176 -251 -168 -8 3 -30 24 -49 46 l-34
40 38 73 c41 75 43 105 7 105 -20 0 -53 -39 -65 -77 -15 -47 -29 -47 -123 2
-48 25 -103 54 -122 65 -117 67 -275 294 -354 510 -41 113 -73 265 -59 283 5
7 12 27 15 45 5 25 2 36 -13 49 -24 21 -27 95 -9 235 10 76 14 88 30 88 11 0
28 14 39 32 20 33 26 29 32 -22 3 -27 9 -28 90 -15 41 6 47 5 58 -14 9 -17 8
-33 -3 -71 -12 -41 -12 -51 -1 -61 19 -16 33 -3 60 58 32 72 32 126 -2 160
-23 23 -31 25 -85 20 l-59 -5 0 33 c0 66 -18 79 -73 50 -27 -14 -28 -14 -22 8
4 12 29 70 57 129 50 105 51 106 82 101 46 -7 69 23 74 100 l5 62 96 95 96 96
85 -6 c47 -4 90 -5 96 -3 16 5 46 62 39 73 -3 6 -30 10 -58 10 l-52 0 25 20
c80 64 408 198 451 185 11 -4 19 -2 19 3 0 6 33 15 73 22 39 6 79 13 87 15 8
2 101 2 205 1 151 -3 208 -8 280 -25z m-1708 -2116 c28 -9 71 -212 59 -278 -8
-43 -116 -164 -116 -130 0 31 -9 33 -72 16 -72 -20 -130 -12 -199 30 -61 37
-84 73 -75 122 9 46 128 182 186 212 70 36 155 47 217 28z m433 -414 c41 -29
75 -55 75 -59 0 -26 -41 -103 -57 -108 -38 -12 -147 -5 -178 11 -24 12 -35 14
-45 5 -10 -9 -34 -9 -92 0 -73 11 -164 30 -171 36 -2 1 23 34 56 74 83 98 121
186 122 277 0 31 2 30 108 -76 59 -59 141 -131 182 -160z m5 229 c10 -11 16
-20 13 -20 -3 0 -13 9 -23 20 -10 11 -16 20 -13 20 3 0 13 -9 23 -20z m1062
-356 c-3 -3 -12 -4 -19 -1 -8 3 -5 6 6 6 11 1 17 -2 13 -5z m-1952 -84 c17
-18 16 -19 -11 -26 -16 -4 -53 -18 -83 -30 -29 -13 -55 -24 -57 -24 -3 0 5 18
16 39 29 57 100 79 135 41z m398 -36 c113 -43 196 -64 263 -64 48 0 51 -1 73
-41 20 -35 21 -43 9 -55 -12 -12 -46 -2 -248 76 -128 49 -235 90 -238 90 -2 0
1 7 8 15 18 21 29 19 133 -21z"/>
<path d="M4418 5112 c-39 -53 -54 -87 -40 -96 19 -12 102 88 102 122 0 35 -23
25 -62 -26z"/>
<path d="M4543 5055 c-38 -16 -66 -55 -61 -87 5 -36 43 -35 89 2 l39 31 0 -26
c0 -27 20 -34 38 -12 6 7 14 31 18 54 5 32 3 41 -11 47 -12 4 -18 0 -22 -14
-7 -25 -19 -26 -33 0 -13 23 -15 24 -57 5z"/>
<path d="M3988 4753 c-16 -40 -22 -163 -9 -196 10 -26 15 -28 51 -26 36 3 43
0 65 -33 57 -84 125 -58 184 70 20 42 23 58 15 80 -16 44 -42 34 -72 -28 -22
-45 -32 -55 -52 -55 -20 0 -30 10 -50 49 -28 54 -43 64 -66 45 -14 -12 -15 -8
-9 33 11 76 -32 122 -57 61z"/>
<path d="M4032 4248 c-62 -67 -51 -212 19 -262 28 -19 83 -21 96 -3 28 35 23
48 -22 67 -62 26 -66 44 -21 81 44 37 48 74 11 113 -30 32 -55 33 -83 4z"/>
<path d="M4215 4114 c-12 -12 -14 -27 -10 -63 10 -69 11 -71 52 -71 32 -1 41
-6 58 -33 27 -42 56 -46 89 -10 29 31 38 97 12 87 -8 -3 -17 -12 -20 -20 -9
-24 -25 -16 -45 25 -18 34 -25 39 -53 38 -30 -2 -33 1 -36 31 -4 35 -21 41
-47 16z"/>
<path d="M4481 4083 c-23 -48 -26 -147 -7 -198 33 -86 140 -154 268 -170 56
-7 56 -7 62 22 11 49 -7 81 -51 88 -129 22 -233 83 -233 137 0 9 8 33 17 53
16 34 16 36 -3 62 -28 37 -38 38 -53 6z"/>
<path d="M3679 3847 c-34 -25 -52 -87 -26 -87 19 0 44 30 52 61 8 31 -4 42
-26 26z"/>
<path d="M3778 3763 c-9 -10 -22 -37 -28 -60 -10 -34 -10 -48 0 -74 l13 -31
81 6 c45 4 99 8 121 10 65 4 125 31 125 58 0 16 -65 8 -98 -12 -41 -25 -42
-25 -42 3 0 42 -27 67 -73 67 -34 0 -44 4 -52 22 -13 29 -28 32 -47 11z"/>
<path d="M4877 3763 c-21 -21 2 -123 27 -123 32 0 40 74 12 119 -8 12 -29 15
-39 4z"/>
<path d="M5001 3674 c-28 -36 -27 -44 8 -44 33 0 54 21 49 47 -5 28 -34 27
-57 -3z"/>
<path d="M4078 3617 c-35 -29 -55 -72 -59 -127 l-4 -45 85 1 c47 1 139 3 204
5 117 4 119 5 140 32 18 24 19 29 6 37 -21 13 -156 12 -262 -2 -107 -14 -121
-7 -89 45 21 34 28 77 14 77 -5 0 -20 -10 -35 -23z"/>
<path d="M5143 3614 c-12 -19 -14 -30 -6 -43 15 -24 35 -19 46 12 18 54 -10
76 -40 31z"/>
<path d="M4515 3378 c-16 -39 -12 -48 20 -48 26 0 55 33 55 62 0 13 -8 18 -30
18 -25 0 -33 -6 -45 -32z"/>
<path d="M4135 6059 c-7 -81 7 -133 42 -146 53 -21 39 125 -20 202 -14 18 -15
14 -22 -56z"/>
<path d="M5336 6098 c-8 -30 -6 -146 3 -177 6 -21 8 -22 20 -8 20 25 25 93 11
153 -14 58 -24 67 -34 32z"/>
<path d="M4536 6050 l-160 -5 -7 -29 c-5 -17 -7 -31 -5 -33 1 -1 80 11 175 27
95 17 176 30 179 29 4 0 -76 -29 -178 -63 -175 -59 -185 -64 -188 -89 -2 -15
1 -27 7 -27 6 0 86 34 178 75 91 41 168 73 170 71 2 -2 -70 -47 -159 -100 -90
-53 -168 -100 -175 -104 -13 -8 -6 -52 8 -52 5 0 80 50 166 111 87 62 172 121
188 132 l30 20 -25 -25 c-20 -20 -327 -287 -338 -294 -2 -1 2 -13 9 -26 12
-22 17 -18 162 132 l150 155 -128 -169 c-100 -131 -126 -172 -118 -184 5 -9
14 -17 20 -19 13 -5 303 446 303 469 0 4 -84 4 -264 -2z"/>
<path d="M4830 6045 c0 -10 283 -215 296 -215 13 0 34 30 34 47 0 5 -63 40
-140 78 -76 38 -138 71 -136 73 3 2 124 -31 307 -84 10 -3 20 5 28 22 6 15 10
29 7 31 -4 5 -349 53 -378 53 -10 0 -18 -2 -18 -5z"/>
<path d="M4804 6025 c-4 -11 -11 -22 -15 -25 -4 -3 -34 -104 -67 -225 l-59
-220 24 -3 c14 -2 27 -1 30 1 2 3 20 98 39 213 19 114 36 209 37 211 2 1 1
-90 -1 -202 -3 -113 -2 -205 1 -205 3 0 18 5 32 12 23 10 25 16 21 47 -10 68
-29 318 -25 330 3 7 22 -59 43 -146 22 -87 42 -162 46 -166 10 -11 50 10 50
26 0 7 -29 82 -65 167 -35 84 -63 155 -62 157 3 2 153 -213 189 -270 8 -13 48
19 47 37 0 6 -58 72 -129 146 -111 116 -130 132 -136 115z"/>
<path d="M5474 6006 c-51 -34 -124 -113 -124 -135 0 -32 97 15 136 65 34 44
64 91 64 99 0 13 -29 2 -76 -29z"/>
<path d="M5850 6007 c-22 -9 -23 -11 -6 -14 10 -3 23 0 29 6 16 16 5 20 -23 8z"/>
<path d="M4267 5955 c-21 -33 -45 -84 -53 -113 l-16 -53 -16 33 c-16 30 -73
78 -94 78 -9 0 -4 -44 13 -112 7 -26 19 -42 39 -53 46 -24 60 -20 60 18 0 21
3 28 9 19 14 -23 49 33 77 124 36 114 29 135 -19 59z"/>
<path d="M5260 5903 c-34 -71 -46 -152 -23 -160 7 -2 26 15 42 38 27 36 31 51
31 103 0 94 -12 99 -50 19z"/>
<path d="M5722 5905 c-31 -67 3 -87 60 -36 36 32 32 51 -7 33 -22 -10 -25 -9
-25 8 0 28 -15 25 -28 -5z"/>
<path d="M5383 5819 c-46 -14 -74 -31 -107 -65 -25 -25 -46 -50 -46 -55 0 -19
59 -8 101 20 47 32 140 122 124 120 -6 0 -38 -10 -72 -20z"/>
<path d="M4263 5773 c-19 -40 -27 -76 -27 -115 l-1 -57 -25 23 c-31 29 -74 51
-117 61 -29 6 -32 4 -26 -12 13 -35 52 -91 75 -107 12 -9 42 -16 66 -16 39 0
44 2 39 20 -3 11 -2 20 3 20 16 0 42 88 47 163 3 42 3 77 -1 77 -4 0 -19 -26
-33 -57z"/>
<path d="M3021 5733 c-43 -62 -61 -97 -61 -119 0 -33 22 -60 40 -49 19 12 140
190 140 206 0 18 -30 49 -48 49 -6 0 -38 -39 -71 -87z"/>
<path d="M5156 5756 c-45 -69 -91 -165 -82 -173 3 -3 17 2 30 11 45 29 102
149 94 198 -3 20 -9 14 -42 -36z"/>
<path d="M3180 5720 c-16 -17 -38 -56 -49 -86 -44 -117 -18 -173 74 -160 40 6
45 5 45 -11 0 -11 6 -28 14 -38 22 -30 120 -24 193 12 l58 29 -1 47 c0 28 -6
54 -15 62 -13 14 -21 12 -70 -15 -73 -40 -79 -39 -79 16 0 77 -25 101 -73 69
-22 -14 -23 -14 -19 20 4 36 -18 85 -39 85 -6 0 -24 -14 -39 -30z"/>
<path d="M4310 5655 c-6 -16 -12 -56 -13 -87 -1 -47 2 -62 20 -79 48 -48 66
34 29 131 l-24 65 -12 -30z"/>
<path d="M4988 5602 c-64 -64 -106 -131 -90 -146 4 -4 -1 -12 -11 -17 -27 -16
-20 -26 28 -44 38 -15 52 -16 92 -6 49 13 127 53 139 72 5 8 -24 10 -102 7
l-109 -4 46 48 c44 45 68 84 84 136 10 35 -5 26 -77 -46z"/>
<path d="M5222 5634 c-80 -21 -168 -76 -156 -96 16 -26 138 14 210 68 17 13
38 24 47 24 9 0 19 5 22 10 9 14 -60 11 -123 -6z"/>
<path d="M4385 5536 c-9 -45 0 -81 25 -106 20 -20 64 -27 74 -12 12 19 -16 80
-53 116 l-40 39 -6 -37z"/>
<path d="M4885 5550 c-4 -6 -24 -20 -47 -31 -49 -25 -128 -96 -128 -115 0 -16
37 -11 80 12 38 19 120 112 120 136 0 11 -18 10 -25 -2z"/>
<path d="M3567 5524 c-33 -35 -71 -119 -64 -138 10 -26 37 -18 55 15 9 17 30
47 45 67 48 61 16 112 -36 56z"/>
<path d="M3662 5477 c-70 -71 -76 -94 -38 -149 13 -19 24 -48 24 -63 0 -30 34
-71 51 -61 6 4 30 35 52 69 34 52 39 68 35 97 -4 19 -6 55 -6 78 1 45 -21 92
-43 92 -7 0 -41 -28 -75 -63z"/>
<path d="M4670 5479 c-105 -30 -153 -80 -91 -94 46 -10 96 11 136 58 54 63 53
64 -45 36z"/>
<path d="M4110 5482 c0 -14 65 -51 114 -64 45 -12 80 -7 110 15 19 14 18 15
-14 32 -40 21 -210 35 -210 17z"/>
<path d="M2744 5413 c-34 -35 -71 -115 -80 -170 l-7 -43 36 0 c20 0 47 4 61
10 22 8 28 6 41 -14 15 -23 55 -46 79 -46 13 0 36 48 36 76 0 8 -13 20 -29 28
-15 8 -34 29 -41 46 -14 33 -26 37 -54 15 -11 -8 -26 -15 -33 -15 -16 0 -2 32
29 67 21 22 21 64 1 70 -7 3 -25 -8 -39 -24z"/>
<path d="M5731 5396 c-16 -19 -11 -29 8 -17 7 5 12 14 9 21 -3 9 -8 7 -17 -4z"/>
<path d="M4390 5393 c-60 -10 -170 -47 -162 -55 15 -15 127 -21 165 -9 43 15
89 49 82 62 -6 9 -38 10 -85 2z"/>
<path d="M5805 5360 c-3 -5 -1 -10 4 -10 6 0 11 5 11 10 0 6 -2 10 -4 10 -3 0
-8 -4 -11 -10z"/>
<path d="M3026 5238 c-31 -48 -58 -122 -59 -165 -2 -38 2 -48 23 -64 70 -51
123 -23 141 75 10 55 9 62 -17 117 -31 66 -61 78 -88 37z"/>
<path d="M2531 5073 c-19 -8 -104 -73 -113 -87 -14 -20 -9 -56 7 -56 9 0 33
12 55 26 42 28 67 27 105 -1 16 -13 21 -31 25 -88 5 -67 6 -72 27 -70 17 2 27
-6 39 -30 32 -61 77 -117 96 -117 12 0 24 12 32 30 l12 30 25 -37 c16 -26 33
-39 51 -41 15 -2 34 -14 42 -28 19 -27 57 -32 76 -9 21 25 37 17 71 -32 37
-54 49 -65 66 -58 7 2 25 -2 40 -10 16 -7 63 -30 106 -50 l79 -37 24 23 c30
28 30 50 2 77 -27 24 -119 72 -141 72 -8 0 -20 7 -27 15 -7 8 -24 15 -39 15
-20 0 -32 10 -54 44 -36 57 -78 76 -118 52 l-28 -17 -15 36 c-17 39 -30 43
-58 19 -14 -14 -18 -14 -22 -3 -2 8 -9 29 -15 48 -6 19 -11 45 -11 58 0 27
-26 41 -43 24 -8 -8 -14 -3 -23 18 -15 37 -56 64 -95 64 -20 0 -29 5 -29 16 0
27 -38 79 -69 96 -31 15 -55 18 -80 8z m269 -282 c0 -11 3 -28 7 -38 4 -11 -3
-7 -16 9 -12 15 -19 32 -16 38 10 17 25 11 25 -9z"/>
</g>
</svg>
